<?xml version="1.0" encoding="us-ascii" standalone="no"?><svg xmlns="http://www.w3.org/2000/svg" xmlns:xlink="http://www.w3.org/1999/xlink" contentStyleType="text/css" height="689px" preserveAspectRatio="none" style="width:596px;height:689px;background:#FFFFFF;" version="1.1" viewBox="0 0 596 689" width="596px" zoomAndPan="magnify"><defs/><g><text fill="#000000" font-family="sans-serif" font-size="14" font-weight="bold" lengthAdjust="spacing" textLength="325" x="128.75" y="24.5332">Padr&#195;&#163;o Flyweight no Sistema Mec&#195;&#162;nicaBase</text><!--class Flyweight--><g id="elem_Flyweight"><rect codeLine="3" fill="#F1F1F1" height="65.6094" id="Flyweight" rx="2.5" ry="2.5" style="stroke:#181818;stroke-width:0.5;" width="169" x="7" y="250.6094"/><ellipse cx="57.75" cy="266.6094" fill="#B4A7E5" rx="11" ry="11" style="stroke:#181818;stroke-width:1.0;"/><path d="M58.7031,263.25 L58.7031,269.9063 L60.4219,269.9063 Q61.0313,269.9063 61.2969,270.1406 Q61.5625,270.375 61.5625,270.7656 Q61.5625,271.1406 61.2969,271.375 Q61.0313,271.6094 60.4219,271.6094 L55.2813,271.6094 Q54.6719,271.6094 54.4063,271.375 Q54.1406,271.1406 54.1406,270.75 Q54.1406,270.375 54.4063,270.1406 Q54.6719,269.9063 55.2813,269.9063 L57,269.9063 L57,263.25 L55.2813,263.25 Q54.6719,263.25 54.4063,263.0156 Q54.1406,262.7813 54.1406,262.3906 Q54.1406,262.0156 54.4063,261.7813 Q54.6719,261.5469 55.2813,261.5469 L60.4219,261.5469 Q61.0313,261.5469 61.2969,261.7813 Q61.5625,262.0156 61.5625,262.3906 Q61.5625,262.7813 61.2969,263.0156 Q61.0313,263.25 60.4219,263.25 L58.7031,263.25 Z " fill="#000000"/><text fill="#000000" font-family="sans-serif" font-size="14" font-style="italic" lengthAdjust="spacing" textLength="59" x="78.25" y="272.3379">Flyweight</text><line style="stroke:#181818;stroke-width:0.5;" x1="8" x2="175" y1="282.6094" y2="282.6094"/><line style="stroke:#181818;stroke-width:0.5;" x1="8" x2="175" y1="290.6094" y2="290.6094"/><ellipse cx="18" cy="304.9141" fill="#84BE84" rx="3" ry="3" style="stroke:#038048;stroke-width:1.0;"/><text fill="#000000" font-family="sans-serif" font-size="14" lengthAdjust="spacing" textLength="143" x="27" y="309.1426">operar(estadoExterno)</text></g><!--class Peca--><g id="elem_Peca"><rect codeLine="7" fill="#F1F1F1" height="118.4375" id="Peca" rx="2.5" ry="2.5" style="stroke:#181818;stroke-width:0.5;" width="169" x="85" y="420.6094"/><ellipse cx="149.25" cy="436.6094" fill="#ADD1B2" rx="11" ry="11" style="stroke:#181818;stroke-width:1.0;"/><path d="M152.0156,432.4844 Q152.1719,432.2656 152.3594,432.1563 Q152.5469,432.0469 152.7656,432.0469 Q153.1406,432.0469 153.375,432.3125 Q153.6094,432.5625 153.6094,433.1719 L153.6094,434.625 Q153.6094,435.2344 153.375,435.5 Q153.1406,435.7656 152.7656,435.7656 Q152.4219,435.7656 152.2188,435.5625 Q152.0156,435.375 151.9063,434.8594 Q151.8594,434.5 151.6719,434.3125 Q151.3438,433.9375 150.7344,433.7188 Q150.125,433.5 149.5,433.5 Q148.7344,433.5 148.0938,433.8281 Q147.4688,434.1563 146.9688,434.9063 Q146.4844,435.6563 146.4844,436.6875 L146.4844,437.7813 Q146.4844,439.0156 147.375,439.8438 Q148.2656,440.6563 149.8594,440.6563 Q150.7969,440.6563 151.4531,440.4063 Q151.8438,440.25 152.2656,439.8125 Q152.5313,439.5469 152.6719,439.4688 Q152.8281,439.3906 153.0313,439.3906 Q153.3594,439.3906 153.6094,439.6563 Q153.875,439.9063 153.875,440.25 Q153.875,440.5938 153.5313,441 Q153.0313,441.5781 152.2344,441.9063 Q151.1563,442.3594 149.8594,442.3594 Q148.3438,442.3594 147.1406,441.7344 Q146.1563,441.2344 145.4688,440.1719 Q144.7813,439.0938 144.7813,437.8125 L144.7813,436.6563 Q144.7813,435.3281 145.3906,434.1875 Q146.0156,433.0313 147.1094,432.4219 Q148.2031,431.7969 149.4375,431.7969 Q150.1719,431.7969 150.8125,431.9688 Q151.4688,432.125 152.0156,432.4844 Z " fill="#000000"/><text fill="#000000" font-family="sans-serif" font-size="14" lengthAdjust="spacing" textLength="32" x="169.75" y="442.3379">Peca</text><line style="stroke:#181818;stroke-width:0.5;" x1="86" x2="253" y1="452.6094" y2="452.6094"/><rect fill="none" height="6" style="stroke:#C82930;stroke-width:1.0;" width="6" x="93" y="463.9141"/><text fill="#000000" font-family="sans-serif" font-size="14" lengthAdjust="spacing" textLength="84" x="105" y="471.1426">nome : String</text><rect fill="none" height="6" style="stroke:#C82930;stroke-width:1.0;" width="6" x="93" y="481.5234"/><text fill="#000000" font-family="sans-serif" font-size="14" lengthAdjust="spacing" textLength="70" x="105" y="488.752">valor : float</text><rect fill="none" height="6" style="stroke:#C82930;stroke-width:1.0;" width="6" x="93" y="499.1328"/><text fill="#000000" font-family="sans-serif" font-size="14" lengthAdjust="spacing" textLength="98" x="105" y="506.3613">quantidade : int</text><line style="stroke:#181818;stroke-width:0.5;" x1="86" x2="253" y1="513.4375" y2="513.4375"/><ellipse cx="96" cy="527.7422" fill="#84BE84" rx="3" ry="3" style="stroke:#038048;stroke-width:1.0;"/><text fill="#000000" font-family="sans-serif" font-size="14" lengthAdjust="spacing" textLength="143" x="105" y="531.9707">operar(estadoExterno)</text></g><!--class UnsharedConcreteFlyweight--><g id="elem_UnsharedConcreteFlyweight"><rect codeLine="14" fill="#F1F1F1" height="83.2188" id="UnsharedConcreteFlyweight" rx="2.5" ry="2.5" style="stroke:#181818;stroke-width:0.5;" width="210" x="64.5" y="599.6094"/><ellipse cx="79.5" cy="615.6094" fill="#ADD1B2" rx="11" ry="11" style="stroke:#181818;stroke-width:1.0;"/><path d="M82.2656,611.4844 Q82.4219,611.2656 82.6094,611.1563 Q82.7969,611.0469 83.0156,611.0469 Q83.3906,611.0469 83.625,611.3125 Q83.8594,611.5625 83.8594,612.1719 L83.8594,613.625 Q83.8594,614.2344 83.625,614.5 Q83.3906,614.7656 83.0156,614.7656 Q82.6719,614.7656 82.4688,614.5625 Q82.2656,614.375 82.1563,613.8594 Q82.1094,613.5 81.9219,613.3125 Q81.5938,612.9375 80.9844,612.7188 Q80.375,612.5 79.75,612.5 Q78.9844,612.5 78.3438,612.8281 Q77.7188,613.1563 77.2188,613.9063 Q76.7344,614.6563 76.7344,615.6875 L76.7344,616.7813 Q76.7344,618.0156 77.625,618.8438 Q78.5156,619.6563 80.1094,619.6563 Q81.0469,619.6563 81.7031,619.4063 Q82.0938,619.25 82.5156,618.8125 Q82.7813,618.5469 82.9219,618.4688 Q83.0781,618.3906 83.2813,618.3906 Q83.6094,618.3906 83.8594,618.6563 Q84.125,618.9063 84.125,619.25 Q84.125,619.5938 83.7813,620 Q83.2813,620.5781 82.4844,620.9063 Q81.4063,621.3594 80.1094,621.3594 Q78.5938,621.3594 77.3906,620.7344 Q76.4063,620.2344 75.7188,619.1719 Q75.0313,618.0938 75.0313,616.8125 L75.0313,615.6563 Q75.0313,614.3281 75.6406,613.1875 Q76.2656,612.0313 77.3594,611.4219 Q78.4531,610.7969 79.6875,610.7969 Q80.4219,610.7969 81.0625,610.9688 Q81.7188,611.125 82.2656,611.4844 Z " fill="#000000"/><text fill="#000000" font-family="sans-serif" font-size="14" lengthAdjust="spacing" textLength="178" x="93.5" y="621.3379">UnsharedConcreteFlyweight</text><line style="stroke:#181818;stroke-width:0.5;" x1="65.5" x2="273.5" y1="631.6094" y2="631.6094"/><rect fill="none" height="6" style="stroke:#C82930;stroke-width:1.0;" width="6" x="72.5" y="642.9141"/><text fill="#000000" font-family="sans-serif" font-size="14" lengthAdjust="spacing" textLength="154" x="84.5" y="650.1426">estadoExclusivo : Object</text><line style="stroke:#181818;stroke-width:0.5;" x1="65.5" x2="273.5" y1="657.2188" y2="657.2188"/><ellipse cx="75.5" cy="671.5234" fill="#84BE84" rx="3" ry="3" style="stroke:#038048;stroke-width:1.0;"/><text fill="#000000" font-family="sans-serif" font-size="14" lengthAdjust="spacing" textLength="143" x="84.5" y="675.752">operar(estadoExterno)</text></g><!--class PecaFlyweightFactory--><g id="elem_PecaFlyweightFactory"><rect codeLine="19" fill="#F1F1F1" height="118.4375" id="PecaFlyweightFactory" rx="2.5" ry="2.5" style="stroke:#181818;stroke-width:0.5;" width="250" x="339.5" y="224.6094"/><ellipse cx="390.75" cy="240.6094" fill="#ADD1B2" rx="11" ry="11" style="stroke:#181818;stroke-width:1.0;"/><path d="M393.5156,236.4844 Q393.6719,236.2656 393.8594,236.1563 Q394.0469,236.0469 394.2656,236.0469 Q394.6406,236.0469 394.875,236.3125 Q395.1094,236.5625 395.1094,237.1719 L395.1094,238.625 Q395.1094,239.2344 394.875,239.5 Q394.6406,239.7656 394.2656,239.7656 Q393.9219,239.7656 393.7188,239.5625 Q393.5156,239.375 393.4063,238.8594 Q393.3594,238.5 393.1719,238.3125 Q392.8438,237.9375 392.2344,237.7188 Q391.625,237.5 391,237.5 Q390.2344,237.5 389.5938,237.8281 Q388.9688,238.1563 388.4688,238.9063 Q387.9844,239.6563 387.9844,240.6875 L387.9844,241.7813 Q387.9844,243.0156 388.875,243.8438 Q389.7656,244.6563 391.3594,244.6563 Q392.2969,244.6563 392.9531,244.4063 Q393.3438,244.25 393.7656,243.8125 Q394.0313,243.5469 394.1719,243.4688 Q394.3281,243.3906 394.5313,243.3906 Q394.8594,243.3906 395.1094,243.6563 Q395.375,243.9063 395.375,244.25 Q395.375,244.5938 395.0313,245 Q394.5313,245.5781 393.7344,245.9063 Q392.6563,246.3594 391.3594,246.3594 Q389.8438,246.3594 388.6406,245.7344 Q387.6563,245.2344 386.9688,244.1719 Q386.2813,243.0938 386.2813,241.8125 L386.2813,240.6563 Q386.2813,239.3281 386.8906,238.1875 Q387.5156,237.0313 388.6094,236.4219 Q389.7031,235.7969 390.9375,235.7969 Q391.6719,235.7969 392.3125,235.9688 Q392.9688,236.125 393.5156,236.4844 Z " fill="#000000"/><text fill="#000000" font-family="sans-serif" font-size="14" lengthAdjust="spacing" textLength="139" x="411.25" y="246.3379">PecaFlyweightFactory</text><line style="stroke:#181818;stroke-width:0.5;" x1="340.5" x2="588.5" y1="256.6094" y2="256.6094"/><rect fill="none" height="6" style="stroke:#C82930;stroke-width:1.0;" width="6" x="347.5" y="267.9141"/><text fill="#000000" font-family="sans-serif" font-size="14" lengthAdjust="spacing" textLength="170" x="359.5" y="275.1426">cache : Map&lt;String, Peca&gt;</text><line style="stroke:#181818;stroke-width:0.5;" x1="340.5" x2="588.5" y1="282.2188" y2="282.2188"/><ellipse cx="350.5" cy="296.5234" fill="#84BE84" rx="3" ry="3" style="stroke:#038048;stroke-width:1.0;"/><text fill="#000000" font-family="sans-serif" font-size="14" lengthAdjust="spacing" textLength="224" x="359.5" y="300.752">getPeca(nome : String, valor : float)</text><ellipse cx="350.5" cy="314.1328" fill="#84BE84" rx="3" ry="3" style="stroke:#038048;stroke-width:1.0;"/><text fill="#000000" font-family="sans-serif" font-size="14" lengthAdjust="spacing" textLength="161" x="359.5" y="318.3613">getTotalCompartilhados()</text><ellipse cx="350.5" cy="331.7422" fill="#84BE84" rx="3" ry="3" style="stroke:#038048;stroke-width:1.0;"/><text fill="#000000" font-family="sans-serif" font-size="14" lengthAdjust="spacing" textLength="48" x="359.5" y="335.9707">limpar()</text></g><!--class PecaCrud--><g id="elem_PecaCrud"><rect codeLine="26" fill="#F1F1F1" height="100.8281" id="PecaCrud" rx="2.5" ry="2.5" style="stroke:#181818;stroke-width:0.5;" width="155" x="198" y="45.6094"/><ellipse cx="240" cy="61.6094" fill="#ADD1B2" rx="11" ry="11" style="stroke:#181818;stroke-width:1.0;"/><path d="M242.7656,57.4844 Q242.9219,57.2656 243.1094,57.1563 Q243.2969,57.0469 243.5156,57.0469 Q243.8906,57.0469 244.125,57.3125 Q244.3594,57.5625 244.3594,58.1719 L244.3594,59.625 Q244.3594,60.2344 244.125,60.5 Q243.8906,60.7656 243.5156,60.7656 Q243.1719,60.7656 242.9688,60.5625 Q242.7656,60.375 242.6563,59.8594 Q242.6094,59.5 242.4219,59.3125 Q242.0938,58.9375 241.4844,58.7188 Q240.875,58.5 240.25,58.5 Q239.4844,58.5 238.8438,58.8281 Q238.2188,59.1563 237.7188,59.9063 Q237.2344,60.6563 237.2344,61.6875 L237.2344,62.7813 Q237.2344,64.0156 238.125,64.8438 Q239.0156,65.6563 240.6094,65.6563 Q241.5469,65.6563 242.2031,65.4063 Q242.5938,65.25 243.0156,64.8125 Q243.2813,64.5469 243.4219,64.4688 Q243.5781,64.3906 243.7813,64.3906 Q244.1094,64.3906 244.3594,64.6563 Q244.625,64.9063 244.625,65.25 Q244.625,65.5938 244.2813,66 Q243.7813,66.5781 242.9844,66.9063 Q241.9063,67.3594 240.6094,67.3594 Q239.0938,67.3594 237.8906,66.7344 Q236.9063,66.2344 236.2188,65.1719 Q235.5313,64.0938 235.5313,62.8125 L235.5313,61.6563 Q235.5313,60.3281 236.1406,59.1875 Q236.7656,58.0313 237.8594,57.4219 Q238.9531,56.7969 240.1875,56.7969 Q240.9219,56.7969 241.5625,56.9688 Q242.2188,57.125 242.7656,57.4844 Z " fill="#000000"/><text fill="#000000" font-family="sans-serif" font-size="14" lengthAdjust="spacing" textLength="63" x="260" y="67.3379">PecaCrud</text><line style="stroke:#181818;stroke-width:0.5;" x1="199" x2="352" y1="77.6094" y2="77.6094"/><line style="stroke:#181818;stroke-width:0.5;" x1="199" x2="352" y1="85.6094" y2="85.6094"/><ellipse cx="209" cy="99.9141" fill="#84BE84" rx="3" ry="3" style="stroke:#038048;stroke-width:1.0;"/><text fill="#000000" font-family="sans-serif" font-size="14" lengthAdjust="spacing" textLength="50" x="218" y="104.1426">criar(...)</text><ellipse cx="209" cy="117.5234" fill="#84BE84" rx="3" ry="3" style="stroke:#038048;stroke-width:1.0;"/><text fill="#000000" font-family="sans-serif" font-size="14" lengthAdjust="spacing" textLength="80" x="218" y="121.752">listarTodos()</text><ellipse cx="209" cy="135.1328" fill="#84BE84" rx="3" ry="3" style="stroke:#038048;stroke-width:1.0;"/><text fill="#000000" font-family="sans-serif" font-size="14" lengthAdjust="spacing" textLength="129" x="218" y="139.3613">setUsarFlyweight(...)</text></g><!--reverse link Flyweight to Peca--><g id="link_Flyweight_Peca"><path d="M99.6543,333.931 C107.8343,362.011 118.82,386.2694 134.23,420.2494 " fill="none" id="Flyweight-backto-Peca" style="stroke:#181818;stroke-width:1.0;stroke-dasharray:7.0,7.0;"/><polygon fill="none" points="94.62,316.6494,93.8938,335.6091,105.4149,332.2529,94.62,316.6494" style="stroke:#181818;stroke-width:1.0;"/></g><!--reverse link Flyweight to Peca--><g id="link_Flyweight_Peca"><path codeLine="32" d="M123.0092,332.622 C137.5992,360.702 146.73,386.2694 158.54,420.2494 " fill="none" id="Flyweight-backto-Peca-1" style="stroke:#181818;stroke-width:1.0;stroke-dasharray:7.0,7.0;"/><polygon fill="none" points="114.71,316.6494,117.685,335.3884,128.3334,329.8556,114.71,316.6494" style="stroke:#181818;stroke-width:1.0;"/></g><!--reverse link Peca to UnsharedConcreteFlyweight--><g id="link_Peca_UnsharedConcreteFlyweight"><path d="M156.4474,556.6245 C155.6274,576.7545 156.71,580.8994 158.21,599.3394 " fill="none" id="Peca-backto-UnsharedConcreteFlyweight" style="stroke:#181818;stroke-width:1.0;"/><polygon fill="none" points="157.18,538.6394,150.4523,556.3803,162.4424,556.8687,157.18,538.6394" style="stroke:#181818;stroke-width:1.0;"/></g><!--reverse link Peca to UnsharedConcreteFlyweight--><g id="link_Peca_UnsharedConcreteFlyweight"><path codeLine="33" d="M183.3172,556.6226 C184.1872,576.7526 183.04,580.8994 181.45,599.3394 " fill="none" id="Peca-backto-UnsharedConcreteFlyweight-1" style="stroke:#181818;stroke-width:1.0;"/><polygon fill="none" points="182.54,538.6394,177.3228,556.8817,189.3116,556.3635,182.54,538.6394" style="stroke:#181818;stroke-width:1.0;"/></g><!--link PecaFlyweightFactory to Peca--><g id="link_PecaFlyweightFactory_Peca"><path codeLine="35" d="M375.99,342.8194 C337.38,368.2094 297.3228,394.5422 259.1628,419.6422 " fill="none" id="PecaFlyweightFactory-to-Peca" style="stroke:#181818;stroke-width:1.0;"/><polygon fill="#181818" points="254.15,422.9394,263.8674,421.3354,258.3273,420.1917,259.4711,414.6517,254.15,422.9394" style="stroke:#181818;stroke-width:1.0;"/><text fill="#000000" font-family="sans-serif" font-size="13" lengthAdjust="spacing" textLength="103" x="326.5" y="387.1045">cria e compartilha</text></g><!--link PecaCrud to PecaFlyweightFactory--><g id="link_PecaCrud_PecaFlyweightFactory"><path codeLine="36" d="M326.15,146.8194 C350.53,170.7494 375.6371,195.3974 401.0471,220.3274 " fill="none" id="PecaCrud-to-PecaFlyweightFactory" style="stroke:#181818;stroke-width:1.0;"/><polygon fill="#181818" points="405.33,224.5294,401.707,215.3711,401.7609,221.0277,396.1043,221.0816,405.33,224.5294" style="stroke:#181818;stroke-width:1.0;"/><text fill="#000000" font-family="sans-serif" font-size="13" lengthAdjust="spacing" textLength="21" x="370.5" y="191.1045">usa</text></g><!--link PecaCrud to Peca--><g id="link_PecaCrud_Peca"><path codeLine="37" d="M261.64,146.9794 C242.09,217.3694 208.0664,339.7984 187.3064,414.5084 " fill="none" id="PecaCrud-to-Peca" style="stroke:#181818;stroke-width:1.0;"/><polygon fill="#181818" points="185.7,420.2894,191.9635,412.6889,187.0387,415.4719,184.2556,410.547,185.7,420.2894" style="stroke:#181818;stroke-width:1.0;"/><text fill="#000000" font-family="sans-serif" font-size="13" lengthAdjust="spacing" textLength="56" x="240.5" y="289.1045">referencia</text></g><!--SRC=[ZL51Ri8m4Bpx5Ju6bUG1274eAZTK9E01MsSXhXmxNMzeKUcfFsb_qdwiTWAXK2fnisPdPsV6hDcWd45Et-zVdqvEpFOPzRfWQPsSQyzOWfoY2jCFgnNSWaSXj6Ma5IZynNyLKjwu2WaeGS-GkxkNmBAk9zw4K0QybpDK87LP6IpHiZ_RJgqhKGxad4dRTGGsO1m5P6KSS0IUQh2iSyWZBxYuukRI-W88yx6pYf3nU1C3r-PxLus1WuOojTSR5sxSFpoYuYkZTT8JKEnesuegK4MqEuLgs4RhD-nHL5qZntTo4hqlJuBtziI5Op1ZLrP0h4qHRFYacHaTiUJCpPZglFqLHJgCiopRiqC4MhXktIClFL3dlcK6hMDLmrsMDQAYAMkuIzF_YnNYOXbfEcgh7iXeIA9KnooYStoW_TaVoDfVu0MSS8M4LcaGFm00]--></g></svg>