<svg xmlns="http://www.w3.org/2000/svg" xmlns:xlink="http://www.w3.org/1999/xlink" contentStyleType="text/css" data-diagram-type="CLASS" height="517.1875px" preserveAspectRatio="none" style="width:1020px;height:517px;background:#FFFFFF;" version="1.1" viewBox="0 0 1020 517" width="1020.3125px" zoomAndPan="magnify"><defs/><g><!--class ListarAgendamentoUseCase--><g class="entity" data-entity="ListarAgendamentoUseCase" data-source-line="9" data-uid="ent0002" id="entity_ListarAgendamentoUseCase"><rect fill="#F1F1F1" height="102.5146" rx="3.9063" ry="3.9063" style="stroke:#181818;stroke-width:0.7813;" width="249.7681" x="50.7813" y="10.9375"/><ellipse cx="74.2188" cy="35.9375" fill="#ADD1B2" rx="17.1875" ry="17.1875" style="stroke:#181818;stroke-width:1.5625;"/><path d="M78.54,29.4922 Q78.7842,29.1504 79.0771,28.9795 Q79.3701,28.8086 79.7119,28.8086 Q80.2979,28.8086 80.6641,29.2236 Q81.0303,29.6143 81.0303,30.5664 L81.0303,32.8369 Q81.0303,33.7891 80.6641,34.2041 Q80.2979,34.6191 79.7119,34.6191 Q79.1748,34.6191 78.8574,34.3018 Q78.54,34.0088 78.3691,33.2031 Q78.2959,32.6416 78.0029,32.3486 Q77.4902,31.7627 76.5381,31.4209 Q75.5859,31.0791 74.6094,31.0791 Q73.4131,31.0791 72.4121,31.5918 Q71.4355,32.1045 70.6543,33.2764 Q69.8975,34.4482 69.8975,36.0596 L69.8975,37.7686 Q69.8975,39.6973 71.2891,40.9912 Q72.6807,42.2607 75.1709,42.2607 Q76.6357,42.2607 77.6611,41.8701 Q78.2715,41.626 78.9307,40.9424 Q79.3457,40.5273 79.5654,40.4053 Q79.8096,40.2832 80.127,40.2832 Q80.6396,40.2832 81.0303,40.6982 Q81.4453,41.0889 81.4453,41.626 Q81.4453,42.1631 80.9082,42.7979 Q80.127,43.7012 78.8818,44.2139 Q77.1973,44.9219 75.1709,44.9219 Q72.8027,44.9219 70.9229,43.9453 Q69.3848,43.1641 68.3105,41.5039 Q67.2363,39.8193 67.2363,37.8174 L67.2363,36.0107 Q67.2363,33.9355 68.1885,32.1533 Q69.165,30.3467 70.874,29.3945 Q72.583,28.418 74.5117,28.418 Q75.6592,28.418 76.6602,28.6865 Q77.6855,28.9307 78.54,29.4922 Z " fill="#000000"/><text fill="#000000" font-family="Courier" font-size="15.625" lengthAdjust="spacing" textLength="199.7681" x="96.0938" y="42.3309">ListarAgendamentoUseCase</text><line style="stroke:#181818;stroke-width:0.7813;" x1="52.3438" x2="298.9868" y1="60.9375" y2="60.9375"/><line style="stroke:#181818;stroke-width:0.7813;" x1="52.3438" x2="298.9868" y1="73.4375" y2="73.4375"/><text fill="#000000" font-family="sans-serif" font-size="21.875" lengthAdjust="spacing" textLength="62.6129" x="60.1563" y="102.3956">+use()</text></g><!--class RemoverAgendamentoUseCase--><g class="entity" data-entity="RemoverAgendamentoUseCase" data-source-line="13" data-uid="ent0003" id="entity_RemoverAgendamentoUseCase"><rect fill="#F1F1F1" height="102.5146" rx="3.9063" ry="3.9063" style="stroke:#181818;stroke-width:0.7813;" width="274.9451" x="355.4688" y="10.9375"/><ellipse cx="378.9063" cy="35.9375" fill="#ADD1B2" rx="17.1875" ry="17.1875" style="stroke:#181818;stroke-width:1.5625;"/><path d="M383.2275,29.4922 Q383.4717,29.1504 383.7646,28.9795 Q384.0576,28.8086 384.3994,28.8086 Q384.9854,28.8086 385.3516,29.2236 Q385.7178,29.6143 385.7178,30.5664 L385.7178,32.8369 Q385.7178,33.7891 385.3516,34.2041 Q384.9854,34.6191 384.3994,34.6191 Q383.8623,34.6191 383.5449,34.3018 Q383.2275,34.0088 383.0566,33.2031 Q382.9834,32.6416 382.6904,32.3486 Q382.1777,31.7627 381.2256,31.4209 Q380.2734,31.0791 379.2969,31.0791 Q378.1006,31.0791 377.0996,31.5918 Q376.123,32.1045 375.3418,33.2764 Q374.585,34.4482 374.585,36.0596 L374.585,37.7686 Q374.585,39.6973 375.9766,40.9912 Q377.3682,42.2607 379.8584,42.2607 Q381.3232,42.2607 382.3486,41.8701 Q382.959,41.626 383.6182,40.9424 Q384.0332,40.5273 384.2529,40.4053 Q384.4971,40.2832 384.8145,40.2832 Q385.3271,40.2832 385.7178,40.6982 Q386.1328,41.0889 386.1328,41.626 Q386.1328,42.1631 385.5957,42.7979 Q384.8145,43.7012 383.5693,44.2139 Q381.8848,44.9219 379.8584,44.9219 Q377.4902,44.9219 375.6104,43.9453 Q374.0723,43.1641 372.998,41.5039 Q371.9238,39.8193 371.9238,37.8174 L371.9238,36.0107 Q371.9238,33.9355 372.876,32.1533 Q373.8525,30.3467 375.5615,29.3945 Q377.2705,28.418 379.1992,28.418 Q380.3467,28.418 381.3477,28.6865 Q382.373,28.9307 383.2275,29.4922 Z " fill="#000000"/><text fill="#000000" font-family="Courier" font-size="15.625" lengthAdjust="spacing" textLength="224.9451" x="400.7813" y="42.3309">RemoverAgendamentoUseCase</text><line style="stroke:#181818;stroke-width:0.7813;" x1="357.0313" x2="628.8513" y1="60.9375" y2="60.9375"/><line style="stroke:#181818;stroke-width:0.7813;" x1="357.0313" x2="628.8513" y1="73.4375" y2="73.4375"/><text fill="#000000" font-family="sans-serif" font-size="21.875" lengthAdjust="spacing" textLength="62.6129" x="364.8438" y="102.3956">+use()</text></g><!--class AtualizarCategoriaDespesaUseCase--><g class="entity" data-entity="AtualizarCategoriaDespesaUseCase" data-source-line="17" data-uid="ent0004" id="entity_AtualizarCategoriaDespesaUseCase"><rect fill="#F1F1F1" height="102.5146" rx="3.9063" ry="3.9063" style="stroke:#181818;stroke-width:0.7813;" width="304.4708" x="685.9375" y="10.9375"/><ellipse cx="709.375" cy="35.9375" fill="#ADD1B2" rx="17.1875" ry="17.1875" style="stroke:#181818;stroke-width:1.5625;"/><path d="M713.6963,29.4922 Q713.9404,29.1504 714.2334,28.9795 Q714.5264,28.8086 714.8682,28.8086 Q715.4541,28.8086 715.8203,29.2236 Q716.1865,29.6143 716.1865,30.5664 L716.1865,32.8369 Q716.1865,33.7891 715.8203,34.2041 Q715.4541,34.6191 714.8682,34.6191 Q714.3311,34.6191 714.0137,34.3018 Q713.6963,34.0088 713.5254,33.2031 Q713.4521,32.6416 713.1592,32.3486 Q712.6465,31.7627 711.6943,31.4209 Q710.7422,31.0791 709.7656,31.0791 Q708.5693,31.0791 707.5684,31.5918 Q706.5918,32.1045 705.8105,33.2764 Q705.0537,34.4482 705.0537,36.0596 L705.0537,37.7686 Q705.0537,39.6973 706.4453,40.9912 Q707.8369,42.2607 710.3271,42.2607 Q711.792,42.2607 712.8174,41.8701 Q713.4277,41.626 714.0869,40.9424 Q714.502,40.5273 714.7217,40.4053 Q714.9658,40.2832 715.2832,40.2832 Q715.7959,40.2832 716.1865,40.6982 Q716.6016,41.0889 716.6016,41.626 Q716.6016,42.1631 716.0645,42.7979 Q715.2832,43.7012 714.0381,44.2139 Q712.3535,44.9219 710.3271,44.9219 Q707.959,44.9219 706.0791,43.9453 Q704.541,43.1641 703.4668,41.5039 Q702.3926,39.8193 702.3926,37.8174 L702.3926,36.0107 Q702.3926,33.9355 703.3447,32.1533 Q704.3213,30.3467 706.0303,29.3945 Q707.7393,28.418 709.668,28.418 Q710.8154,28.418 711.8164,28.6865 Q712.8418,28.9307 713.6963,29.4922 Z " fill="#000000"/><text fill="#000000" font-family="Courier" font-size="15.625" lengthAdjust="spacing" textLength="254.4708" x="731.25" y="42.3309">AtualizarCategoriaDespesaUseCase</text><line style="stroke:#181818;stroke-width:0.7813;" x1="687.5" x2="988.8458" y1="60.9375" y2="60.9375"/><line style="stroke:#181818;stroke-width:0.7813;" x1="687.5" x2="988.8458" y1="73.4375" y2="73.4375"/><text fill="#000000" font-family="sans-serif" font-size="21.875" lengthAdjust="spacing" textLength="62.6129" x="695.3125" y="102.3956">+use()</text></g><!--class BuscarPorIdCategoriaDespesaUseCase--><g class="entity" data-entity="BuscarPorIdCategoriaDespesaUseCase" data-source-line="21" data-uid="ent0005" id="entity_BuscarPorIdCategoriaDespesaUseCase"><rect fill="#F1F1F1" height="102.5146" rx="3.9063" ry="3.9063" style="stroke:#181818;stroke-width:0.7813;" width="329.6555" x="10.9375" y="207.8125"/><ellipse cx="34.375" cy="232.8125" fill="#ADD1B2" rx="17.1875" ry="17.1875" style="stroke:#181818;stroke-width:1.5625;"/><path d="M38.6963,226.3672 Q38.9404,226.0254 39.2334,225.8545 Q39.5264,225.6836 39.8682,225.6836 Q40.4541,225.6836 40.8203,226.0986 Q41.1865,226.4893 41.1865,227.4414 L41.1865,229.7119 Q41.1865,230.6641 40.8203,231.0791 Q40.4541,231.4941 39.8682,231.4941 Q39.3311,231.4941 39.0137,231.1768 Q38.6963,230.8838 38.5254,230.0781 Q38.4521,229.5166 38.1592,229.2236 Q37.6465,228.6377 36.6943,228.2959 Q35.7422,227.9541 34.7656,227.9541 Q33.5693,227.9541 32.5684,228.4668 Q31.5918,228.9795 30.8105,230.1514 Q30.0537,231.3232 30.0537,232.9346 L30.0537,234.6436 Q30.0537,236.5723 31.4453,237.8662 Q32.8369,239.1357 35.3271,239.1357 Q36.792,239.1357 37.8174,238.7451 Q38.4277,238.501 39.0869,237.8174 Q39.502,237.4023 39.7217,237.2803 Q39.9658,237.1582 40.2832,237.1582 Q40.7959,237.1582 41.1865,237.5732 Q41.6016,237.9639 41.6016,238.501 Q41.6016,239.0381 41.0645,239.6729 Q40.2832,240.5762 39.0381,241.0889 Q37.3535,241.7969 35.3271,241.7969 Q32.959,241.7969 31.0791,240.8203 Q29.541,240.0391 28.4668,238.3789 Q27.3926,236.6943 27.3926,234.6924 L27.3926,232.8857 Q27.3926,230.8105 28.3447,229.0283 Q29.3213,227.2217 31.0303,226.2695 Q32.7393,225.293 34.668,225.293 Q35.8154,225.293 36.8164,225.5615 Q37.8418,225.8057 38.6963,226.3672 Z " fill="#000000"/><text fill="#000000" font-family="Courier" font-size="15.625" lengthAdjust="spacing" textLength="279.6555" x="56.25" y="239.2059">BuscarPorIdCategoriaDespesaUseCase</text><line style="stroke:#181818;stroke-width:0.7813;" x1="12.5" x2="339.0305" y1="257.8125" y2="257.8125"/><line style="stroke:#181818;stroke-width:0.7813;" x1="12.5" x2="339.0305" y1="270.3125" y2="270.3125"/><text fill="#000000" font-family="sans-serif" font-size="21.875" lengthAdjust="spacing" textLength="62.6129" x="20.3125" y="299.2706">+use()</text></g><!--class CriarCategoriaDespesaUseCase--><g class="entity" data-entity="CriarCategoriaDespesaUseCase" data-source-line="25" data-uid="ent0006" id="entity_CriarCategoriaDespesaUseCase"><rect fill="#F1F1F1" height="102.5146" rx="3.9063" ry="3.9063" style="stroke:#181818;stroke-width:0.7813;" width="277.5314" x="396.0938" y="207.8125"/><ellipse cx="419.5313" cy="232.8125" fill="#ADD1B2" rx="17.1875" ry="17.1875" style="stroke:#181818;stroke-width:1.5625;"/><path d="M423.8525,226.3672 Q424.0967,226.0254 424.3896,225.8545 Q424.6826,225.6836 425.0244,225.6836 Q425.6104,225.6836 425.9766,226.0986 Q426.3428,226.4893 426.3428,227.4414 L426.3428,229.7119 Q426.3428,230.6641 425.9766,231.0791 Q425.6104,231.4941 425.0244,231.4941 Q424.4873,231.4941 424.1699,231.1768 Q423.8525,230.8838 423.6816,230.0781 Q423.6084,229.5166 423.3154,229.2236 Q422.8027,228.6377 421.8506,228.2959 Q420.8984,227.9541 419.9219,227.9541 Q418.7256,227.9541 417.7246,228.4668 Q416.748,228.9795 415.9668,230.1514 Q415.21,231.3232 415.21,232.9346 L415.21,234.6436 Q415.21,236.5723 416.6016,237.8662 Q417.9932,239.1357 420.4834,239.1357 Q421.9482,239.1357 422.9736,238.7451 Q423.584,238.501 424.2432,237.8174 Q424.6582,237.4023 424.8779,237.2803 Q425.1221,237.1582 425.4395,237.1582 Q425.9521,237.1582 426.3428,237.5732 Q426.7578,237.9639 426.7578,238.501 Q426.7578,239.0381 426.2207,239.6729 Q425.4395,240.5762 424.1943,241.0889 Q422.5098,241.7969 420.4834,241.7969 Q418.1152,241.7969 416.2354,240.8203 Q414.6973,240.0391 413.623,238.3789 Q412.5488,236.6943 412.5488,234.6924 L412.5488,232.8857 Q412.5488,230.8105 413.501,229.0283 Q414.4775,227.2217 416.1865,226.2695 Q417.8955,225.293 419.8242,225.293 Q420.9717,225.293 421.9727,225.5615 Q422.998,225.8057 423.8525,226.3672 Z " fill="#000000"/><text fill="#000000" font-family="Courier" font-size="15.625" lengthAdjust="spacing" textLength="227.5314" x="441.4063" y="239.2059">CriarCategoriaDespesaUseCase</text><line style="stroke:#181818;stroke-width:0.7813;" x1="397.6563" x2="672.0627" y1="257.8125" y2="257.8125"/><line style="stroke:#181818;stroke-width:0.7813;" x1="397.6563" x2="672.0627" y1="270.3125" y2="270.3125"/><text fill="#000000" font-family="sans-serif" font-size="21.875" lengthAdjust="spacing" textLength="62.6129" x="405.4688" y="299.2706">+use()</text></g><!--class ListarCategoriaDespesaUseCase--><g class="entity" data-entity="ListarCategoriaDespesaUseCase" data-source-line="29" data-uid="ent0007" id="entity_ListarCategoriaDespesaUseCase"><rect fill="#F1F1F1" height="102.5146" rx="3.9063" ry="3.9063" style="stroke:#181818;stroke-width:0.7813;" width="281.8878" x="728.9063" y="207.8125"/><ellipse cx="752.3438" cy="232.8125" fill="#ADD1B2" rx="17.1875" ry="17.1875" style="stroke:#181818;stroke-width:1.5625;"/><path d="M756.665,226.3672 Q756.9092,226.0254 757.2021,225.8545 Q757.4951,225.6836 757.8369,225.6836 Q758.4229,225.6836 758.7891,226.0986 Q759.1553,226.4893 759.1553,227.4414 L759.1553,229.7119 Q759.1553,230.6641 758.7891,231.0791 Q758.4229,231.4941 757.8369,231.4941 Q757.2998,231.4941 756.9824,231.1768 Q756.665,230.8838 756.4941,230.0781 Q756.4209,229.5166 756.1279,229.2236 Q755.6152,228.6377 754.6631,228.2959 Q753.7109,227.9541 752.7344,227.9541 Q751.5381,227.9541 750.5371,228.4668 Q749.5605,228.9795 748.7793,230.1514 Q748.0225,231.3232 748.0225,232.9346 L748.0225,234.6436 Q748.0225,236.5723 749.4141,237.8662 Q750.8057,239.1357 753.2959,239.1357 Q754.7607,239.1357 755.7861,238.7451 Q756.3965,238.501 757.0557,237.8174 Q757.4707,237.4023 757.6904,237.2803 Q757.9346,237.1582 758.252,237.1582 Q758.7646,237.1582 759.1553,237.5732 Q759.5703,237.9639 759.5703,238.501 Q759.5703,239.0381 759.0332,239.6729 Q758.252,240.5762 757.0068,241.0889 Q755.3223,241.7969 753.2959,241.7969 Q750.9277,241.7969 749.0479,240.8203 Q747.5098,240.0391 746.4355,238.3789 Q745.3613,236.6943 745.3613,234.6924 L745.3613,232.8857 Q745.3613,230.8105 746.3135,229.0283 Q747.29,227.2217 748.999,226.2695 Q750.708,225.293 752.6367,225.293 Q753.7842,225.293 754.7852,225.5615 Q755.8105,225.8057 756.665,226.3672 Z " fill="#000000"/><text fill="#000000" font-family="Courier" font-size="15.625" lengthAdjust="spacing" textLength="231.8878" x="774.2188" y="239.2059">ListarCategoriaDespesaUseCase</text><line style="stroke:#181818;stroke-width:0.7813;" x1="730.4688" x2="1009.2316" y1="257.8125" y2="257.8125"/><line style="stroke:#181818;stroke-width:0.7813;" x1="730.4688" x2="1009.2316" y1="270.3125" y2="270.3125"/><text fill="#000000" font-family="sans-serif" font-size="21.875" lengthAdjust="spacing" textLength="62.6129" x="738.2813" y="299.2706">+use()</text></g><!--class RemoverCategoriaDespesaUseCase--><g class="entity" data-entity="RemoverCategoriaDespesaUseCase" data-source-line="33" data-uid="ent0008" id="entity_RemoverCategoriaDespesaUseCase"><rect fill="#F1F1F1" height="102.5146" rx="3.9063" ry="3.9063" style="stroke:#181818;stroke-width:0.7813;" width="307.0648" x="21.875" y="404.6875"/><ellipse cx="45.3125" cy="429.6875" fill="#ADD1B2" rx="17.1875" ry="17.1875" style="stroke:#181818;stroke-width:1.5625;"/><path d="M49.6338,423.2422 Q49.8779,422.9004 50.1709,422.7295 Q50.4639,422.5586 50.8057,422.5586 Q51.3916,422.5586 51.7578,422.9736 Q52.124,423.3643 52.124,424.3164 L52.124,426.5869 Q52.124,427.5391 51.7578,427.9541 Q51.3916,428.3691 50.8057,428.3691 Q50.2686,428.3691 49.9512,428.0518 Q49.6338,427.7588 49.4629,426.9531 Q49.3896,426.3916 49.0967,426.0986 Q48.584,425.5127 47.6318,425.1709 Q46.6797,424.8291 45.7031,424.8291 Q44.5068,424.8291 43.5059,425.3418 Q42.5293,425.8545 41.748,427.0264 Q40.9912,428.1982 40.9912,429.8096 L40.9912,431.5186 Q40.9912,433.4473 42.3828,434.7412 Q43.7744,436.0107 46.2646,436.0107 Q47.7295,436.0107 48.7549,435.6201 Q49.3652,435.376 50.0244,434.6924 Q50.4395,434.2773 50.6592,434.1553 Q50.9033,434.0332 51.2207,434.0332 Q51.7334,434.0332 52.124,434.4482 Q52.5391,434.8389 52.5391,435.376 Q52.5391,435.9131 52.002,436.5479 Q51.2207,437.4512 49.9756,437.9639 Q48.291,438.6719 46.2646,438.6719 Q43.8965,438.6719 42.0166,437.6953 Q40.4785,436.9141 39.4043,435.2539 Q38.3301,433.5693 38.3301,431.5674 L38.3301,429.7607 Q38.3301,427.6855 39.2822,425.9033 Q40.2588,424.0967 41.9678,423.1445 Q43.6768,422.168 45.6055,422.168 Q46.7529,422.168 47.7539,422.4365 Q48.7793,422.6807 49.6338,423.2422 Z " fill="#000000"/><text fill="#000000" font-family="Courier" font-size="15.625" lengthAdjust="spacing" textLength="257.0648" x="67.1875" y="436.0809">RemoverCategoriaDespesaUseCase</text><line style="stroke:#181818;stroke-width:0.7813;" x1="23.4375" x2="327.3773" y1="454.6875" y2="454.6875"/><line style="stroke:#181818;stroke-width:0.7813;" x1="23.4375" x2="327.3773" y1="467.1875" y2="467.1875"/><text fill="#000000" font-family="sans-serif" font-size="21.875" lengthAdjust="spacing" textLength="62.6129" x="31.25" y="496.1456">+use()</text></g><!--class AtualizarDespesaUseCase--><g class="entity" data-entity="AtualizarDespesaUseCase" data-source-line="37" data-uid="ent0009" id="entity_AtualizarDespesaUseCase"><rect fill="#F1F1F1" height="102.5146" rx="3.9063" ry="3.9063" style="stroke:#181818;stroke-width:0.7813;" width="236.7218" x="385.1563" y="404.6875"/><ellipse cx="408.5938" cy="429.6875" fill="#ADD1B2" rx="17.1875" ry="17.1875" style="stroke:#181818;stroke-width:1.5625;"/><path d="M412.915,423.2422 Q413.1592,422.9004 413.4521,422.7295 Q413.7451,422.5586 414.0869,422.5586 Q414.6729,422.5586 415.0391,422.9736 Q415.4053,423.3643 415.4053,424.3164 L415.4053,426.5869 Q415.4053,427.5391 415.0391,427.9541 Q414.6729,428.3691 414.0869,428.3691 Q413.5498,428.3691 413.2324,428.0518 Q412.915,427.7588 412.7441,426.9531 Q412.6709,426.3916 412.3779,426.0986 Q411.8652,425.5127 410.9131,425.1709 Q409.9609,424.8291 408.9844,424.8291 Q407.7881,424.8291 406.7871,425.3418 Q405.8105,425.8545 405.0293,427.0264 Q404.2725,428.1982 404.2725,429.8096 L404.2725,431.5186 Q404.2725,433.4473 405.6641,434.7412 Q407.0557,436.0107 409.5459,436.0107 Q411.0107,436.0107 412.0361,435.6201 Q412.6465,435.376 413.3057,434.6924 Q413.7207,434.2773 413.9404,434.1553 Q414.1846,434.0332 414.502,434.0332 Q415.0146,434.0332 415.4053,434.4482 Q415.8203,434.8389 415.8203,435.376 Q415.8203,435.9131 415.2832,436.5479 Q414.502,437.4512 413.2568,437.9639 Q411.5723,438.6719 409.5459,438.6719 Q407.1777,438.6719 405.2979,437.6953 Q403.7598,436.9141 402.6855,435.2539 Q401.6113,433.5693 401.6113,431.5674 L401.6113,429.7607 Q401.6113,427.6855 402.5635,425.9033 Q403.54,424.0967 405.249,423.1445 Q406.958,422.168 408.8867,422.168 Q410.0342,422.168 411.0352,422.4365 Q412.0605,422.6807 412.915,423.2422 Z " fill="#000000"/><text fill="#000000" font-family="Courier" font-size="15.625" lengthAdjust="spacing" textLength="186.7218" x="430.4688" y="436.0809">AtualizarDespesaUseCase</text><line style="stroke:#181818;stroke-width:0.7813;" x1="386.7188" x2="620.3156" y1="454.6875" y2="454.6875"/><line style="stroke:#181818;stroke-width:0.7813;" x1="386.7188" x2="620.3156" y1="467.1875" y2="467.1875"/><text fill="#000000" font-family="sans-serif" font-size="21.875" lengthAdjust="spacing" textLength="62.6129" x="394.5313" y="496.1456">+use()</text></g><!--SRC=[bP3DQW9H34Rtzocoh7IZ2nzWEY88HKIHhkDCqD2PcqkIgzJYkplOLWH5Ejjyv-JFFZacL6oXJWoZyJ3OjL8rQ5QuAs-oqwoIkE8ZmHqobUYNPFGmccDBK4fM9ht93uhfWslVTTemk2HmWOsuIxSBArNE4c_uXYFvLo8GzPs4SEaFxsoEMcmfrjsOwB8sAj48lWF0QpPw6OJJ7xoaLlRqNxhmZ0qVKKjqseeoJiWI6JwJth9Lg0lHMTr7ApkirvoVk_iOlyVtKQuVUCgU0G00]--></g></svg>