<svg xmlns="http://www.w3.org/2000/svg" xmlns:xlink="http://www.w3.org/1999/xlink" contentStyleType="text/css" data-diagram-type="CLASS" height="818.75px" preserveAspectRatio="none" style="width:860px;height:818px;background:#FFFFFF;" version="1.1" viewBox="0 0 860 818" width="860.9375px" zoomAndPan="magnify"><defs/><g><!--class LoginTerminalHandler--><g class="entity" data-entity="LoginTerminalHandler" data-source-line="9" data-uid="ent0002" id="entity_LoginTerminalHandler"><rect fill="#F1F1F1" height="102.5146" rx="3.9063" ry="3.9063" style="stroke:#181818;stroke-width:0.7813;" width="203.7247" x="10.9375" y="51.5625"/><ellipse cx="34.375" cy="76.5625" fill="#ADD1B2" rx="17.1875" ry="17.1875" style="stroke:#181818;stroke-width:1.5625;"/><path d="M38.6963,70.1172 Q38.9404,69.7754 39.2334,69.6045 Q39.5264,69.4336 39.8682,69.4336 Q40.4541,69.4336 40.8203,69.8486 Q41.1865,70.2393 41.1865,71.1914 L41.1865,73.4619 Q41.1865,74.4141 40.8203,74.8291 Q40.4541,75.2441 39.8682,75.2441 Q39.3311,75.2441 39.0137,74.9268 Q38.6963,74.6338 38.5254,73.8281 Q38.4521,73.2666 38.1592,72.9736 Q37.6465,72.3877 36.6943,72.0459 Q35.7422,71.7041 34.7656,71.7041 Q33.5693,71.7041 32.5684,72.2168 Q31.5918,72.7295 30.8105,73.9014 Q30.0537,75.0732 30.0537,76.6846 L30.0537,78.3936 Q30.0537,80.3223 31.4453,81.6162 Q32.8369,82.8857 35.3271,82.8857 Q36.792,82.8857 37.8174,82.4951 Q38.4277,82.251 39.0869,81.5674 Q39.502,81.1523 39.7217,81.0303 Q39.9658,80.9082 40.2832,80.9082 Q40.7959,80.9082 41.1865,81.3232 Q41.6016,81.7139 41.6016,82.251 Q41.6016,82.7881 41.0645,83.4229 Q40.2832,84.3262 39.0381,84.8389 Q37.3535,85.5469 35.3271,85.5469 Q32.959,85.5469 31.0791,84.5703 Q29.541,83.7891 28.4668,82.1289 Q27.3926,80.4443 27.3926,78.4424 L27.3926,76.6357 Q27.3926,74.5605 28.3447,72.7783 Q29.3213,70.9717 31.0303,70.0195 Q32.7393,69.043 34.668,69.043 Q35.8154,69.043 36.8164,69.3115 Q37.8418,69.5557 38.6963,70.1172 Z " fill="#000000"/><text fill="#000000" font-family="Courier" font-size="15.625" lengthAdjust="spacing" textLength="153.7247" x="56.25" y="82.9559">LoginTerminalHandler</text><line style="stroke:#181818;stroke-width:0.7813;" x1="12.5" x2="213.0997" y1="101.5625" y2="101.5625"/><line style="stroke:#181818;stroke-width:0.7813;" x1="12.5" x2="213.0997" y1="114.0625" y2="114.0625"/><text fill="#000000" font-family="sans-serif" font-size="21.875" lengthAdjust="spacing" textLength="73.5611" x="20.3125" y="143.0206">+login()</text></g><!--class OficinaTerminalHandler--><g class="entity" data-entity="OficinaTerminalHandler" data-source-line="13" data-uid="ent0003" id="entity_OficinaTerminalHandler"><rect fill="#F1F1F1" height="102.5146" rx="3.9063" ry="3.9063" style="stroke:#181818;stroke-width:0.7813;" width="214.1235" x="269.5313" y="51.5625"/><ellipse cx="292.9688" cy="76.5625" fill="#ADD1B2" rx="17.1875" ry="17.1875" style="stroke:#181818;stroke-width:1.5625;"/><path d="M297.29,70.1172 Q297.5342,69.7754 297.8271,69.6045 Q298.1201,69.4336 298.4619,69.4336 Q299.0479,69.4336 299.4141,69.8486 Q299.7803,70.2393 299.7803,71.1914 L299.7803,73.4619 Q299.7803,74.4141 299.4141,74.8291 Q299.0479,75.2441 298.4619,75.2441 Q297.9248,75.2441 297.6074,74.9268 Q297.29,74.6338 297.1191,73.8281 Q297.0459,73.2666 296.7529,72.9736 Q296.2402,72.3877 295.2881,72.0459 Q294.3359,71.7041 293.3594,71.7041 Q292.1631,71.7041 291.1621,72.2168 Q290.1855,72.7295 289.4043,73.9014 Q288.6475,75.0732 288.6475,76.6846 L288.6475,78.3936 Q288.6475,80.3223 290.0391,81.6162 Q291.4307,82.8857 293.9209,82.8857 Q295.3857,82.8857 296.4111,82.4951 Q297.0215,82.251 297.6807,81.5674 Q298.0957,81.1523 298.3154,81.0303 Q298.5596,80.9082 298.877,80.9082 Q299.3896,80.9082 299.7803,81.3232 Q300.1953,81.7139 300.1953,82.251 Q300.1953,82.7881 299.6582,83.4229 Q298.877,84.3262 297.6318,84.8389 Q295.9473,85.5469 293.9209,85.5469 Q291.5527,85.5469 289.6729,84.5703 Q288.1348,83.7891 287.0605,82.1289 Q285.9863,80.4443 285.9863,78.4424 L285.9863,76.6357 Q285.9863,74.5605 286.9385,72.7783 Q287.915,70.9717 289.624,70.0195 Q291.333,69.043 293.2617,69.043 Q294.4092,69.043 295.4102,69.3115 Q296.4355,69.5557 297.29,70.1172 Z " fill="#000000"/><text fill="#000000" font-family="Courier" font-size="15.625" lengthAdjust="spacing" textLength="164.1235" x="314.8438" y="82.9559">OficinaTerminalHandler</text><line style="stroke:#181818;stroke-width:0.7813;" x1="271.0938" x2="482.0923" y1="101.5625" y2="101.5625"/><line style="stroke:#181818;stroke-width:0.7813;" x1="271.0938" x2="482.0923" y1="114.0625" y2="114.0625"/><text fill="#000000" font-family="sans-serif" font-size="21.875" lengthAdjust="spacing" textLength="82.0633" x="278.9063" y="143.0206">+menu()</text></g><!--class OrdemDeServicoTerminalHandler--><g class="entity" data-entity="OrdemDeServicoTerminalHandler" data-source-line="17" data-uid="ent0004" id="entity_OrdemDeServicoTerminalHandler"><rect fill="#F1F1F1" height="185.0586" rx="3.9063" ry="3.9063" style="stroke:#181818;stroke-width:0.7813;" width="285.321" x="538.2813" y="10.9375"/><ellipse cx="561.7188" cy="35.9375" fill="#ADD1B2" rx="17.1875" ry="17.1875" style="stroke:#181818;stroke-width:1.5625;"/><path d="M566.04,29.4922 Q566.2842,29.1504 566.5771,28.9795 Q566.8701,28.8086 567.2119,28.8086 Q567.7979,28.8086 568.1641,29.2236 Q568.5303,29.6143 568.5303,30.5664 L568.5303,32.8369 Q568.5303,33.7891 568.1641,34.2041 Q567.7979,34.6191 567.2119,34.6191 Q566.6748,34.6191 566.3574,34.3018 Q566.04,34.0088 565.8691,33.2031 Q565.7959,32.6416 565.5029,32.3486 Q564.9902,31.7627 564.0381,31.4209 Q563.0859,31.0791 562.1094,31.0791 Q560.9131,31.0791 559.9121,31.5918 Q558.9355,32.1045 558.1543,33.2764 Q557.3975,34.4482 557.3975,36.0596 L557.3975,37.7686 Q557.3975,39.6973 558.7891,40.9912 Q560.1807,42.2607 562.6709,42.2607 Q564.1357,42.2607 565.1611,41.8701 Q565.7715,41.626 566.4307,40.9424 Q566.8457,40.5273 567.0654,40.4053 Q567.3096,40.2832 567.627,40.2832 Q568.1396,40.2832 568.5303,40.6982 Q568.9453,41.0889 568.9453,41.626 Q568.9453,42.1631 568.4082,42.7979 Q567.627,43.7012 566.3818,44.2139 Q564.6973,44.9219 562.6709,44.9219 Q560.3027,44.9219 558.4229,43.9453 Q556.8848,43.1641 555.8105,41.5039 Q554.7363,39.8193 554.7363,37.8174 L554.7363,36.0107 Q554.7363,33.9355 555.6885,32.1533 Q556.665,30.3467 558.374,29.3945 Q560.083,28.418 562.0117,28.418 Q563.1592,28.418 564.1602,28.6865 Q565.1855,28.9307 566.04,29.4922 Z " fill="#000000"/><text fill="#000000" font-family="Courier" font-size="15.625" lengthAdjust="spacing" textLength="235.321" x="583.5938" y="42.3309">OrdemDeServicoTerminalHandler</text><line style="stroke:#181818;stroke-width:0.7813;" x1="539.8438" x2="822.0398" y1="60.9375" y2="60.9375"/><line style="stroke:#181818;stroke-width:0.7813;" x1="539.8438" x2="822.0398" y1="73.4375" y2="73.4375"/><text fill="#000000" font-family="sans-serif" font-size="21.875" lengthAdjust="spacing" textLength="102.7206" x="547.6563" y="102.3956">+finalizar()</text><text fill="#000000" font-family="sans-serif" font-size="21.875" lengthAdjust="spacing" textLength="82.0633" x="547.6563" y="129.9103">+menu()</text><text fill="#000000" font-family="sans-serif" font-size="21.875" lengthAdjust="spacing" textLength="73.5291" x="547.6563" y="157.4249">+listar()</text><text fill="#000000" font-family="sans-serif" font-size="21.875" lengthAdjust="spacing" textLength="165.9744" x="547.6563" y="184.9396">+adicionarPeca()</text></g><!--class PecaTerminalHandler--><g class="entity" data-entity="PecaTerminalHandler" data-source-line="24" data-uid="ent0005" id="entity_PecaTerminalHandler"><rect fill="#F1F1F1" height="240.0879" rx="3.9063" ry="3.9063" style="stroke:#181818;stroke-width:0.7813;" width="201.1078" x="11.7188" y="316.4063"/><ellipse cx="35.1563" cy="341.4063" fill="#ADD1B2" rx="17.1875" ry="17.1875" style="stroke:#181818;stroke-width:1.5625;"/><path d="M39.4775,334.9609 Q39.7217,334.6191 40.0146,334.4482 Q40.3076,334.2773 40.6494,334.2773 Q41.2354,334.2773 41.6016,334.6924 Q41.9678,335.083 41.9678,336.0352 L41.9678,338.3057 Q41.9678,339.2578 41.6016,339.6729 Q41.2354,340.0879 40.6494,340.0879 Q40.1123,340.0879 39.7949,339.7705 Q39.4775,339.4775 39.3066,338.6719 Q39.2334,338.1104 38.9404,337.8174 Q38.4277,337.2314 37.4756,336.8896 Q36.5234,336.5479 35.5469,336.5479 Q34.3506,336.5479 33.3496,337.0605 Q32.373,337.5732 31.5918,338.7451 Q30.835,339.917 30.835,341.5283 L30.835,343.2373 Q30.835,345.166 32.2266,346.46 Q33.6182,347.7295 36.1084,347.7295 Q37.5732,347.7295 38.5986,347.3389 Q39.209,347.0947 39.8682,346.4111 Q40.2832,345.9961 40.5029,345.874 Q40.7471,345.752 41.0645,345.752 Q41.5771,345.752 41.9678,346.167 Q42.3828,346.5576 42.3828,347.0947 Q42.3828,347.6318 41.8457,348.2666 Q41.0645,349.1699 39.8193,349.6826 Q38.1348,350.3906 36.1084,350.3906 Q33.7402,350.3906 31.8604,349.4141 Q30.3223,348.6328 29.248,346.9727 Q28.1738,345.2881 28.1738,343.2861 L28.1738,341.4795 Q28.1738,339.4043 29.126,337.6221 Q30.1025,335.8154 31.8115,334.8633 Q33.5205,333.8867 35.4492,333.8867 Q36.5967,333.8867 37.5977,334.1553 Q38.623,334.3994 39.4775,334.9609 Z " fill="#000000"/><text fill="#000000" font-family="Courier" font-size="15.625" lengthAdjust="spacing" textLength="151.1078" x="57.0313" y="347.7997">PecaTerminalHandler</text><line style="stroke:#181818;stroke-width:0.7813;" x1="13.2813" x2="211.264" y1="366.4063" y2="366.4063"/><line style="stroke:#181818;stroke-width:0.7813;" x1="13.2813" x2="211.264" y1="378.9063" y2="378.9063"/><text fill="#000000" font-family="sans-serif" font-size="21.875" lengthAdjust="spacing" textLength="69.8761" x="21.0938" y="407.8644">+criar()</text><text fill="#000000" font-family="sans-serif" font-size="21.875" lengthAdjust="spacing" textLength="107.5699" x="21.0938" y="435.379">+remover()</text><text fill="#000000" font-family="sans-serif" font-size="21.875" lengthAdjust="spacing" textLength="110.0266" x="21.0938" y="462.8937">+atualizar()</text><text fill="#000000" font-family="sans-serif" font-size="21.875" lengthAdjust="spacing" textLength="173.2803" x="21.0938" y="490.4083">+entradaManual()</text><text fill="#000000" font-family="sans-serif" font-size="21.875" lengthAdjust="spacing" textLength="73.5291" x="21.0938" y="517.923">+listar()</text><text fill="#000000" font-family="sans-serif" font-size="21.875" lengthAdjust="spacing" textLength="82.0633" x="21.0938" y="545.4376">+menu()</text></g><!--class ServicoTerminalHandler--><g class="entity" data-entity="ServicoTerminalHandler" data-source-line="33" data-uid="ent0006" id="entity_ServicoTerminalHandler"><rect fill="#F1F1F1" height="212.5732" rx="3.9063" ry="3.9063" style="stroke:#181818;stroke-width:0.7813;" width="217.5949" x="267.9688" y="330.4688"/><ellipse cx="291.4063" cy="355.4688" fill="#ADD1B2" rx="17.1875" ry="17.1875" style="stroke:#181818;stroke-width:1.5625;"/><path d="M295.7275,349.0234 Q295.9717,348.6816 296.2646,348.5107 Q296.5576,348.3398 296.8994,348.3398 Q297.4854,348.3398 297.8516,348.7549 Q298.2178,349.1455 298.2178,350.0977 L298.2178,352.3682 Q298.2178,353.3203 297.8516,353.7354 Q297.4854,354.1504 296.8994,354.1504 Q296.3623,354.1504 296.0449,353.833 Q295.7275,353.54 295.5566,352.7344 Q295.4834,352.1729 295.1904,351.8799 Q294.6777,351.2939 293.7256,350.9521 Q292.7734,350.6104 291.7969,350.6104 Q290.6006,350.6104 289.5996,351.123 Q288.623,351.6357 287.8418,352.8076 Q287.085,353.9795 287.085,355.5908 L287.085,357.2998 Q287.085,359.2285 288.4766,360.5225 Q289.8682,361.792 292.3584,361.792 Q293.8232,361.792 294.8486,361.4014 Q295.459,361.1572 296.1182,360.4736 Q296.5332,360.0586 296.7529,359.9365 Q296.9971,359.8145 297.3145,359.8145 Q297.8271,359.8145 298.2178,360.2295 Q298.6328,360.6201 298.6328,361.1572 Q298.6328,361.6943 298.0957,362.3291 Q297.3145,363.2324 296.0693,363.7451 Q294.3848,364.4531 292.3584,364.4531 Q289.9902,364.4531 288.1104,363.4766 Q286.5723,362.6953 285.498,361.0352 Q284.4238,359.3506 284.4238,357.3486 L284.4238,355.542 Q284.4238,353.4668 285.376,351.6846 Q286.3525,349.8779 288.0615,348.9258 Q289.7705,347.9492 291.6992,347.9492 Q292.8467,347.9492 293.8477,348.2178 Q294.873,348.4619 295.7275,349.0234 Z " fill="#000000"/><text fill="#000000" font-family="Courier" font-size="15.625" lengthAdjust="spacing" textLength="167.5949" x="313.2813" y="361.8622">ServicoTerminalHandler</text><line style="stroke:#181818;stroke-width:0.7813;" x1="269.5313" x2="484.0012" y1="380.4688" y2="380.4688"/><line style="stroke:#181818;stroke-width:0.7813;" x1="269.5313" x2="484.0012" y1="392.9688" y2="392.9688"/><text fill="#000000" font-family="sans-serif" font-size="21.875" lengthAdjust="spacing" textLength="69.8761" x="277.3438" y="421.9269">+criar()</text><text fill="#000000" font-family="sans-serif" font-size="21.875" lengthAdjust="spacing" textLength="107.5699" x="277.3438" y="449.4415">+remover()</text><text fill="#000000" font-family="sans-serif" font-size="21.875" lengthAdjust="spacing" textLength="110.0266" x="277.3438" y="476.9562">+atualizar()</text><text fill="#000000" font-family="sans-serif" font-size="21.875" lengthAdjust="spacing" textLength="73.5291" x="277.3438" y="504.4708">+listar()</text><text fill="#000000" font-family="sans-serif" font-size="21.875" lengthAdjust="spacing" textLength="82.0633" x="277.3438" y="531.9855">+menu()</text></g><!--class VeiculoTerminalHandler--><g class="entity" data-entity="VeiculoTerminalHandler" data-source-line="41" data-uid="ent0007" id="entity_VeiculoTerminalHandler"><rect fill="#F1F1F1" height="295.1172" rx="3.9063" ry="3.9063" style="stroke:#181818;stroke-width:0.7813;" width="309.9716" x="540.625" y="289.0625"/><ellipse cx="606.0165" cy="314.0625" fill="#ADD1B2" rx="17.1875" ry="17.1875" style="stroke:#181818;stroke-width:1.5625;"/><path d="M610.3378,307.6172 Q610.582,307.2754 610.8749,307.1045 Q611.1679,306.9336 611.5097,306.9336 Q612.0956,306.9336 612.4619,307.3486 Q612.8281,307.7393 612.8281,308.6914 L612.8281,310.9619 Q612.8281,311.9141 612.4619,312.3291 Q612.0956,312.7441 611.5097,312.7441 Q610.9726,312.7441 610.6552,312.4268 Q610.3378,312.1338 610.1669,311.3281 Q610.0937,310.7666 609.8007,310.4736 Q609.288,309.8877 608.3359,309.5459 Q607.3837,309.2041 606.4072,309.2041 Q605.2109,309.2041 604.2099,309.7168 Q603.2333,310.2295 602.4521,311.4014 Q601.6953,312.5732 601.6953,314.1846 L601.6953,315.8936 Q601.6953,317.8223 603.0869,319.1162 Q604.4785,320.3857 606.9687,320.3857 Q608.4335,320.3857 609.4589,319.9951 Q610.0693,319.751 610.7285,319.0674 Q611.1435,318.6523 611.3632,318.5303 Q611.6074,318.4082 611.9247,318.4082 Q612.4374,318.4082 612.8281,318.8232 Q613.2431,319.2139 613.2431,319.751 Q613.2431,320.2881 612.706,320.9229 Q611.9247,321.8262 610.6796,322.3389 Q608.9951,323.0469 606.9687,323.0469 Q604.6005,323.0469 602.7206,322.0703 Q601.1826,321.2891 600.1083,319.6289 Q599.0341,317.9443 599.0341,315.9424 L599.0341,314.1357 Q599.0341,312.0605 599.9863,310.2783 Q600.9628,308.4717 602.6718,307.5195 Q604.3808,306.543 606.3095,306.543 Q607.457,306.543 608.4579,306.8115 Q609.4833,307.0557 610.3378,307.6172 Z " fill="#000000"/><text fill="#000000" font-family="Courier" font-size="15.625" lengthAdjust="spacing" textLength="166.7404" x="637.2147" y="320.4559">VeiculoTerminalHandler</text><line style="stroke:#181818;stroke-width:0.7813;" x1="542.1875" x2="849.0341" y1="339.0625" y2="339.0625"/><line style="stroke:#181818;stroke-width:0.7813;" x1="542.1875" x2="849.0341" y1="351.5625" y2="351.5625"/><text fill="#000000" font-family="sans-serif" font-size="21.875" lengthAdjust="spacing" textLength="69.8761" x="550" y="380.5206">+criar()</text><text fill="#000000" font-family="sans-serif" font-size="21.875" lengthAdjust="spacing" textLength="107.5699" x="550" y="408.0353">+remover()</text><text fill="#000000" font-family="sans-serif" font-size="21.875" lengthAdjust="spacing" textLength="110.0266" x="550" y="435.5499">+atualizar()</text><text fill="#000000" font-family="sans-serif" font-size="21.875" lengthAdjust="spacing" textLength="73.5291" x="550" y="463.0646">+listar()</text><text fill="#000000" font-family="sans-serif" font-size="21.875" lengthAdjust="spacing" textLength="93.0008" x="550" y="490.5792">+buscar()</text><text fill="#000000" font-family="sans-serif" font-size="21.875" lengthAdjust="spacing" textLength="82.0633" x="550" y="518.0939">+menu()</text><text fill="#000000" font-family="sans-serif" font-size="21.875" lengthAdjust="spacing" textLength="291.2216" x="550" y="545.6085">+selecionarVeiculoRecebido()</text><text fill="#000000" font-family="sans-serif" font-size="21.875" lengthAdjust="spacing" textLength="289.9826" x="550" y="573.1232">+selecionarClientePorBusca()</text></g><!--class TerminalRouter--><g class="entity" data-entity="TerminalRouter" data-source-line="52" data-uid="ent0008" id="entity_TerminalRouter"><rect fill="#F1F1F1" height="130.0293" rx="3.9063" ry="3.9063" style="stroke:#181818;stroke-width:0.7813;" width="202.9465" x="10.9375" y="678.125"/><ellipse cx="54.7478" cy="703.125" fill="#ADD1B2" rx="17.1875" ry="17.1875" style="stroke:#181818;stroke-width:1.5625;"/><path d="M59.0691,696.6797 Q59.3132,696.3379 59.6062,696.167 Q59.8991,695.9961 60.2409,695.9961 Q60.8269,695.9961 61.1931,696.4111 Q61.5593,696.8018 61.5593,697.7539 L61.5593,700.0244 Q61.5593,700.9766 61.1931,701.3916 Q60.8269,701.8066 60.2409,701.8066 Q59.7038,701.8066 59.3864,701.4893 Q59.0691,701.1963 58.8982,700.3906 Q58.8249,699.8291 58.532,699.5361 Q58.0193,698.9502 57.0671,698.6084 Q56.115,698.2666 55.1384,698.2666 Q53.9421,698.2666 52.9411,698.7793 Q51.9646,699.292 51.1833,700.4639 Q50.4265,701.6357 50.4265,703.2471 L50.4265,704.9561 Q50.4265,706.8848 51.8181,708.1787 Q53.2097,709.4482 55.6999,709.4482 Q57.1648,709.4482 58.1902,709.0576 Q58.8005,708.8135 59.4597,708.1299 Q59.8747,707.7148 60.0945,707.5928 Q60.3386,707.4707 60.656,707.4707 Q61.1687,707.4707 61.5593,707.8857 Q61.9743,708.2764 61.9743,708.8135 Q61.9743,709.3506 61.4372,709.9854 Q60.656,710.8887 59.4109,711.4014 Q57.7263,712.1094 55.6999,712.1094 Q53.3318,712.1094 51.4519,711.1328 Q49.9138,710.3516 48.8396,708.6914 Q47.7654,707.0068 47.7654,705.0049 L47.7654,703.1982 Q47.7654,701.123 48.7175,699.3408 Q49.6941,697.5342 51.403,696.582 Q53.112,695.6055 55.0407,695.6055 Q56.1882,695.6055 57.1892,695.874 Q58.2146,696.1182 59.0691,696.6797 Z " fill="#000000"/><text fill="#000000" font-family="Courier" font-size="15.625" lengthAdjust="spacing" textLength="107.6736" x="81.1501" y="709.5184">TerminalRouter</text><line style="stroke:#181818;stroke-width:0.7813;" x1="12.5" x2="212.3215" y1="728.125" y2="728.125"/><line style="stroke:#181818;stroke-width:0.7813;" x1="12.5" x2="212.3215" y1="740.625" y2="740.625"/><text fill="#000000" font-family="sans-serif" font-size="21.875" lengthAdjust="spacing" textLength="69.8868" x="20.3125" y="769.5831">+start()</text><text fill="#000000" font-family="sans-serif" font-size="21.875" lengthAdjust="spacing" textLength="184.1965" x="20.3125" y="797.0978">+menuFinanceiro()</text></g><!--class MainView--><g class="entity" data-entity="MainView" data-source-line="57" data-uid="ent0009" id="entity_MainView"><rect fill="#F1F1F1" height="102.5146" rx="3.9063" ry="3.9063" style="stroke:#181818;stroke-width:0.7813;" width="117.7338" x="269.5313" y="691.4063"/><ellipse cx="292.9688" cy="716.4063" fill="#ADD1B2" rx="17.1875" ry="17.1875" style="stroke:#181818;stroke-width:1.5625;"/><path d="M297.29,709.9609 Q297.5342,709.6191 297.8271,709.4482 Q298.1201,709.2773 298.4619,709.2773 Q299.0479,709.2773 299.4141,709.6924 Q299.7803,710.083 299.7803,711.0352 L299.7803,713.3057 Q299.7803,714.2578 299.4141,714.6729 Q299.0479,715.0879 298.4619,715.0879 Q297.9248,715.0879 297.6074,714.7705 Q297.29,714.4775 297.1191,713.6719 Q297.0459,713.1104 296.7529,712.8174 Q296.2402,712.2314 295.2881,711.8896 Q294.3359,711.5479 293.3594,711.5479 Q292.1631,711.5479 291.1621,712.0605 Q290.1855,712.5732 289.4043,713.7451 Q288.6475,714.917 288.6475,716.5283 L288.6475,718.2373 Q288.6475,720.166 290.0391,721.46 Q291.4307,722.7295 293.9209,722.7295 Q295.3857,722.7295 296.4111,722.3389 Q297.0215,722.0947 297.6807,721.4111 Q298.0957,720.9961 298.3154,720.874 Q298.5596,720.752 298.877,720.752 Q299.3896,720.752 299.7803,721.167 Q300.1953,721.5576 300.1953,722.0947 Q300.1953,722.6318 299.6582,723.2666 Q298.877,724.1699 297.6318,724.6826 Q295.9473,725.3906 293.9209,725.3906 Q291.5527,725.3906 289.6729,724.4141 Q288.1348,723.6328 287.0605,721.9727 Q285.9863,720.2881 285.9863,718.2861 L285.9863,716.4795 Q285.9863,714.4043 286.9385,712.6221 Q287.915,710.8154 289.624,709.8633 Q291.333,708.8867 293.2617,708.8867 Q294.4092,708.8867 295.4102,709.1553 Q296.4355,709.3994 297.29,709.9609 Z " fill="#000000"/><text fill="#000000" font-family="Courier" font-size="15.625" lengthAdjust="spacing" textLength="67.7338" x="314.8438" y="722.7997">MainView</text><line style="stroke:#181818;stroke-width:0.7813;" x1="271.0938" x2="385.7025" y1="741.4063" y2="741.4063"/><line style="stroke:#181818;stroke-width:0.7813;" x1="271.0938" x2="385.7025" y1="753.9063" y2="753.9063"/><text fill="#000000" font-family="sans-serif" font-size="21.875" lengthAdjust="spacing" textLength="69.8868" x="278.9063" y="782.8644">+start()</text></g><!--SRC=[hPBDJi904CVlVOezQhp0mGTG3D54b831ytHta8dRdMPs2X7Zkxj5AeKsn8F7pl_ZDpjfVATGWa1XN4bcU3t8uk_4UeZnHbKehnGVB8SvRT5qB6CEkbE6lT8J56X6N0cXjFIDGFbAJbSfDiYKIwDiSbRbj0i9MYKEBR-dWFfHec7H5MVPhjyyyXk55vI20lXx2CwZcC_Cc2jVAnUNsLTZVLwIJQvUSu6XElAAm-8EvoXhijmRMTOJseAatA6X1bFKPWekCJc0JD526r1_zzPQeIOiMF0QcoQjsZWCAk1W0Y6DkzpJzvnxo1-9v-eNIBRo_rQVLz5sxnhHuyynzxWPMip9yQayyfJEWrEMsxgelMYpuOpJ7xrViERg0JPEUh18mktW12Wi23V7aIH_0m00]--></g></svg>