<svg xmlns="http://www.w3.org/2000/svg" xmlns:xlink="http://www.w3.org/1999/xlink" contentStyleType="text/css" data-diagram-type="CLASS" height="490.625px" preserveAspectRatio="none" style="width:889px;height:490px;background:#FFFFFF;" version="1.1" viewBox="0 0 889 490" width="889.0625px" zoomAndPan="magnify"><defs/><g><!--class AtualizaFuncionarioUseCase--><g class="entity" data-entity="AtualizaFuncionarioUseCase" data-source-line="9" data-uid="ent0002" id="entity_AtualizaFuncionarioUseCase"><rect fill="#F1F1F1" height="102.5146" rx="3.9063" ry="3.9063" style="stroke:#181818;stroke-width:0.7813;" width="251.4923" x="10.9375" y="10.9375"/><ellipse cx="34.375" cy="35.9375" fill="#ADD1B2" rx="17.1875" ry="17.1875" style="stroke:#181818;stroke-width:1.5625;"/><path d="M38.6963,29.4922 Q38.9404,29.1504 39.2334,28.9795 Q39.5264,28.8086 39.8682,28.8086 Q40.4541,28.8086 40.8203,29.2236 Q41.1865,29.6143 41.1865,30.5664 L41.1865,32.8369 Q41.1865,33.7891 40.8203,34.2041 Q40.4541,34.6191 39.8682,34.6191 Q39.3311,34.6191 39.0137,34.3018 Q38.6963,34.0088 38.5254,33.2031 Q38.4521,32.6416 38.1592,32.3486 Q37.6465,31.7627 36.6943,31.4209 Q35.7422,31.0791 34.7656,31.0791 Q33.5693,31.0791 32.5684,31.5918 Q31.5918,32.1045 30.8105,33.2764 Q30.0537,34.4482 30.0537,36.0596 L30.0537,37.7686 Q30.0537,39.6973 31.4453,40.9912 Q32.8369,42.2607 35.3271,42.2607 Q36.792,42.2607 37.8174,41.8701 Q38.4277,41.626 39.0869,40.9424 Q39.502,40.5273 39.7217,40.4053 Q39.9658,40.2832 40.2832,40.2832 Q40.7959,40.2832 41.1865,40.6982 Q41.6016,41.0889 41.6016,41.626 Q41.6016,42.1631 41.0645,42.7979 Q40.2832,43.7012 39.0381,44.2139 Q37.3535,44.9219 35.3271,44.9219 Q32.959,44.9219 31.0791,43.9453 Q29.541,43.1641 28.4668,41.5039 Q27.3926,39.8193 27.3926,37.8174 L27.3926,36.0107 Q27.3926,33.9355 28.3447,32.1533 Q29.3213,30.3467 31.0303,29.3945 Q32.7393,28.418 34.668,28.418 Q35.8154,28.418 36.8164,28.6865 Q37.8418,28.9307 38.6963,29.4922 Z " fill="#000000"/><text fill="#000000" font-family="Courier" font-size="15.625" lengthAdjust="spacing" textLength="201.4923" x="56.25" y="42.3309">AtualizaFuncionarioUseCase</text><line style="stroke:#181818;stroke-width:0.7813;" x1="12.5" x2="260.8673" y1="60.9375" y2="60.9375"/><line style="stroke:#181818;stroke-width:0.7813;" x1="12.5" x2="260.8673" y1="73.4375" y2="73.4375"/><text fill="#000000" font-family="sans-serif" font-size="21.875" lengthAdjust="spacing" textLength="62.6129" x="20.3125" y="102.3956">+use()</text></g><!--class BuscaPorIdFuncionarioUseCase--><g class="entity" data-entity="BuscaPorIdFuncionarioUseCase" data-source-line="13" data-uid="ent0003" id="entity_BuscaPorIdFuncionarioUseCase"><rect fill="#F1F1F1" height="102.5146" rx="3.9063" ry="3.9063" style="stroke:#181818;stroke-width:0.7813;" width="276.6769" x="317.1875" y="10.9375"/><ellipse cx="340.625" cy="35.9375" fill="#ADD1B2" rx="17.1875" ry="17.1875" style="stroke:#181818;stroke-width:1.5625;"/><path d="M344.9463,29.4922 Q345.1904,29.1504 345.4834,28.9795 Q345.7764,28.8086 346.1182,28.8086 Q346.7041,28.8086 347.0703,29.2236 Q347.4365,29.6143 347.4365,30.5664 L347.4365,32.8369 Q347.4365,33.7891 347.0703,34.2041 Q346.7041,34.6191 346.1182,34.6191 Q345.5811,34.6191 345.2637,34.3018 Q344.9463,34.0088 344.7754,33.2031 Q344.7021,32.6416 344.4092,32.3486 Q343.8965,31.7627 342.9443,31.4209 Q341.9922,31.0791 341.0156,31.0791 Q339.8193,31.0791 338.8184,31.5918 Q337.8418,32.1045 337.0605,33.2764 Q336.3037,34.4482 336.3037,36.0596 L336.3037,37.7686 Q336.3037,39.6973 337.6953,40.9912 Q339.0869,42.2607 341.5771,42.2607 Q343.042,42.2607 344.0674,41.8701 Q344.6777,41.626 345.3369,40.9424 Q345.752,40.5273 345.9717,40.4053 Q346.2158,40.2832 346.5332,40.2832 Q347.0459,40.2832 347.4365,40.6982 Q347.8516,41.0889 347.8516,41.626 Q347.8516,42.1631 347.3145,42.7979 Q346.5332,43.7012 345.2881,44.2139 Q343.6035,44.9219 341.5771,44.9219 Q339.209,44.9219 337.3291,43.9453 Q335.791,43.1641 334.7168,41.5039 Q333.6426,39.8193 333.6426,37.8174 L333.6426,36.0107 Q333.6426,33.9355 334.5947,32.1533 Q335.5713,30.3467 337.2803,29.3945 Q338.9893,28.418 340.918,28.418 Q342.0654,28.418 343.0664,28.6865 Q344.0918,28.9307 344.9463,29.4922 Z " fill="#000000"/><text fill="#000000" font-family="Courier" font-size="15.625" lengthAdjust="spacing" textLength="226.6769" x="362.5" y="42.3309">BuscaPorIdFuncionarioUseCase</text><line style="stroke:#181818;stroke-width:0.7813;" x1="318.75" x2="592.3019" y1="60.9375" y2="60.9375"/><line style="stroke:#181818;stroke-width:0.7813;" x1="318.75" x2="592.3019" y1="73.4375" y2="73.4375"/><text fill="#000000" font-family="sans-serif" font-size="21.875" lengthAdjust="spacing" textLength="62.6129" x="326.5625" y="102.3956">+use()</text></g><!--class CriarFuncionarioUseCase--><g class="entity" data-entity="CriarFuncionarioUseCase" data-source-line="17" data-uid="ent0004" id="entity_CriarFuncionarioUseCase"><rect fill="#F1F1F1" height="102.5146" rx="3.9063" ry="3.9063" style="stroke:#181818;stroke-width:0.7813;" width="229.7562" x="648.4375" y="10.9375"/><ellipse cx="671.875" cy="35.9375" fill="#ADD1B2" rx="17.1875" ry="17.1875" style="stroke:#181818;stroke-width:1.5625;"/><path d="M676.1963,29.4922 Q676.4404,29.1504 676.7334,28.9795 Q677.0264,28.8086 677.3682,28.8086 Q677.9541,28.8086 678.3203,29.2236 Q678.6865,29.6143 678.6865,30.5664 L678.6865,32.8369 Q678.6865,33.7891 678.3203,34.2041 Q677.9541,34.6191 677.3682,34.6191 Q676.8311,34.6191 676.5137,34.3018 Q676.1963,34.0088 676.0254,33.2031 Q675.9521,32.6416 675.6592,32.3486 Q675.1465,31.7627 674.1943,31.4209 Q673.2422,31.0791 672.2656,31.0791 Q671.0693,31.0791 670.0684,31.5918 Q669.0918,32.1045 668.3105,33.2764 Q667.5537,34.4482 667.5537,36.0596 L667.5537,37.7686 Q667.5537,39.6973 668.9453,40.9912 Q670.3369,42.2607 672.8271,42.2607 Q674.292,42.2607 675.3174,41.8701 Q675.9277,41.626 676.5869,40.9424 Q677.002,40.5273 677.2217,40.4053 Q677.4658,40.2832 677.7832,40.2832 Q678.2959,40.2832 678.6865,40.6982 Q679.1016,41.0889 679.1016,41.626 Q679.1016,42.1631 678.5645,42.7979 Q677.7832,43.7012 676.5381,44.2139 Q674.8535,44.9219 672.8271,44.9219 Q670.459,44.9219 668.5791,43.9453 Q667.041,43.1641 665.9668,41.5039 Q664.8926,39.8193 664.8926,37.8174 L664.8926,36.0107 Q664.8926,33.9355 665.8447,32.1533 Q666.8213,30.3467 668.5303,29.3945 Q670.2393,28.418 672.168,28.418 Q673.3154,28.418 674.3164,28.6865 Q675.3418,28.9307 676.1963,29.4922 Z " fill="#000000"/><text fill="#000000" font-family="Courier" font-size="15.625" lengthAdjust="spacing" textLength="179.7562" x="693.75" y="42.3309">CriarFuncionarioUseCase</text><line style="stroke:#181818;stroke-width:0.7813;" x1="650" x2="876.6312" y1="60.9375" y2="60.9375"/><line style="stroke:#181818;stroke-width:0.7813;" x1="650" x2="876.6312" y1="73.4375" y2="73.4375"/><text fill="#000000" font-family="sans-serif" font-size="21.875" lengthAdjust="spacing" textLength="62.6129" x="657.8125" y="102.3956">+use()</text></g><!--class ListaFuncionarioUseCase--><g class="entity" data-entity="ListaFuncionarioUseCase" data-source-line="21" data-uid="ent0005" id="entity_ListaFuncionarioUseCase"><rect fill="#F1F1F1" height="102.5146" rx="3.9063" ry="3.9063" style="stroke:#181818;stroke-width:0.7813;" width="228.9093" x="21.875" y="207.8125"/><ellipse cx="45.3125" cy="232.8125" fill="#ADD1B2" rx="17.1875" ry="17.1875" style="stroke:#181818;stroke-width:1.5625;"/><path d="M49.6338,226.3672 Q49.8779,226.0254 50.1709,225.8545 Q50.4639,225.6836 50.8057,225.6836 Q51.3916,225.6836 51.7578,226.0986 Q52.124,226.4893 52.124,227.4414 L52.124,229.7119 Q52.124,230.6641 51.7578,231.0791 Q51.3916,231.4941 50.8057,231.4941 Q50.2686,231.4941 49.9512,231.1768 Q49.6338,230.8838 49.4629,230.0781 Q49.3896,229.5166 49.0967,229.2236 Q48.584,228.6377 47.6318,228.2959 Q46.6797,227.9541 45.7031,227.9541 Q44.5068,227.9541 43.5059,228.4668 Q42.5293,228.9795 41.748,230.1514 Q40.9912,231.3232 40.9912,232.9346 L40.9912,234.6436 Q40.9912,236.5723 42.3828,237.8662 Q43.7744,239.1357 46.2646,239.1357 Q47.7295,239.1357 48.7549,238.7451 Q49.3652,238.501 50.0244,237.8174 Q50.4395,237.4023 50.6592,237.2803 Q50.9033,237.1582 51.2207,237.1582 Q51.7334,237.1582 52.124,237.5732 Q52.5391,237.9639 52.5391,238.501 Q52.5391,239.0381 52.002,239.6729 Q51.2207,240.5762 49.9756,241.0889 Q48.291,241.7969 46.2646,241.7969 Q43.8965,241.7969 42.0166,240.8203 Q40.4785,240.0391 39.4043,238.3789 Q38.3301,236.6943 38.3301,234.6924 L38.3301,232.8857 Q38.3301,230.8105 39.2822,229.0283 Q40.2588,227.2217 41.9678,226.2695 Q43.6768,225.293 45.6055,225.293 Q46.7529,225.293 47.7539,225.5615 Q48.7793,225.8057 49.6338,226.3672 Z " fill="#000000"/><text fill="#000000" font-family="Courier" font-size="15.625" lengthAdjust="spacing" textLength="178.9093" x="67.1875" y="239.2059">ListaFuncionarioUseCase</text><line style="stroke:#181818;stroke-width:0.7813;" x1="23.4375" x2="249.2218" y1="257.8125" y2="257.8125"/><line style="stroke:#181818;stroke-width:0.7813;" x1="23.4375" x2="249.2218" y1="270.3125" y2="270.3125"/><text fill="#000000" font-family="sans-serif" font-size="21.875" lengthAdjust="spacing" textLength="62.6129" x="31.25" y="299.2706">+use()</text></g><!--class LoginFuncionarioUseCase--><g class="entity" data-entity="LoginFuncionarioUseCase" data-source-line="25" data-uid="ent0006" id="entity_LoginFuncionarioUseCase"><rect fill="#F1F1F1" height="102.5146" rx="3.9063" ry="3.9063" style="stroke:#181818;stroke-width:0.7813;" width="234.1354" x="307.0313" y="207.8125"/><ellipse cx="330.4688" cy="232.8125" fill="#ADD1B2" rx="17.1875" ry="17.1875" style="stroke:#181818;stroke-width:1.5625;"/><path d="M334.79,226.3672 Q335.0342,226.0254 335.3271,225.8545 Q335.6201,225.6836 335.9619,225.6836 Q336.5479,225.6836 336.9141,226.0986 Q337.2803,226.4893 337.2803,227.4414 L337.2803,229.7119 Q337.2803,230.6641 336.9141,231.0791 Q336.5479,231.4941 335.9619,231.4941 Q335.4248,231.4941 335.1074,231.1768 Q334.79,230.8838 334.6191,230.0781 Q334.5459,229.5166 334.2529,229.2236 Q333.7402,228.6377 332.7881,228.2959 Q331.8359,227.9541 330.8594,227.9541 Q329.6631,227.9541 328.6621,228.4668 Q327.6855,228.9795 326.9043,230.1514 Q326.1475,231.3232 326.1475,232.9346 L326.1475,234.6436 Q326.1475,236.5723 327.5391,237.8662 Q328.9307,239.1357 331.4209,239.1357 Q332.8857,239.1357 333.9111,238.7451 Q334.5215,238.501 335.1807,237.8174 Q335.5957,237.4023 335.8154,237.2803 Q336.0596,237.1582 336.377,237.1582 Q336.8896,237.1582 337.2803,237.5732 Q337.6953,237.9639 337.6953,238.501 Q337.6953,239.0381 337.1582,239.6729 Q336.377,240.5762 335.1318,241.0889 Q333.4473,241.7969 331.4209,241.7969 Q329.0527,241.7969 327.1729,240.8203 Q325.6348,240.0391 324.5605,238.3789 Q323.4863,236.6943 323.4863,234.6924 L323.4863,232.8857 Q323.4863,230.8105 324.4385,229.0283 Q325.415,227.2217 327.124,226.2695 Q328.833,225.293 330.7617,225.293 Q331.9092,225.293 332.9102,225.5615 Q333.9355,225.8057 334.79,226.3672 Z " fill="#000000"/><text fill="#000000" font-family="Courier" font-size="15.625" lengthAdjust="spacing" textLength="184.1354" x="352.3438" y="239.2059">LoginFuncionarioUseCase</text><line style="stroke:#181818;stroke-width:0.7813;" x1="308.5938" x2="539.6042" y1="257.8125" y2="257.8125"/><line style="stroke:#181818;stroke-width:0.7813;" x1="308.5938" x2="539.6042" y1="270.3125" y2="270.3125"/><text fill="#000000" font-family="sans-serif" font-size="21.875" lengthAdjust="spacing" textLength="73.5611" x="316.4063" y="299.2706">+login()</text></g><!--class RemoveFuncionarioUseCase--><g class="entity" data-entity="RemoveFuncionarioUseCase" data-source-line="29" data-uid="ent0007" id="entity_RemoveFuncionarioUseCase"><rect fill="#F1F1F1" height="102.5146" rx="3.9063" ry="3.9063" style="stroke:#181818;stroke-width:0.7813;" width="254.0863" x="596.875" y="207.8125"/><ellipse cx="620.3125" cy="232.8125" fill="#ADD1B2" rx="17.1875" ry="17.1875" style="stroke:#181818;stroke-width:1.5625;"/><path d="M624.6338,226.3672 Q624.8779,226.0254 625.1709,225.8545 Q625.4639,225.6836 625.8057,225.6836 Q626.3916,225.6836 626.7578,226.0986 Q627.124,226.4893 627.124,227.4414 L627.124,229.7119 Q627.124,230.6641 626.7578,231.0791 Q626.3916,231.4941 625.8057,231.4941 Q625.2686,231.4941 624.9512,231.1768 Q624.6338,230.8838 624.4629,230.0781 Q624.3896,229.5166 624.0967,229.2236 Q623.584,228.6377 622.6318,228.2959 Q621.6797,227.9541 620.7031,227.9541 Q619.5068,227.9541 618.5059,228.4668 Q617.5293,228.9795 616.748,230.1514 Q615.9912,231.3232 615.9912,232.9346 L615.9912,234.6436 Q615.9912,236.5723 617.3828,237.8662 Q618.7744,239.1357 621.2646,239.1357 Q622.7295,239.1357 623.7549,238.7451 Q624.3652,238.501 625.0244,237.8174 Q625.4395,237.4023 625.6592,237.2803 Q625.9033,237.1582 626.2207,237.1582 Q626.7334,237.1582 627.124,237.5732 Q627.5391,237.9639 627.5391,238.501 Q627.5391,239.0381 627.002,239.6729 Q626.2207,240.5762 624.9756,241.0889 Q623.291,241.7969 621.2646,241.7969 Q618.8965,241.7969 617.0166,240.8203 Q615.4785,240.0391 614.4043,238.3789 Q613.3301,236.6943 613.3301,234.6924 L613.3301,232.8857 Q613.3301,230.8105 614.2822,229.0283 Q615.2588,227.2217 616.9678,226.2695 Q618.6768,225.293 620.6055,225.293 Q621.7529,225.293 622.7539,225.5615 Q623.7793,225.8057 624.6338,226.3672 Z " fill="#000000"/><text fill="#000000" font-family="Courier" font-size="15.625" lengthAdjust="spacing" textLength="204.0863" x="642.1875" y="239.2059">RemoveFuncionarioUseCase</text><line style="stroke:#181818;stroke-width:0.7813;" x1="598.4375" x2="849.3988" y1="257.8125" y2="257.8125"/><line style="stroke:#181818;stroke-width:0.7813;" x1="598.4375" x2="849.3988" y1="270.3125" y2="270.3125"/><text fill="#000000" font-family="sans-serif" font-size="21.875" lengthAdjust="spacing" textLength="62.6129" x="606.25" y="299.2706">+use()</text></g><!--class Session--><g class="entity" data-entity="Session" data-source-line="33" data-uid="ent0008" id="entity_Session"><rect fill="#F1F1F1" height="75" rx="3.9063" ry="3.9063" style="stroke:#181818;stroke-width:0.7813;" width="105.5878" x="83.5938" y="404.6875"/><ellipse cx="107.0313" cy="429.6875" fill="#ADD1B2" rx="17.1875" ry="17.1875" style="stroke:#181818;stroke-width:1.5625;"/><path d="M111.3525,423.2422 Q111.5967,422.9004 111.8896,422.7295 Q112.1826,422.5586 112.5244,422.5586 Q113.1104,422.5586 113.4766,422.9736 Q113.8428,423.3643 113.8428,424.3164 L113.8428,426.5869 Q113.8428,427.5391 113.4766,427.9541 Q113.1104,428.3691 112.5244,428.3691 Q111.9873,428.3691 111.6699,428.0518 Q111.3525,427.7588 111.1816,426.9531 Q111.1084,426.3916 110.8154,426.0986 Q110.3027,425.5127 109.3506,425.1709 Q108.3984,424.8291 107.4219,424.8291 Q106.2256,424.8291 105.2246,425.3418 Q104.248,425.8545 103.4668,427.0264 Q102.71,428.1982 102.71,429.8096 L102.71,431.5186 Q102.71,433.4473 104.1016,434.7412 Q105.4932,436.0107 107.9834,436.0107 Q109.4482,436.0107 110.4736,435.6201 Q111.084,435.376 111.7432,434.6924 Q112.1582,434.2773 112.3779,434.1553 Q112.6221,434.0332 112.9395,434.0332 Q113.4521,434.0332 113.8428,434.4482 Q114.2578,434.8389 114.2578,435.376 Q114.2578,435.9131 113.7207,436.5479 Q112.9395,437.4512 111.6943,437.9639 Q110.0098,438.6719 107.9834,438.6719 Q105.6152,438.6719 103.7354,437.6953 Q102.1973,436.9141 101.123,435.2539 Q100.0488,433.5693 100.0488,431.5674 L100.0488,429.7607 Q100.0488,427.6855 101.001,425.9033 Q101.9775,424.0967 103.6865,423.1445 Q105.3955,422.168 107.3242,422.168 Q108.4717,422.168 109.4727,422.4365 Q110.498,422.6807 111.3525,423.2422 Z " fill="#000000"/><text fill="#000000" font-family="Courier" font-size="15.625" lengthAdjust="spacing" textLength="55.5878" x="128.9063" y="436.0809">Session</text><line style="stroke:#181818;stroke-width:0.7813;" x1="85.1563" x2="187.619" y1="454.6875" y2="454.6875"/><line style="stroke:#181818;stroke-width:0.7813;" x1="85.1563" x2="187.619" y1="467.1875" y2="467.1875"/></g><!--class JasyptCrypto--><g class="entity" data-entity="JasyptCrypto" data-source-line="36" data-uid="ent0009" id="entity_JasyptCrypto"><rect fill="#F1F1F1" height="75" rx="3.9063" ry="3.9063" style="stroke:#181818;stroke-width:0.7813;" width="141.1789" x="244.5313" y="404.6875"/><ellipse cx="267.9688" cy="429.6875" fill="#ADD1B2" rx="17.1875" ry="17.1875" style="stroke:#181818;stroke-width:1.5625;"/><path d="M272.29,423.2422 Q272.5342,422.9004 272.8271,422.7295 Q273.1201,422.5586 273.4619,422.5586 Q274.0479,422.5586 274.4141,422.9736 Q274.7803,423.3643 274.7803,424.3164 L274.7803,426.5869 Q274.7803,427.5391 274.4141,427.9541 Q274.0479,428.3691 273.4619,428.3691 Q272.9248,428.3691 272.6074,428.0518 Q272.29,427.7588 272.1191,426.9531 Q272.0459,426.3916 271.7529,426.0986 Q271.2402,425.5127 270.2881,425.1709 Q269.3359,424.8291 268.3594,424.8291 Q267.1631,424.8291 266.1621,425.3418 Q265.1855,425.8545 264.4043,427.0264 Q263.6475,428.1982 263.6475,429.8096 L263.6475,431.5186 Q263.6475,433.4473 265.0391,434.7412 Q266.4307,436.0107 268.9209,436.0107 Q270.3857,436.0107 271.4111,435.6201 Q272.0215,435.376 272.6807,434.6924 Q273.0957,434.2773 273.3154,434.1553 Q273.5596,434.0332 273.877,434.0332 Q274.3896,434.0332 274.7803,434.4482 Q275.1953,434.8389 275.1953,435.376 Q275.1953,435.9131 274.6582,436.5479 Q273.877,437.4512 272.6318,437.9639 Q270.9473,438.6719 268.9209,438.6719 Q266.5527,438.6719 264.6729,437.6953 Q263.1348,436.9141 262.0605,435.2539 Q260.9863,433.5693 260.9863,431.5674 L260.9863,429.7607 Q260.9863,427.6855 261.9385,425.9033 Q262.915,424.0967 264.624,423.1445 Q266.333,422.168 268.2617,422.168 Q269.4092,422.168 270.4102,422.4365 Q271.4355,422.6807 272.29,423.2422 Z " fill="#000000"/><text fill="#000000" font-family="Courier" font-size="15.625" lengthAdjust="spacing" textLength="91.1789" x="289.8438" y="436.0809">JasyptCrypto</text><line style="stroke:#181818;stroke-width:0.7813;" x1="246.0938" x2="384.1476" y1="454.6875" y2="454.6875"/><line style="stroke:#181818;stroke-width:0.7813;" x1="246.0938" x2="384.1476" y1="467.1875" y2="467.1875"/></g><!--SRC=[ZOx1QW9138RlynGvLhpeeGzW5mIBb58fFSVPK4Dt9qEIiQZuxaujbOMsi9SS_k_xVs8Vd38gzj1cXldzBDWjYHsQBToLjyLf5ILj-4ZmIrbAyYkP_ucUi2Tef2YJ3lYdOdxZrdUrDWik6LnWA-vIVs6bw2nfu7USo0-PGDHt4i9r7nPUiECZBakArKTbUJLgq0XE0M1QZEucuVoZFnIB-2owQaSM6cNKaUwQpSS-ifPtJl-vtHSSsY_Kovv6Jc_8h6gLtQ97j4FsHkkHx_m2]--></g></svg>