<svg xmlns="http://www.w3.org/2000/svg" xmlns:xlink="http://www.w3.org/1999/xlink" contentStyleType="text/css" data-diagram-type="CLASS" height="517.1875px" preserveAspectRatio="none" style="width:873px;height:517px;background:#FFFFFF;" version="1.1" viewBox="0 0 873 517" width="873.4375px" zoomAndPan="magnify"><defs/><g><!--class AtualizaVeiculoUseCase--><g class="entity" data-entity="AtualizaVeiculoUseCase" data-source-line="9" data-uid="ent0002" id="entity_AtualizaVeiculoUseCase"><rect fill="#F1F1F1" height="102.5146" rx="3.9063" ry="3.9063" style="stroke:#181818;stroke-width:0.7813;" width="221.0968" x="46.0938" y="10.9375"/><ellipse cx="69.5313" cy="35.9375" fill="#ADD1B2" rx="17.1875" ry="17.1875" style="stroke:#181818;stroke-width:1.5625;"/><path d="M73.8525,29.4922 Q74.0967,29.1504 74.3896,28.9795 Q74.6826,28.8086 75.0244,28.8086 Q75.6104,28.8086 75.9766,29.2236 Q76.3428,29.6143 76.3428,30.5664 L76.3428,32.8369 Q76.3428,33.7891 75.9766,34.2041 Q75.6104,34.6191 75.0244,34.6191 Q74.4873,34.6191 74.1699,34.3018 Q73.8525,34.0088 73.6816,33.2031 Q73.6084,32.6416 73.3154,32.3486 Q72.8027,31.7627 71.8506,31.4209 Q70.8984,31.0791 69.9219,31.0791 Q68.7256,31.0791 67.7246,31.5918 Q66.748,32.1045 65.9668,33.2764 Q65.21,34.4482 65.21,36.0596 L65.21,37.7686 Q65.21,39.6973 66.6016,40.9912 Q67.9932,42.2607 70.4834,42.2607 Q71.9482,42.2607 72.9736,41.8701 Q73.584,41.626 74.2432,40.9424 Q74.6582,40.5273 74.8779,40.4053 Q75.1221,40.2832 75.4395,40.2832 Q75.9521,40.2832 76.3428,40.6982 Q76.7578,41.0889 76.7578,41.626 Q76.7578,42.1631 76.2207,42.7979 Q75.4395,43.7012 74.1943,44.2139 Q72.5098,44.9219 70.4834,44.9219 Q68.1152,44.9219 66.2354,43.9453 Q64.6973,43.1641 63.623,41.5039 Q62.5488,39.8193 62.5488,37.8174 L62.5488,36.0107 Q62.5488,33.9355 63.501,32.1533 Q64.4775,30.3467 66.1865,29.3945 Q67.8955,28.418 69.8242,28.418 Q70.9717,28.418 71.9727,28.6865 Q72.998,28.9307 73.8525,29.4922 Z " fill="#000000"/><text fill="#000000" font-family="Courier" font-size="15.625" lengthAdjust="spacing" textLength="171.0968" x="91.4063" y="42.3309">AtualizaVeiculoUseCase</text><line style="stroke:#181818;stroke-width:0.7813;" x1="47.6563" x2="265.6281" y1="60.9375" y2="60.9375"/><line style="stroke:#181818;stroke-width:0.7813;" x1="47.6563" x2="265.6281" y1="73.4375" y2="73.4375"/><text fill="#000000" font-family="sans-serif" font-size="21.875" lengthAdjust="spacing" textLength="62.6129" x="55.4688" y="102.3956">+use()</text></g><!--class BuscarPorIdVeiculoUseCase--><g class="entity" data-entity="BuscarPorIdVeiculoUseCase" data-source-line="13" data-uid="ent0003" id="entity_BuscarPorIdVeiculoUseCase"><rect fill="#F1F1F1" height="102.5146" rx="3.9063" ry="3.9063" style="stroke:#181818;stroke-width:0.7813;" width="251.4847" x="323.4375" y="10.9375"/><ellipse cx="346.875" cy="35.9375" fill="#ADD1B2" rx="17.1875" ry="17.1875" style="stroke:#181818;stroke-width:1.5625;"/><path d="M351.1963,29.4922 Q351.4404,29.1504 351.7334,28.9795 Q352.0264,28.8086 352.3682,28.8086 Q352.9541,28.8086 353.3203,29.2236 Q353.6865,29.6143 353.6865,30.5664 L353.6865,32.8369 Q353.6865,33.7891 353.3203,34.2041 Q352.9541,34.6191 352.3682,34.6191 Q351.8311,34.6191 351.5137,34.3018 Q351.1963,34.0088 351.0254,33.2031 Q350.9521,32.6416 350.6592,32.3486 Q350.1465,31.7627 349.1943,31.4209 Q348.2422,31.0791 347.2656,31.0791 Q346.0693,31.0791 345.0684,31.5918 Q344.0918,32.1045 343.3105,33.2764 Q342.5537,34.4482 342.5537,36.0596 L342.5537,37.7686 Q342.5537,39.6973 343.9453,40.9912 Q345.3369,42.2607 347.8271,42.2607 Q349.292,42.2607 350.3174,41.8701 Q350.9277,41.626 351.5869,40.9424 Q352.002,40.5273 352.2217,40.4053 Q352.4658,40.2832 352.7832,40.2832 Q353.2959,40.2832 353.6865,40.6982 Q354.1016,41.0889 354.1016,41.626 Q354.1016,42.1631 353.5645,42.7979 Q352.7832,43.7012 351.5381,44.2139 Q349.8535,44.9219 347.8271,44.9219 Q345.459,44.9219 343.5791,43.9453 Q342.041,43.1641 340.9668,41.5039 Q339.8926,39.8193 339.8926,37.8174 L339.8926,36.0107 Q339.8926,33.9355 340.8447,32.1533 Q341.8213,30.3467 343.5303,29.3945 Q345.2393,28.418 347.168,28.418 Q348.3154,28.418 349.3164,28.6865 Q350.3418,28.9307 351.1963,29.4922 Z " fill="#000000"/><text fill="#000000" font-family="Courier" font-size="15.625" lengthAdjust="spacing" textLength="201.4847" x="368.75" y="42.3309">BuscarPorIdVeiculoUseCase</text><line style="stroke:#181818;stroke-width:0.7813;" x1="325" x2="573.3597" y1="60.9375" y2="60.9375"/><line style="stroke:#181818;stroke-width:0.7813;" x1="325" x2="573.3597" y1="73.4375" y2="73.4375"/><text fill="#000000" font-family="sans-serif" font-size="21.875" lengthAdjust="spacing" textLength="62.6129" x="332.8125" y="102.3956">+use()</text></g><!--class CriarVeiculoUseCase--><g class="entity" data-entity="CriarVeiculoUseCase" data-source-line="17" data-uid="ent0004" id="entity_CriarVeiculoUseCase"><rect fill="#F1F1F1" height="102.5146" rx="3.9063" ry="3.9063" style="stroke:#181818;stroke-width:0.7813;" width="199.3607" x="630.4688" y="10.9375"/><ellipse cx="653.9063" cy="35.9375" fill="#ADD1B2" rx="17.1875" ry="17.1875" style="stroke:#181818;stroke-width:1.5625;"/><path d="M658.2275,29.4922 Q658.4717,29.1504 658.7646,28.9795 Q659.0576,28.8086 659.3994,28.8086 Q659.9854,28.8086 660.3516,29.2236 Q660.7178,29.6143 660.7178,30.5664 L660.7178,32.8369 Q660.7178,33.7891 660.3516,34.2041 Q659.9854,34.6191 659.3994,34.6191 Q658.8623,34.6191 658.5449,34.3018 Q658.2275,34.0088 658.0566,33.2031 Q657.9834,32.6416 657.6904,32.3486 Q657.1777,31.7627 656.2256,31.4209 Q655.2734,31.0791 654.2969,31.0791 Q653.1006,31.0791 652.0996,31.5918 Q651.123,32.1045 650.3418,33.2764 Q649.585,34.4482 649.585,36.0596 L649.585,37.7686 Q649.585,39.6973 650.9766,40.9912 Q652.3682,42.2607 654.8584,42.2607 Q656.3232,42.2607 657.3486,41.8701 Q657.959,41.626 658.6182,40.9424 Q659.0332,40.5273 659.2529,40.4053 Q659.4971,40.2832 659.8145,40.2832 Q660.3271,40.2832 660.7178,40.6982 Q661.1328,41.0889 661.1328,41.626 Q661.1328,42.1631 660.5957,42.7979 Q659.8145,43.7012 658.5693,44.2139 Q656.8848,44.9219 654.8584,44.9219 Q652.4902,44.9219 650.6104,43.9453 Q649.0723,43.1641 647.998,41.5039 Q646.9238,39.8193 646.9238,37.8174 L646.9238,36.0107 Q646.9238,33.9355 647.876,32.1533 Q648.8525,30.3467 650.5615,29.3945 Q652.2705,28.418 654.1992,28.418 Q655.3467,28.418 656.3477,28.6865 Q657.373,28.9307 658.2275,29.4922 Z " fill="#000000"/><text fill="#000000" font-family="Courier" font-size="15.625" lengthAdjust="spacing" textLength="149.3607" x="675.7813" y="42.3309">CriarVeiculoUseCase</text><line style="stroke:#181818;stroke-width:0.7813;" x1="632.0313" x2="828.2669" y1="60.9375" y2="60.9375"/><line style="stroke:#181818;stroke-width:0.7813;" x1="632.0313" x2="828.2669" y1="73.4375" y2="73.4375"/><text fill="#000000" font-family="sans-serif" font-size="21.875" lengthAdjust="spacing" textLength="62.6129" x="639.8438" y="102.3956">+use()</text></g><!--class ListaVeiculoUseCase--><g class="entity" data-entity="ListaVeiculoUseCase" data-source-line="21" data-uid="ent0005" id="entity_ListaVeiculoUseCase"><rect fill="#F1F1F1" height="102.5146" rx="3.9063" ry="3.9063" style="stroke:#181818;stroke-width:0.7813;" width="198.5138" x="57.8125" y="207.8125"/><ellipse cx="81.25" cy="232.8125" fill="#ADD1B2" rx="17.1875" ry="17.1875" style="stroke:#181818;stroke-width:1.5625;"/><path d="M85.5713,226.3672 Q85.8154,226.0254 86.1084,225.8545 Q86.4014,225.6836 86.7432,225.6836 Q87.3291,225.6836 87.6953,226.0986 Q88.0615,226.4893 88.0615,227.4414 L88.0615,229.7119 Q88.0615,230.6641 87.6953,231.0791 Q87.3291,231.4941 86.7432,231.4941 Q86.2061,231.4941 85.8887,231.1768 Q85.5713,230.8838 85.4004,230.0781 Q85.3271,229.5166 85.0342,229.2236 Q84.5215,228.6377 83.5693,228.2959 Q82.6172,227.9541 81.6406,227.9541 Q80.4443,227.9541 79.4434,228.4668 Q78.4668,228.9795 77.6855,230.1514 Q76.9287,231.3232 76.9287,232.9346 L76.9287,234.6436 Q76.9287,236.5723 78.3203,237.8662 Q79.7119,239.1357 82.2021,239.1357 Q83.667,239.1357 84.6924,238.7451 Q85.3027,238.501 85.9619,237.8174 Q86.377,237.4023 86.5967,237.2803 Q86.8408,237.1582 87.1582,237.1582 Q87.6709,237.1582 88.0615,237.5732 Q88.4766,237.9639 88.4766,238.501 Q88.4766,239.0381 87.9395,239.6729 Q87.1582,240.5762 85.9131,241.0889 Q84.2285,241.7969 82.2021,241.7969 Q79.834,241.7969 77.9541,240.8203 Q76.416,240.0391 75.3418,238.3789 Q74.2676,236.6943 74.2676,234.6924 L74.2676,232.8857 Q74.2676,230.8105 75.2197,229.0283 Q76.1963,227.2217 77.9053,226.2695 Q79.6143,225.293 81.543,225.293 Q82.6904,225.293 83.6914,225.5615 Q84.7168,225.8057 85.5713,226.3672 Z " fill="#000000"/><text fill="#000000" font-family="Courier" font-size="15.625" lengthAdjust="spacing" textLength="148.5138" x="103.125" y="239.2059">ListaVeiculoUseCase</text><line style="stroke:#181818;stroke-width:0.7813;" x1="59.375" x2="254.7638" y1="257.8125" y2="257.8125"/><line style="stroke:#181818;stroke-width:0.7813;" x1="59.375" x2="254.7638" y1="270.3125" y2="270.3125"/><text fill="#000000" font-family="sans-serif" font-size="21.875" lengthAdjust="spacing" textLength="62.6129" x="67.1875" y="299.2706">+use()</text></g><!--class RemoverVeiculoUsecase--><g class="entity" data-entity="RemoverVeiculoUsecase" data-source-line="25" data-uid="ent0006" id="entity_RemoverVeiculoUsecase"><rect fill="#F1F1F1" height="102.5146" rx="3.9063" ry="3.9063" style="stroke:#181818;stroke-width:0.7813;" width="225.4227" x="311.7188" y="207.8125"/><ellipse cx="335.1563" cy="232.8125" fill="#ADD1B2" rx="17.1875" ry="17.1875" style="stroke:#181818;stroke-width:1.5625;"/><path d="M339.4775,226.3672 Q339.7217,226.0254 340.0146,225.8545 Q340.3076,225.6836 340.6494,225.6836 Q341.2354,225.6836 341.6016,226.0986 Q341.9678,226.4893 341.9678,227.4414 L341.9678,229.7119 Q341.9678,230.6641 341.6016,231.0791 Q341.2354,231.4941 340.6494,231.4941 Q340.1123,231.4941 339.7949,231.1768 Q339.4775,230.8838 339.3066,230.0781 Q339.2334,229.5166 338.9404,229.2236 Q338.4277,228.6377 337.4756,228.2959 Q336.5234,227.9541 335.5469,227.9541 Q334.3506,227.9541 333.3496,228.4668 Q332.373,228.9795 331.5918,230.1514 Q330.835,231.3232 330.835,232.9346 L330.835,234.6436 Q330.835,236.5723 332.2266,237.8662 Q333.6182,239.1357 336.1084,239.1357 Q337.5732,239.1357 338.5986,238.7451 Q339.209,238.501 339.8682,237.8174 Q340.2832,237.4023 340.5029,237.2803 Q340.7471,237.1582 341.0645,237.1582 Q341.5771,237.1582 341.9678,237.5732 Q342.3828,237.9639 342.3828,238.501 Q342.3828,239.0381 341.8457,239.6729 Q341.0645,240.5762 339.8193,241.0889 Q338.1348,241.7969 336.1084,241.7969 Q333.7402,241.7969 331.8604,240.8203 Q330.3223,240.0391 329.248,238.3789 Q328.1738,236.6943 328.1738,234.6924 L328.1738,232.8857 Q328.1738,230.8105 329.126,229.0283 Q330.1025,227.2217 331.8115,226.2695 Q333.5205,225.293 335.4492,225.293 Q336.5967,225.293 337.5977,225.5615 Q338.623,225.8057 339.4775,226.3672 Z " fill="#000000"/><text fill="#000000" font-family="Courier" font-size="15.625" lengthAdjust="spacing" textLength="175.4227" x="357.0313" y="239.2059">RemoverVeiculoUsecase</text><line style="stroke:#181818;stroke-width:0.7813;" x1="313.2813" x2="535.5789" y1="257.8125" y2="257.8125"/><line style="stroke:#181818;stroke-width:0.7813;" x1="313.2813" x2="535.5789" y1="270.3125" y2="270.3125"/><text fill="#000000" font-family="sans-serif" font-size="21.875" lengthAdjust="spacing" textLength="62.6129" x="321.0938" y="299.2706">+use()</text></g><!--class AtualizarAdministradorUseCase--><g class="entity" data-entity="AtualizarAdministradorUseCase" data-source-line="29" data-uid="ent0007" id="entity_AtualizarAdministradorUseCase"><rect fill="#F1F1F1" height="102.5146" rx="3.9063" ry="3.9063" style="stroke:#181818;stroke-width:0.7813;" width="271.4432" x="591.4063" y="207.8125"/><ellipse cx="614.8438" cy="232.8125" fill="#ADD1B2" rx="17.1875" ry="17.1875" style="stroke:#181818;stroke-width:1.5625;"/><path d="M619.165,226.3672 Q619.4092,226.0254 619.7021,225.8545 Q619.9951,225.6836 620.3369,225.6836 Q620.9229,225.6836 621.2891,226.0986 Q621.6553,226.4893 621.6553,227.4414 L621.6553,229.7119 Q621.6553,230.6641 621.2891,231.0791 Q620.9229,231.4941 620.3369,231.4941 Q619.7998,231.4941 619.4824,231.1768 Q619.165,230.8838 618.9941,230.0781 Q618.9209,229.5166 618.6279,229.2236 Q618.1152,228.6377 617.1631,228.2959 Q616.2109,227.9541 615.2344,227.9541 Q614.0381,227.9541 613.0371,228.4668 Q612.0605,228.9795 611.2793,230.1514 Q610.5225,231.3232 610.5225,232.9346 L610.5225,234.6436 Q610.5225,236.5723 611.9141,237.8662 Q613.3057,239.1357 615.7959,239.1357 Q617.2607,239.1357 618.2861,238.7451 Q618.8965,238.501 619.5557,237.8174 Q619.9707,237.4023 620.1904,237.2803 Q620.4346,237.1582 620.752,237.1582 Q621.2646,237.1582 621.6553,237.5732 Q622.0703,237.9639 622.0703,238.501 Q622.0703,239.0381 621.5332,239.6729 Q620.752,240.5762 619.5068,241.0889 Q617.8223,241.7969 615.7959,241.7969 Q613.4277,241.7969 611.5479,240.8203 Q610.0098,240.0391 608.9355,238.3789 Q607.8613,236.6943 607.8613,234.6924 L607.8613,232.8857 Q607.8613,230.8105 608.8135,229.0283 Q609.79,227.2217 611.499,226.2695 Q613.208,225.293 615.1367,225.293 Q616.2842,225.293 617.2852,225.5615 Q618.3105,225.8057 619.165,226.3672 Z " fill="#000000"/><text fill="#000000" font-family="Courier" font-size="15.625" lengthAdjust="spacing" textLength="221.4432" x="636.7188" y="239.2059">AtualizarAdministradorUseCase</text><line style="stroke:#181818;stroke-width:0.7813;" x1="592.9688" x2="861.2869" y1="257.8125" y2="257.8125"/><line style="stroke:#181818;stroke-width:0.7813;" x1="592.9688" x2="861.2869" y1="270.3125" y2="270.3125"/><text fill="#000000" font-family="sans-serif" font-size="21.875" lengthAdjust="spacing" textLength="62.6129" x="600.7813" y="299.2706">+use()</text></g><!--class BuscaPorIdAdministradorUseCase--><g class="entity" data-entity="BuscaPorIdAdministradorUseCase" data-source-line="33" data-uid="ent0008" id="entity_BuscaPorIdAdministradorUseCase"><rect fill="#F1F1F1" height="102.5146" rx="3.9063" ry="3.9063" style="stroke:#181818;stroke-width:0.7813;" width="291.4246" x="10.9375" y="404.6875"/><ellipse cx="34.375" cy="429.6875" fill="#ADD1B2" rx="17.1875" ry="17.1875" style="stroke:#181818;stroke-width:1.5625;"/><path d="M38.6963,423.2422 Q38.9404,422.9004 39.2334,422.7295 Q39.5264,422.5586 39.8682,422.5586 Q40.4541,422.5586 40.8203,422.9736 Q41.1865,423.3643 41.1865,424.3164 L41.1865,426.5869 Q41.1865,427.5391 40.8203,427.9541 Q40.4541,428.3691 39.8682,428.3691 Q39.3311,428.3691 39.0137,428.0518 Q38.6963,427.7588 38.5254,426.9531 Q38.4521,426.3916 38.1592,426.0986 Q37.6465,425.5127 36.6943,425.1709 Q35.7422,424.8291 34.7656,424.8291 Q33.5693,424.8291 32.5684,425.3418 Q31.5918,425.8545 30.8105,427.0264 Q30.0537,428.1982 30.0537,429.8096 L30.0537,431.5186 Q30.0537,433.4473 31.4453,434.7412 Q32.8369,436.0107 35.3271,436.0107 Q36.792,436.0107 37.8174,435.6201 Q38.4277,435.376 39.0869,434.6924 Q39.502,434.2773 39.7217,434.1553 Q39.9658,434.0332 40.2832,434.0332 Q40.7959,434.0332 41.1865,434.4482 Q41.6016,434.8389 41.6016,435.376 Q41.6016,435.9131 41.0645,436.5479 Q40.2832,437.4512 39.0381,437.9639 Q37.3535,438.6719 35.3271,438.6719 Q32.959,438.6719 31.0791,437.6953 Q29.541,436.9141 28.4668,435.2539 Q27.3926,433.5693 27.3926,431.5674 L27.3926,429.7607 Q27.3926,427.6855 28.3447,425.9033 Q29.3213,424.0967 31.0303,423.1445 Q32.7393,422.168 34.668,422.168 Q35.8154,422.168 36.8164,422.4365 Q37.8418,422.6807 38.6963,423.2422 Z " fill="#000000"/><text fill="#000000" font-family="Courier" font-size="15.625" lengthAdjust="spacing" textLength="241.4246" x="56.25" y="436.0809">BuscaPorIdAdministradorUseCase</text><line style="stroke:#181818;stroke-width:0.7813;" x1="12.5" x2="300.7996" y1="454.6875" y2="454.6875"/><line style="stroke:#181818;stroke-width:0.7813;" x1="12.5" x2="300.7996" y1="467.1875" y2="467.1875"/><text fill="#000000" font-family="sans-serif" font-size="21.875" lengthAdjust="spacing" textLength="62.6129" x="20.3125" y="496.1456">+use()</text></g><!--class CriarAdministradorUseCase--><g class="entity" data-entity="CriarAdministradorUseCase" data-source-line="37" data-uid="ent0009" id="entity_CriarAdministradorUseCase"><rect fill="#F1F1F1" height="102.5146" rx="3.9063" ry="3.9063" style="stroke:#181818;stroke-width:0.7813;" width="244.5038" x="358.5938" y="404.6875"/><ellipse cx="382.0313" cy="429.6875" fill="#ADD1B2" rx="17.1875" ry="17.1875" style="stroke:#181818;stroke-width:1.5625;"/><path d="M386.3525,423.2422 Q386.5967,422.9004 386.8896,422.7295 Q387.1826,422.5586 387.5244,422.5586 Q388.1104,422.5586 388.4766,422.9736 Q388.8428,423.3643 388.8428,424.3164 L388.8428,426.5869 Q388.8428,427.5391 388.4766,427.9541 Q388.1104,428.3691 387.5244,428.3691 Q386.9873,428.3691 386.6699,428.0518 Q386.3525,427.7588 386.1816,426.9531 Q386.1084,426.3916 385.8154,426.0986 Q385.3027,425.5127 384.3506,425.1709 Q383.3984,424.8291 382.4219,424.8291 Q381.2256,424.8291 380.2246,425.3418 Q379.248,425.8545 378.4668,427.0264 Q377.71,428.1982 377.71,429.8096 L377.71,431.5186 Q377.71,433.4473 379.1016,434.7412 Q380.4932,436.0107 382.9834,436.0107 Q384.4482,436.0107 385.4736,435.6201 Q386.084,435.376 386.7432,434.6924 Q387.1582,434.2773 387.3779,434.1553 Q387.6221,434.0332 387.9395,434.0332 Q388.4521,434.0332 388.8428,434.4482 Q389.2578,434.8389 389.2578,435.376 Q389.2578,435.9131 388.7207,436.5479 Q387.9395,437.4512 386.6943,437.9639 Q385.0098,438.6719 382.9834,438.6719 Q380.6152,438.6719 378.7354,437.6953 Q377.1973,436.9141 376.123,435.2539 Q375.0488,433.5693 375.0488,431.5674 L375.0488,429.7607 Q375.0488,427.6855 376.001,425.9033 Q376.9775,424.0967 378.6865,423.1445 Q380.3955,422.168 382.3242,422.168 Q383.4717,422.168 384.4727,422.4365 Q385.498,422.6807 386.3525,423.2422 Z " fill="#000000"/><text fill="#000000" font-family="Courier" font-size="15.625" lengthAdjust="spacing" textLength="194.5038" x="403.9063" y="436.0809">CriarAdministradorUseCase</text><line style="stroke:#181818;stroke-width:0.7813;" x1="360.1563" x2="601.535" y1="454.6875" y2="454.6875"/><line style="stroke:#181818;stroke-width:0.7813;" x1="360.1563" x2="601.535" y1="467.1875" y2="467.1875"/><text fill="#000000" font-family="sans-serif" font-size="21.875" lengthAdjust="spacing" textLength="62.6129" x="367.9688" y="496.1456">+use()</text></g><!--SRC=[ZO_1IWD138RlynGvAhsq1nzWNH0A8gAevtGcqE3kP4WoYXNVlSj2PK5Bvvh_ovzyziwveE88gJ1iRjR1VYTnGBFENNbNdRPHyZCV2FuWTv9zJZR_HWyu4lHIbKaN-QTYUUFa-sbj7LmAkC1Et6NwXPMYi-G5Ft0c_oe4ehwN4EP-wBpYm0Ty9Ovra1UZ7etWEm2igj7LTVWveRVL8kgZw3OrqBqoQWDtp-Ojrvzeb0zQDCPpv4b9kpHodkeLa-X5irciUMNMQw2F]--></g></svg>