<svg xmlns="http://www.w3.org/2000/svg" xmlns:xlink="http://www.w3.org/1999/xlink" contentStyleType="text/css" data-diagram-type="CLASS" height="517.1875px" preserveAspectRatio="none" style="width:989px;height:517px;background:#FFFFFF;" version="1.1" viewBox="0 0 989 517" width="989.0625px" zoomAndPan="magnify"><defs/><g><!--class BuscarDespesaPorIdUseCase--><g class="entity" data-entity="BuscarDespesaPorIdUseCase" data-source-line="9" data-uid="ent0002" id="entity_BuscarDespesaPorIdUseCase"><rect fill="#F1F1F1" height="102.5146" rx="3.9063" ry="3.9063" style="stroke:#181818;stroke-width:0.7813;" width="261.9064" x="13.2813" y="10.9375"/><ellipse cx="36.7188" cy="35.9375" fill="#ADD1B2" rx="17.1875" ry="17.1875" style="stroke:#181818;stroke-width:1.5625;"/><path d="M41.04,29.4922 Q41.2842,29.1504 41.5771,28.9795 Q41.8701,28.8086 42.2119,28.8086 Q42.7979,28.8086 43.1641,29.2236 Q43.5303,29.6143 43.5303,30.5664 L43.5303,32.8369 Q43.5303,33.7891 43.1641,34.2041 Q42.7979,34.6191 42.2119,34.6191 Q41.6748,34.6191 41.3574,34.3018 Q41.04,34.0088 40.8691,33.2031 Q40.7959,32.6416 40.5029,32.3486 Q39.9902,31.7627 39.0381,31.4209 Q38.0859,31.0791 37.1094,31.0791 Q35.9131,31.0791 34.9121,31.5918 Q33.9355,32.1045 33.1543,33.2764 Q32.3975,34.4482 32.3975,36.0596 L32.3975,37.7686 Q32.3975,39.6973 33.7891,40.9912 Q35.1807,42.2607 37.6709,42.2607 Q39.1357,42.2607 40.1611,41.8701 Q40.7715,41.626 41.4307,40.9424 Q41.8457,40.5273 42.0654,40.4053 Q42.3096,40.2832 42.627,40.2832 Q43.1396,40.2832 43.5303,40.6982 Q43.9453,41.0889 43.9453,41.626 Q43.9453,42.1631 43.4082,42.7979 Q42.627,43.7012 41.3818,44.2139 Q39.6973,44.9219 37.6709,44.9219 Q35.3027,44.9219 33.4229,43.9453 Q31.8848,43.1641 30.8105,41.5039 Q29.7363,39.8193 29.7363,37.8174 L29.7363,36.0107 Q29.7363,33.9355 30.6885,32.1533 Q31.665,30.3467 33.374,29.3945 Q35.083,28.418 37.0117,28.418 Q38.1592,28.418 39.1602,28.6865 Q40.1855,28.9307 41.04,29.4922 Z " fill="#000000"/><text fill="#000000" font-family="Courier" font-size="15.625" lengthAdjust="spacing" textLength="211.9064" x="58.5938" y="42.3309">BuscarDespesaPorIdUseCase</text><line style="stroke:#181818;stroke-width:0.7813;" x1="14.8438" x2="273.6252" y1="60.9375" y2="60.9375"/><line style="stroke:#181818;stroke-width:0.7813;" x1="14.8438" x2="273.6252" y1="73.4375" y2="73.4375"/><text fill="#000000" font-family="sans-serif" font-size="21.875" lengthAdjust="spacing" textLength="62.6129" x="22.6563" y="102.3956">+use()</text></g><!--class CriarDespesaUseCase--><g class="entity" data-entity="CriarDespesaUseCase" data-source-line="13" data-uid="ent0003" id="entity_CriarDespesaUseCase"><rect fill="#F1F1F1" height="102.5146" rx="3.9063" ry="3.9063" style="stroke:#181818;stroke-width:0.7813;" width="209.7824" x="330.4688" y="10.9375"/><ellipse cx="353.9063" cy="35.9375" fill="#ADD1B2" rx="17.1875" ry="17.1875" style="stroke:#181818;stroke-width:1.5625;"/><path d="M358.2275,29.4922 Q358.4717,29.1504 358.7646,28.9795 Q359.0576,28.8086 359.3994,28.8086 Q359.9854,28.8086 360.3516,29.2236 Q360.7178,29.6143 360.7178,30.5664 L360.7178,32.8369 Q360.7178,33.7891 360.3516,34.2041 Q359.9854,34.6191 359.3994,34.6191 Q358.8623,34.6191 358.5449,34.3018 Q358.2275,34.0088 358.0566,33.2031 Q357.9834,32.6416 357.6904,32.3486 Q357.1777,31.7627 356.2256,31.4209 Q355.2734,31.0791 354.2969,31.0791 Q353.1006,31.0791 352.0996,31.5918 Q351.123,32.1045 350.3418,33.2764 Q349.585,34.4482 349.585,36.0596 L349.585,37.7686 Q349.585,39.6973 350.9766,40.9912 Q352.3682,42.2607 354.8584,42.2607 Q356.3232,42.2607 357.3486,41.8701 Q357.959,41.626 358.6182,40.9424 Q359.0332,40.5273 359.2529,40.4053 Q359.4971,40.2832 359.8145,40.2832 Q360.3271,40.2832 360.7178,40.6982 Q361.1328,41.0889 361.1328,41.626 Q361.1328,42.1631 360.5957,42.7979 Q359.8145,43.7012 358.5693,44.2139 Q356.8848,44.9219 354.8584,44.9219 Q352.4902,44.9219 350.6104,43.9453 Q349.0723,43.1641 347.998,41.5039 Q346.9238,39.8193 346.9238,37.8174 L346.9238,36.0107 Q346.9238,33.9355 347.876,32.1533 Q348.8525,30.3467 350.5615,29.3945 Q352.2705,28.418 354.1992,28.418 Q355.3467,28.418 356.3477,28.6865 Q357.373,28.9307 358.2275,29.4922 Z " fill="#000000"/><text fill="#000000" font-family="Courier" font-size="15.625" lengthAdjust="spacing" textLength="159.7824" x="375.7813" y="42.3309">CriarDespesaUseCase</text><line style="stroke:#181818;stroke-width:0.7813;" x1="332.0313" x2="538.6887" y1="60.9375" y2="60.9375"/><line style="stroke:#181818;stroke-width:0.7813;" x1="332.0313" x2="538.6887" y1="73.4375" y2="73.4375"/><text fill="#000000" font-family="sans-serif" font-size="21.875" lengthAdjust="spacing" textLength="62.6129" x="339.8438" y="102.3956">+use()</text></g><!--class ListarDespesaUseCase--><g class="entity" data-entity="ListarDespesaUseCase" data-source-line="17" data-uid="ent0004" id="entity_ListarDespesaUseCase"><rect fill="#F1F1F1" height="102.5146" rx="3.9063" ry="3.9063" style="stroke:#181818;stroke-width:0.7813;" width="214.1388" x="595.3125" y="10.9375"/><ellipse cx="618.75" cy="35.9375" fill="#ADD1B2" rx="17.1875" ry="17.1875" style="stroke:#181818;stroke-width:1.5625;"/><path d="M623.0713,29.4922 Q623.3154,29.1504 623.6084,28.9795 Q623.9014,28.8086 624.2432,28.8086 Q624.8291,28.8086 625.1953,29.2236 Q625.5615,29.6143 625.5615,30.5664 L625.5615,32.8369 Q625.5615,33.7891 625.1953,34.2041 Q624.8291,34.6191 624.2432,34.6191 Q623.7061,34.6191 623.3887,34.3018 Q623.0713,34.0088 622.9004,33.2031 Q622.8271,32.6416 622.5342,32.3486 Q622.0215,31.7627 621.0693,31.4209 Q620.1172,31.0791 619.1406,31.0791 Q617.9443,31.0791 616.9434,31.5918 Q615.9668,32.1045 615.1855,33.2764 Q614.4287,34.4482 614.4287,36.0596 L614.4287,37.7686 Q614.4287,39.6973 615.8203,40.9912 Q617.2119,42.2607 619.7021,42.2607 Q621.167,42.2607 622.1924,41.8701 Q622.8027,41.626 623.4619,40.9424 Q623.877,40.5273 624.0967,40.4053 Q624.3408,40.2832 624.6582,40.2832 Q625.1709,40.2832 625.5615,40.6982 Q625.9766,41.0889 625.9766,41.626 Q625.9766,42.1631 625.4395,42.7979 Q624.6582,43.7012 623.4131,44.2139 Q621.7285,44.9219 619.7021,44.9219 Q617.334,44.9219 615.4541,43.9453 Q613.916,43.1641 612.8418,41.5039 Q611.7676,39.8193 611.7676,37.8174 L611.7676,36.0107 Q611.7676,33.9355 612.7197,32.1533 Q613.6963,30.3467 615.4053,29.3945 Q617.1143,28.418 619.043,28.418 Q620.1904,28.418 621.1914,28.6865 Q622.2168,28.9307 623.0713,29.4922 Z " fill="#000000"/><text fill="#000000" font-family="Courier" font-size="15.625" lengthAdjust="spacing" textLength="164.1388" x="640.625" y="42.3309">ListarDespesaUseCase</text><line style="stroke:#181818;stroke-width:0.7813;" x1="596.875" x2="807.8888" y1="60.9375" y2="60.9375"/><line style="stroke:#181818;stroke-width:0.7813;" x1="596.875" x2="807.8888" y1="73.4375" y2="73.4375"/><text fill="#000000" font-family="sans-serif" font-size="21.875" lengthAdjust="spacing" textLength="62.6129" x="604.6875" y="102.3956">+use()</text></g><!--class RemoverDespesaUseCase--><g class="entity" data-entity="RemoverDespesaUseCase" data-source-line="21" data-uid="ent0005" id="entity_RemoverDespesaUseCase"><rect fill="#F1F1F1" height="102.5146" rx="3.9063" ry="3.9063" style="stroke:#181818;stroke-width:0.7813;" width="239.3158" x="25" y="207.8125"/><ellipse cx="48.4375" cy="232.8125" fill="#ADD1B2" rx="17.1875" ry="17.1875" style="stroke:#181818;stroke-width:1.5625;"/><path d="M52.7588,226.3672 Q53.0029,226.0254 53.2959,225.8545 Q53.5889,225.6836 53.9307,225.6836 Q54.5166,225.6836 54.8828,226.0986 Q55.249,226.4893 55.249,227.4414 L55.249,229.7119 Q55.249,230.6641 54.8828,231.0791 Q54.5166,231.4941 53.9307,231.4941 Q53.3936,231.4941 53.0762,231.1768 Q52.7588,230.8838 52.5879,230.0781 Q52.5146,229.5166 52.2217,229.2236 Q51.709,228.6377 50.7568,228.2959 Q49.8047,227.9541 48.8281,227.9541 Q47.6318,227.9541 46.6309,228.4668 Q45.6543,228.9795 44.873,230.1514 Q44.1162,231.3232 44.1162,232.9346 L44.1162,234.6436 Q44.1162,236.5723 45.5078,237.8662 Q46.8994,239.1357 49.3896,239.1357 Q50.8545,239.1357 51.8799,238.7451 Q52.4902,238.501 53.1494,237.8174 Q53.5645,237.4023 53.7842,237.2803 Q54.0283,237.1582 54.3457,237.1582 Q54.8584,237.1582 55.249,237.5732 Q55.6641,237.9639 55.6641,238.501 Q55.6641,239.0381 55.127,239.6729 Q54.3457,240.5762 53.1006,241.0889 Q51.416,241.7969 49.3896,241.7969 Q47.0215,241.7969 45.1416,240.8203 Q43.6035,240.0391 42.5293,238.3789 Q41.4551,236.6943 41.4551,234.6924 L41.4551,232.8857 Q41.4551,230.8105 42.4072,229.0283 Q43.3838,227.2217 45.0928,226.2695 Q46.8018,225.293 48.7305,225.293 Q49.8779,225.293 50.8789,225.5615 Q51.9043,225.8057 52.7588,226.3672 Z " fill="#000000"/><text fill="#000000" font-family="Courier" font-size="15.625" lengthAdjust="spacing" textLength="189.3158" x="70.3125" y="239.2059">RemoverDespesaUseCase</text><line style="stroke:#181818;stroke-width:0.7813;" x1="26.5625" x2="262.7533" y1="257.8125" y2="257.8125"/><line style="stroke:#181818;stroke-width:0.7813;" x1="26.5625" x2="262.7533" y1="270.3125" y2="270.3125"/><text fill="#000000" font-family="sans-serif" font-size="21.875" lengthAdjust="spacing" textLength="62.6129" x="34.375" y="299.2706">+use()</text></g><!--class AtualizaOrdemDeServicoUseCase--><g class="entity" data-entity="AtualizaOrdemDeServicoUseCase" data-source-line="25" data-uid="ent0006" id="entity_AtualizaOrdemDeServicoUseCase"><rect fill="#F1F1F1" height="102.5146" rx="3.9063" ry="3.9063" style="stroke:#181818;stroke-width:0.7813;" width="289.6774" x="318.75" y="207.8125"/><ellipse cx="342.1875" cy="232.8125" fill="#ADD1B2" rx="17.1875" ry="17.1875" style="stroke:#181818;stroke-width:1.5625;"/><path d="M346.5088,226.3672 Q346.7529,226.0254 347.0459,225.8545 Q347.3389,225.6836 347.6807,225.6836 Q348.2666,225.6836 348.6328,226.0986 Q348.999,226.4893 348.999,227.4414 L348.999,229.7119 Q348.999,230.6641 348.6328,231.0791 Q348.2666,231.4941 347.6807,231.4941 Q347.1436,231.4941 346.8262,231.1768 Q346.5088,230.8838 346.3379,230.0781 Q346.2646,229.5166 345.9717,229.2236 Q345.459,228.6377 344.5068,228.2959 Q343.5547,227.9541 342.5781,227.9541 Q341.3818,227.9541 340.3809,228.4668 Q339.4043,228.9795 338.623,230.1514 Q337.8662,231.3232 337.8662,232.9346 L337.8662,234.6436 Q337.8662,236.5723 339.2578,237.8662 Q340.6494,239.1357 343.1396,239.1357 Q344.6045,239.1357 345.6299,238.7451 Q346.2402,238.501 346.8994,237.8174 Q347.3145,237.4023 347.5342,237.2803 Q347.7783,237.1582 348.0957,237.1582 Q348.6084,237.1582 348.999,237.5732 Q349.4141,237.9639 349.4141,238.501 Q349.4141,239.0381 348.877,239.6729 Q348.0957,240.5762 346.8506,241.0889 Q345.166,241.7969 343.1396,241.7969 Q340.7715,241.7969 338.8916,240.8203 Q337.3535,240.0391 336.2793,238.3789 Q335.2051,236.6943 335.2051,234.6924 L335.2051,232.8857 Q335.2051,230.8105 336.1572,229.0283 Q337.1338,227.2217 338.8428,226.2695 Q340.5518,225.293 342.4805,225.293 Q343.6279,225.293 344.6289,225.5615 Q345.6543,225.8057 346.5088,226.3672 Z " fill="#000000"/><text fill="#000000" font-family="Courier" font-size="15.625" lengthAdjust="spacing" textLength="239.6774" x="364.0625" y="239.2059">AtualizaOrdemDeServicoUseCase</text><line style="stroke:#181818;stroke-width:0.7813;" x1="320.3125" x2="606.8649" y1="257.8125" y2="257.8125"/><line style="stroke:#181818;stroke-width:0.7813;" x1="320.3125" x2="606.8649" y1="270.3125" y2="270.3125"/><text fill="#000000" font-family="sans-serif" font-size="21.875" lengthAdjust="spacing" textLength="62.6129" x="328.125" y="299.2706">+use()</text></g><!--class BuscaPorIdOrdemDeServicoUseCase--><g class="entity" data-entity="BuscaPorIdOrdemDeServicoUseCase" data-source-line="29" data-uid="ent0007" id="entity_BuscaPorIdOrdemDeServicoUseCase"><rect fill="#F1F1F1" height="102.5146" rx="3.9063" ry="3.9063" style="stroke:#181818;stroke-width:0.7813;" width="314.8621" x="663.2813" y="207.8125"/><ellipse cx="686.7188" cy="232.8125" fill="#ADD1B2" rx="17.1875" ry="17.1875" style="stroke:#181818;stroke-width:1.5625;"/><path d="M691.04,226.3672 Q691.2842,226.0254 691.5771,225.8545 Q691.8701,225.6836 692.2119,225.6836 Q692.7979,225.6836 693.1641,226.0986 Q693.5303,226.4893 693.5303,227.4414 L693.5303,229.7119 Q693.5303,230.6641 693.1641,231.0791 Q692.7979,231.4941 692.2119,231.4941 Q691.6748,231.4941 691.3574,231.1768 Q691.04,230.8838 690.8691,230.0781 Q690.7959,229.5166 690.5029,229.2236 Q689.9902,228.6377 689.0381,228.2959 Q688.0859,227.9541 687.1094,227.9541 Q685.9131,227.9541 684.9121,228.4668 Q683.9355,228.9795 683.1543,230.1514 Q682.3975,231.3232 682.3975,232.9346 L682.3975,234.6436 Q682.3975,236.5723 683.7891,237.8662 Q685.1807,239.1357 687.6709,239.1357 Q689.1357,239.1357 690.1611,238.7451 Q690.7715,238.501 691.4307,237.8174 Q691.8457,237.4023 692.0654,237.2803 Q692.3096,237.1582 692.627,237.1582 Q693.1396,237.1582 693.5303,237.5732 Q693.9453,237.9639 693.9453,238.501 Q693.9453,239.0381 693.4082,239.6729 Q692.627,240.5762 691.3818,241.0889 Q689.6973,241.7969 687.6709,241.7969 Q685.3027,241.7969 683.4229,240.8203 Q681.8848,240.0391 680.8105,238.3789 Q679.7363,236.6943 679.7363,234.6924 L679.7363,232.8857 Q679.7363,230.8105 680.6885,229.0283 Q681.665,227.2217 683.374,226.2695 Q685.083,225.293 687.0117,225.293 Q688.1592,225.293 689.1602,225.5615 Q690.1855,225.8057 691.04,226.3672 Z " fill="#000000"/><text fill="#000000" font-family="Courier" font-size="15.625" lengthAdjust="spacing" textLength="264.8621" x="708.5938" y="239.2059">BuscaPorIdOrdemDeServicoUseCase</text><line style="stroke:#181818;stroke-width:0.7813;" x1="664.8438" x2="976.5808" y1="257.8125" y2="257.8125"/><line style="stroke:#181818;stroke-width:0.7813;" x1="664.8438" x2="976.5808" y1="270.3125" y2="270.3125"/><text fill="#000000" font-family="sans-serif" font-size="21.875" lengthAdjust="spacing" textLength="62.6129" x="672.6563" y="299.2706">+use()</text></g><!--class CriarOrdemDeServicoUseCase--><g class="entity" data-entity="CriarOrdemDeServicoUseCase" data-source-line="33" data-uid="ent0008" id="entity_CriarOrdemDeServicoUseCase"><rect fill="#F1F1F1" height="102.5146" rx="3.9063" ry="3.9063" style="stroke:#181818;stroke-width:0.7813;" width="267.9413" x="10.9375" y="404.6875"/><ellipse cx="34.375" cy="429.6875" fill="#ADD1B2" rx="17.1875" ry="17.1875" style="stroke:#181818;stroke-width:1.5625;"/><path d="M38.6963,423.2422 Q38.9404,422.9004 39.2334,422.7295 Q39.5264,422.5586 39.8682,422.5586 Q40.4541,422.5586 40.8203,422.9736 Q41.1865,423.3643 41.1865,424.3164 L41.1865,426.5869 Q41.1865,427.5391 40.8203,427.9541 Q40.4541,428.3691 39.8682,428.3691 Q39.3311,428.3691 39.0137,428.0518 Q38.6963,427.7588 38.5254,426.9531 Q38.4521,426.3916 38.1592,426.0986 Q37.6465,425.5127 36.6943,425.1709 Q35.7422,424.8291 34.7656,424.8291 Q33.5693,424.8291 32.5684,425.3418 Q31.5918,425.8545 30.8105,427.0264 Q30.0537,428.1982 30.0537,429.8096 L30.0537,431.5186 Q30.0537,433.4473 31.4453,434.7412 Q32.8369,436.0107 35.3271,436.0107 Q36.792,436.0107 37.8174,435.6201 Q38.4277,435.376 39.0869,434.6924 Q39.502,434.2773 39.7217,434.1553 Q39.9658,434.0332 40.2832,434.0332 Q40.7959,434.0332 41.1865,434.4482 Q41.6016,434.8389 41.6016,435.376 Q41.6016,435.9131 41.0645,436.5479 Q40.2832,437.4512 39.0381,437.9639 Q37.3535,438.6719 35.3271,438.6719 Q32.959,438.6719 31.0791,437.6953 Q29.541,436.9141 28.4668,435.2539 Q27.3926,433.5693 27.3926,431.5674 L27.3926,429.7607 Q27.3926,427.6855 28.3447,425.9033 Q29.3213,424.0967 31.0303,423.1445 Q32.7393,422.168 34.668,422.168 Q35.8154,422.168 36.8164,422.4365 Q37.8418,422.6807 38.6963,423.2422 Z " fill="#000000"/><text fill="#000000" font-family="Courier" font-size="15.625" lengthAdjust="spacing" textLength="217.9413" x="56.25" y="436.0809">CriarOrdemDeServicoUseCase</text><line style="stroke:#181818;stroke-width:0.7813;" x1="12.5" x2="277.3163" y1="454.6875" y2="454.6875"/><line style="stroke:#181818;stroke-width:0.7813;" x1="12.5" x2="277.3163" y1="467.1875" y2="467.1875"/><text fill="#000000" font-family="sans-serif" font-size="21.875" lengthAdjust="spacing" textLength="62.6129" x="20.3125" y="496.1456">+use()</text></g><!--class ListaOrdemDeServicoUseCase--><g class="entity" data-entity="ListaOrdemDeServicoUseCase" data-source-line="37" data-uid="ent0009" id="entity_ListaOrdemDeServicoUseCase"><rect fill="#F1F1F1" height="102.5146" rx="3.9063" ry="3.9063" style="stroke:#181818;stroke-width:0.7813;" width="267.0944" x="332.8125" y="404.6875"/><ellipse cx="356.25" cy="429.6875" fill="#ADD1B2" rx="17.1875" ry="17.1875" style="stroke:#181818;stroke-width:1.5625;"/><path d="M360.5713,423.2422 Q360.8154,422.9004 361.1084,422.7295 Q361.4014,422.5586 361.7432,422.5586 Q362.3291,422.5586 362.6953,422.9736 Q363.0615,423.3643 363.0615,424.3164 L363.0615,426.5869 Q363.0615,427.5391 362.6953,427.9541 Q362.3291,428.3691 361.7432,428.3691 Q361.2061,428.3691 360.8887,428.0518 Q360.5713,427.7588 360.4004,426.9531 Q360.3271,426.3916 360.0342,426.0986 Q359.5215,425.5127 358.5693,425.1709 Q357.6172,424.8291 356.6406,424.8291 Q355.4443,424.8291 354.4434,425.3418 Q353.4668,425.8545 352.6855,427.0264 Q351.9287,428.1982 351.9287,429.8096 L351.9287,431.5186 Q351.9287,433.4473 353.3203,434.7412 Q354.7119,436.0107 357.2021,436.0107 Q358.667,436.0107 359.6924,435.6201 Q360.3027,435.376 360.9619,434.6924 Q361.377,434.2773 361.5967,434.1553 Q361.8408,434.0332 362.1582,434.0332 Q362.6709,434.0332 363.0615,434.4482 Q363.4766,434.8389 363.4766,435.376 Q363.4766,435.9131 362.9395,436.5479 Q362.1582,437.4512 360.9131,437.9639 Q359.2285,438.6719 357.2021,438.6719 Q354.834,438.6719 352.9541,437.6953 Q351.416,436.9141 350.3418,435.2539 Q349.2676,433.5693 349.2676,431.5674 L349.2676,429.7607 Q349.2676,427.6855 350.2197,425.9033 Q351.1963,424.0967 352.9053,423.1445 Q354.6143,422.168 356.543,422.168 Q357.6904,422.168 358.6914,422.4365 Q359.7168,422.6807 360.5713,423.2422 Z " fill="#000000"/><text fill="#000000" font-family="Courier" font-size="15.625" lengthAdjust="spacing" textLength="217.0944" x="378.125" y="436.0809">ListaOrdemDeServicoUseCase</text><line style="stroke:#181818;stroke-width:0.7813;" x1="334.375" x2="598.3444" y1="454.6875" y2="454.6875"/><line style="stroke:#181818;stroke-width:0.7813;" x1="334.375" x2="598.3444" y1="467.1875" y2="467.1875"/><text fill="#000000" font-family="sans-serif" font-size="21.875" lengthAdjust="spacing" textLength="62.6129" x="342.1875" y="496.1456">+use()</text></g><!--SRC=[ZS_1Qa8n40NGVRvYbXKtkkW7s2U2KDgYbAx7l047tyk4cOcbblvx9Q08BP9jxhb3hXquPLGSeSyCyyTPiEjB7D1iuQwyAqxhA6dB9u8_P2N9QpB_Dth1aQ2JeanwatygvW_kVN-kpO9B1XVOYRkS_y9AqLdIZHyuaNzb0b7VImZrFZmLYwXBiao6RwBh_jseGoFu3W3JOlGm2JyNtIbVyJttpEPDS4EZ7Ab5BhpWm2TyrPx69Mr9ZnpbNgDEgvFQEtLWEwyxM_Wl]--></g></svg>