<svg xmlns="http://www.w3.org/2000/svg" xmlns:xlink="http://www.w3.org/1999/xlink" contentStyleType="text/css" data-diagram-type="CLASS" height="517.1875px" preserveAspectRatio="none" style="width:901px;height:517px;background:#FFFFFF;" version="1.1" viewBox="0 0 901 517" width="901.5625px" zoomAndPan="magnify"><defs/><g><!--class ListarAdministradorUseCase--><g class="entity" data-entity="ListarAdministradorUseCase" data-source-line="9" data-uid="ent0002" id="entity_ListarAdministradorUseCase"><rect fill="#F1F1F1" height="102.5146" rx="3.9063" ry="3.9063" style="stroke:#181818;stroke-width:0.7813;" width="248.8602" x="10.9375" y="10.9375"/><ellipse cx="34.375" cy="35.9375" fill="#ADD1B2" rx="17.1875" ry="17.1875" style="stroke:#181818;stroke-width:1.5625;"/><path d="M38.6963,29.4922 Q38.9404,29.1504 39.2334,28.9795 Q39.5264,28.8086 39.8682,28.8086 Q40.4541,28.8086 40.8203,29.2236 Q41.1865,29.6143 41.1865,30.5664 L41.1865,32.8369 Q41.1865,33.7891 40.8203,34.2041 Q40.4541,34.6191 39.8682,34.6191 Q39.3311,34.6191 39.0137,34.3018 Q38.6963,34.0088 38.5254,33.2031 Q38.4521,32.6416 38.1592,32.3486 Q37.6465,31.7627 36.6943,31.4209 Q35.7422,31.0791 34.7656,31.0791 Q33.5693,31.0791 32.5684,31.5918 Q31.5918,32.1045 30.8105,33.2764 Q30.0537,34.4482 30.0537,36.0596 L30.0537,37.7686 Q30.0537,39.6973 31.4453,40.9912 Q32.8369,42.2607 35.3271,42.2607 Q36.792,42.2607 37.8174,41.8701 Q38.4277,41.626 39.0869,40.9424 Q39.502,40.5273 39.7217,40.4053 Q39.9658,40.2832 40.2832,40.2832 Q40.7959,40.2832 41.1865,40.6982 Q41.6016,41.0889 41.6016,41.626 Q41.6016,42.1631 41.0645,42.7979 Q40.2832,43.7012 39.0381,44.2139 Q37.3535,44.9219 35.3271,44.9219 Q32.959,44.9219 31.0791,43.9453 Q29.541,43.1641 28.4668,41.5039 Q27.3926,39.8193 27.3926,37.8174 L27.3926,36.0107 Q27.3926,33.9355 28.3447,32.1533 Q29.3213,30.3467 31.0303,29.3945 Q32.7393,28.418 34.668,28.418 Q35.8154,28.418 36.8164,28.6865 Q37.8418,28.9307 38.6963,29.4922 Z " fill="#000000"/><text fill="#000000" font-family="Courier" font-size="15.625" lengthAdjust="spacing" textLength="198.8602" x="56.25" y="42.3309">ListarAdministradorUseCase</text><line style="stroke:#181818;stroke-width:0.7813;" x1="12.5" x2="258.2352" y1="60.9375" y2="60.9375"/><line style="stroke:#181818;stroke-width:0.7813;" x1="12.5" x2="258.2352" y1="73.4375" y2="73.4375"/><text fill="#000000" font-family="sans-serif" font-size="21.875" lengthAdjust="spacing" textLength="62.6129" x="20.3125" y="102.3956">+use()</text></g><!--class LoginAdministradorUseCase--><g class="entity" data-entity="LoginAdministradorUseCase" data-source-line="13" data-uid="ent0003" id="entity_LoginAdministradorUseCase"><rect fill="#F1F1F1" height="102.5146" rx="3.9063" ry="3.9063" style="stroke:#181818;stroke-width:0.7813;" width="248.8831" x="314.0625" y="10.9375"/><ellipse cx="337.5" cy="35.9375" fill="#ADD1B2" rx="17.1875" ry="17.1875" style="stroke:#181818;stroke-width:1.5625;"/><path d="M341.8213,29.4922 Q342.0654,29.1504 342.3584,28.9795 Q342.6514,28.8086 342.9932,28.8086 Q343.5791,28.8086 343.9453,29.2236 Q344.3115,29.6143 344.3115,30.5664 L344.3115,32.8369 Q344.3115,33.7891 343.9453,34.2041 Q343.5791,34.6191 342.9932,34.6191 Q342.4561,34.6191 342.1387,34.3018 Q341.8213,34.0088 341.6504,33.2031 Q341.5771,32.6416 341.2842,32.3486 Q340.7715,31.7627 339.8193,31.4209 Q338.8672,31.0791 337.8906,31.0791 Q336.6943,31.0791 335.6934,31.5918 Q334.7168,32.1045 333.9355,33.2764 Q333.1787,34.4482 333.1787,36.0596 L333.1787,37.7686 Q333.1787,39.6973 334.5703,40.9912 Q335.9619,42.2607 338.4521,42.2607 Q339.917,42.2607 340.9424,41.8701 Q341.5527,41.626 342.2119,40.9424 Q342.627,40.5273 342.8467,40.4053 Q343.0908,40.2832 343.4082,40.2832 Q343.9209,40.2832 344.3115,40.6982 Q344.7266,41.0889 344.7266,41.626 Q344.7266,42.1631 344.1895,42.7979 Q343.4082,43.7012 342.1631,44.2139 Q340.4785,44.9219 338.4521,44.9219 Q336.084,44.9219 334.2041,43.9453 Q332.666,43.1641 331.5918,41.5039 Q330.5176,39.8193 330.5176,37.8174 L330.5176,36.0107 Q330.5176,33.9355 331.4697,32.1533 Q332.4463,30.3467 334.1553,29.3945 Q335.8643,28.418 337.793,28.418 Q338.9404,28.418 339.9414,28.6865 Q340.9668,28.9307 341.8213,29.4922 Z " fill="#000000"/><text fill="#000000" font-family="Courier" font-size="15.625" lengthAdjust="spacing" textLength="198.8831" x="359.375" y="42.3309">LoginAdministradorUseCase</text><line style="stroke:#181818;stroke-width:0.7813;" x1="315.625" x2="561.3831" y1="60.9375" y2="60.9375"/><line style="stroke:#181818;stroke-width:0.7813;" x1="315.625" x2="561.3831" y1="73.4375" y2="73.4375"/><text fill="#000000" font-family="sans-serif" font-size="21.875" lengthAdjust="spacing" textLength="73.5611" x="323.4375" y="102.3956">+login()</text></g><!--class RemoverAdministradorUseCase--><g class="entity" data-entity="RemoverAdministradorUseCase" data-source-line="17" data-uid="ent0004" id="entity_RemoverAdministradorUseCase"><rect fill="#F1F1F1" height="102.5146" rx="3.9063" ry="3.9063" style="stroke:#181818;stroke-width:0.7813;" width="274.0372" x="617.1875" y="10.9375"/><ellipse cx="640.625" cy="35.9375" fill="#ADD1B2" rx="17.1875" ry="17.1875" style="stroke:#181818;stroke-width:1.5625;"/><path d="M644.9463,29.4922 Q645.1904,29.1504 645.4834,28.9795 Q645.7764,28.8086 646.1182,28.8086 Q646.7041,28.8086 647.0703,29.2236 Q647.4365,29.6143 647.4365,30.5664 L647.4365,32.8369 Q647.4365,33.7891 647.0703,34.2041 Q646.7041,34.6191 646.1182,34.6191 Q645.5811,34.6191 645.2637,34.3018 Q644.9463,34.0088 644.7754,33.2031 Q644.7021,32.6416 644.4092,32.3486 Q643.8965,31.7627 642.9443,31.4209 Q641.9922,31.0791 641.0156,31.0791 Q639.8193,31.0791 638.8184,31.5918 Q637.8418,32.1045 637.0605,33.2764 Q636.3037,34.4482 636.3037,36.0596 L636.3037,37.7686 Q636.3037,39.6973 637.6953,40.9912 Q639.0869,42.2607 641.5771,42.2607 Q643.042,42.2607 644.0674,41.8701 Q644.6777,41.626 645.3369,40.9424 Q645.752,40.5273 645.9717,40.4053 Q646.2158,40.2832 646.5332,40.2832 Q647.0459,40.2832 647.4365,40.6982 Q647.8516,41.0889 647.8516,41.626 Q647.8516,42.1631 647.3145,42.7979 Q646.5332,43.7012 645.2881,44.2139 Q643.6035,44.9219 641.5771,44.9219 Q639.209,44.9219 637.3291,43.9453 Q635.791,43.1641 634.7168,41.5039 Q633.6426,39.8193 633.6426,37.8174 L633.6426,36.0107 Q633.6426,33.9355 634.5947,32.1533 Q635.5713,30.3467 637.2803,29.3945 Q638.9893,28.418 640.918,28.418 Q642.0654,28.418 643.0664,28.6865 Q644.0918,28.9307 644.9463,29.4922 Z " fill="#000000"/><text fill="#000000" font-family="Courier" font-size="15.625" lengthAdjust="spacing" textLength="224.0372" x="662.5" y="42.3309">RemoverAdministradorUseCase</text><line style="stroke:#181818;stroke-width:0.7813;" x1="618.75" x2="889.6622" y1="60.9375" y2="60.9375"/><line style="stroke:#181818;stroke-width:0.7813;" x1="618.75" x2="889.6622" y1="73.4375" y2="73.4375"/><text fill="#000000" font-family="sans-serif" font-size="21.875" lengthAdjust="spacing" textLength="62.6129" x="626.5625" y="102.3956">+use()</text></g><!--class AtualizaClienteUseCase--><g class="entity" data-entity="AtualizaClienteUseCase" data-source-line="21" data-uid="ent0005" id="entity_AtualizaClienteUseCase"><rect fill="#F1F1F1" height="102.5146" rx="3.9063" ry="3.9063" style="stroke:#181818;stroke-width:0.7813;" width="218.4875" x="25.7813" y="207.8125"/><ellipse cx="49.2188" cy="232.8125" fill="#ADD1B2" rx="17.1875" ry="17.1875" style="stroke:#181818;stroke-width:1.5625;"/><path d="M53.54,226.3672 Q53.7842,226.0254 54.0771,225.8545 Q54.3701,225.6836 54.7119,225.6836 Q55.2979,225.6836 55.6641,226.0986 Q56.0303,226.4893 56.0303,227.4414 L56.0303,229.7119 Q56.0303,230.6641 55.6641,231.0791 Q55.2979,231.4941 54.7119,231.4941 Q54.1748,231.4941 53.8574,231.1768 Q53.54,230.8838 53.3691,230.0781 Q53.2959,229.5166 53.0029,229.2236 Q52.4902,228.6377 51.5381,228.2959 Q50.5859,227.9541 49.6094,227.9541 Q48.4131,227.9541 47.4121,228.4668 Q46.4355,228.9795 45.6543,230.1514 Q44.8975,231.3232 44.8975,232.9346 L44.8975,234.6436 Q44.8975,236.5723 46.2891,237.8662 Q47.6807,239.1357 50.1709,239.1357 Q51.6357,239.1357 52.6611,238.7451 Q53.2715,238.501 53.9307,237.8174 Q54.3457,237.4023 54.5654,237.2803 Q54.8096,237.1582 55.127,237.1582 Q55.6396,237.1582 56.0303,237.5732 Q56.4453,237.9639 56.4453,238.501 Q56.4453,239.0381 55.9082,239.6729 Q55.127,240.5762 53.8818,241.0889 Q52.1973,241.7969 50.1709,241.7969 Q47.8027,241.7969 45.9229,240.8203 Q44.3848,240.0391 43.3105,238.3789 Q42.2363,236.6943 42.2363,234.6924 L42.2363,232.8857 Q42.2363,230.8105 43.1885,229.0283 Q44.165,227.2217 45.874,226.2695 Q47.583,225.293 49.5117,225.293 Q50.6592,225.293 51.6602,225.5615 Q52.6855,225.8057 53.54,226.3672 Z " fill="#000000"/><text fill="#000000" font-family="Courier" font-size="15.625" lengthAdjust="spacing" textLength="168.4875" x="71.0938" y="239.2059">AtualizaClienteUseCase</text><line style="stroke:#181818;stroke-width:0.7813;" x1="27.3438" x2="242.7063" y1="257.8125" y2="257.8125"/><line style="stroke:#181818;stroke-width:0.7813;" x1="27.3438" x2="242.7063" y1="270.3125" y2="270.3125"/><text fill="#000000" font-family="sans-serif" font-size="21.875" lengthAdjust="spacing" textLength="62.6129" x="35.1563" y="299.2706">+use()</text></g><!--class BuscaPorIdClienteUseCase--><g class="entity" data-entity="BuscaPorIdClienteUseCase" data-source-line="25" data-uid="ent0006" id="entity_BuscaPorIdClienteUseCase"><rect fill="#F1F1F1" height="102.5146" rx="3.9063" ry="3.9063" style="stroke:#181818;stroke-width:0.7813;" width="243.6722" x="299.2188" y="207.8125"/><ellipse cx="322.6563" cy="232.8125" fill="#ADD1B2" rx="17.1875" ry="17.1875" style="stroke:#181818;stroke-width:1.5625;"/><path d="M326.9775,226.3672 Q327.2217,226.0254 327.5146,225.8545 Q327.8076,225.6836 328.1494,225.6836 Q328.7354,225.6836 329.1016,226.0986 Q329.4678,226.4893 329.4678,227.4414 L329.4678,229.7119 Q329.4678,230.6641 329.1016,231.0791 Q328.7354,231.4941 328.1494,231.4941 Q327.6123,231.4941 327.2949,231.1768 Q326.9775,230.8838 326.8066,230.0781 Q326.7334,229.5166 326.4404,229.2236 Q325.9277,228.6377 324.9756,228.2959 Q324.0234,227.9541 323.0469,227.9541 Q321.8506,227.9541 320.8496,228.4668 Q319.873,228.9795 319.0918,230.1514 Q318.335,231.3232 318.335,232.9346 L318.335,234.6436 Q318.335,236.5723 319.7266,237.8662 Q321.1182,239.1357 323.6084,239.1357 Q325.0732,239.1357 326.0986,238.7451 Q326.709,238.501 327.3682,237.8174 Q327.7832,237.4023 328.0029,237.2803 Q328.2471,237.1582 328.5645,237.1582 Q329.0771,237.1582 329.4678,237.5732 Q329.8828,237.9639 329.8828,238.501 Q329.8828,239.0381 329.3457,239.6729 Q328.5645,240.5762 327.3193,241.0889 Q325.6348,241.7969 323.6084,241.7969 Q321.2402,241.7969 319.3604,240.8203 Q317.8223,240.0391 316.748,238.3789 Q315.6738,236.6943 315.6738,234.6924 L315.6738,232.8857 Q315.6738,230.8105 316.626,229.0283 Q317.6025,227.2217 319.3115,226.2695 Q321.0205,225.293 322.9492,225.293 Q324.0967,225.293 325.0977,225.5615 Q326.123,225.8057 326.9775,226.3672 Z " fill="#000000"/><text fill="#000000" font-family="Courier" font-size="15.625" lengthAdjust="spacing" textLength="193.6722" x="344.5313" y="239.2059">BuscaPorIdClienteUseCase</text><line style="stroke:#181818;stroke-width:0.7813;" x1="300.7813" x2="541.3284" y1="257.8125" y2="257.8125"/><line style="stroke:#181818;stroke-width:0.7813;" x1="300.7813" x2="541.3284" y1="270.3125" y2="270.3125"/><text fill="#000000" font-family="sans-serif" font-size="21.875" lengthAdjust="spacing" textLength="62.6129" x="308.5938" y="299.2706">+use()</text></g><!--class CriarClienteUseCase--><g class="entity" data-entity="CriarClienteUseCase" data-source-line="29" data-uid="ent0007" id="entity_CriarClienteUseCase"><rect fill="#F1F1F1" height="102.5146" rx="3.9063" ry="3.9063" style="stroke:#181818;stroke-width:0.7813;" width="196.7514" x="597.6563" y="207.8125"/><ellipse cx="621.0938" cy="232.8125" fill="#ADD1B2" rx="17.1875" ry="17.1875" style="stroke:#181818;stroke-width:1.5625;"/><path d="M625.415,226.3672 Q625.6592,226.0254 625.9521,225.8545 Q626.2451,225.6836 626.5869,225.6836 Q627.1729,225.6836 627.5391,226.0986 Q627.9053,226.4893 627.9053,227.4414 L627.9053,229.7119 Q627.9053,230.6641 627.5391,231.0791 Q627.1729,231.4941 626.5869,231.4941 Q626.0498,231.4941 625.7324,231.1768 Q625.415,230.8838 625.2441,230.0781 Q625.1709,229.5166 624.8779,229.2236 Q624.3652,228.6377 623.4131,228.2959 Q622.4609,227.9541 621.4844,227.9541 Q620.2881,227.9541 619.2871,228.4668 Q618.3105,228.9795 617.5293,230.1514 Q616.7725,231.3232 616.7725,232.9346 L616.7725,234.6436 Q616.7725,236.5723 618.1641,237.8662 Q619.5557,239.1357 622.0459,239.1357 Q623.5107,239.1357 624.5361,238.7451 Q625.1465,238.501 625.8057,237.8174 Q626.2207,237.4023 626.4404,237.2803 Q626.6846,237.1582 627.002,237.1582 Q627.5146,237.1582 627.9053,237.5732 Q628.3203,237.9639 628.3203,238.501 Q628.3203,239.0381 627.7832,239.6729 Q627.002,240.5762 625.7568,241.0889 Q624.0723,241.7969 622.0459,241.7969 Q619.6777,241.7969 617.7979,240.8203 Q616.2598,240.0391 615.1855,238.3789 Q614.1113,236.6943 614.1113,234.6924 L614.1113,232.8857 Q614.1113,230.8105 615.0635,229.0283 Q616.04,227.2217 617.749,226.2695 Q619.458,225.293 621.3867,225.293 Q622.5342,225.293 623.5352,225.5615 Q624.5605,225.8057 625.415,226.3672 Z " fill="#000000"/><text fill="#000000" font-family="Courier" font-size="15.625" lengthAdjust="spacing" textLength="146.7514" x="642.9688" y="239.2059">CriarClienteUseCase</text><line style="stroke:#181818;stroke-width:0.7813;" x1="599.2188" x2="792.8452" y1="257.8125" y2="257.8125"/><line style="stroke:#181818;stroke-width:0.7813;" x1="599.2188" x2="792.8452" y1="270.3125" y2="270.3125"/><text fill="#000000" font-family="sans-serif" font-size="21.875" lengthAdjust="spacing" textLength="62.6129" x="607.0313" y="299.2706">+use()</text></g><!--class ListaClienteUseCase--><g class="entity" data-entity="ListaClienteUseCase" data-source-line="33" data-uid="ent0008" id="entity_ListaClienteUseCase"><rect fill="#F1F1F1" height="102.5146" rx="3.9063" ry="3.9063" style="stroke:#181818;stroke-width:0.7813;" width="195.9045" x="37.5" y="404.6875"/><ellipse cx="60.9375" cy="429.6875" fill="#ADD1B2" rx="17.1875" ry="17.1875" style="stroke:#181818;stroke-width:1.5625;"/><path d="M65.2588,423.2422 Q65.5029,422.9004 65.7959,422.7295 Q66.0889,422.5586 66.4307,422.5586 Q67.0166,422.5586 67.3828,422.9736 Q67.749,423.3643 67.749,424.3164 L67.749,426.5869 Q67.749,427.5391 67.3828,427.9541 Q67.0166,428.3691 66.4307,428.3691 Q65.8936,428.3691 65.5762,428.0518 Q65.2588,427.7588 65.0879,426.9531 Q65.0146,426.3916 64.7217,426.0986 Q64.209,425.5127 63.2568,425.1709 Q62.3047,424.8291 61.3281,424.8291 Q60.1318,424.8291 59.1309,425.3418 Q58.1543,425.8545 57.373,427.0264 Q56.6162,428.1982 56.6162,429.8096 L56.6162,431.5186 Q56.6162,433.4473 58.0078,434.7412 Q59.3994,436.0107 61.8896,436.0107 Q63.3545,436.0107 64.3799,435.6201 Q64.9902,435.376 65.6494,434.6924 Q66.0645,434.2773 66.2842,434.1553 Q66.5283,434.0332 66.8457,434.0332 Q67.3584,434.0332 67.749,434.4482 Q68.1641,434.8389 68.1641,435.376 Q68.1641,435.9131 67.627,436.5479 Q66.8457,437.4512 65.6006,437.9639 Q63.916,438.6719 61.8896,438.6719 Q59.5215,438.6719 57.6416,437.6953 Q56.1035,436.9141 55.0293,435.2539 Q53.9551,433.5693 53.9551,431.5674 L53.9551,429.7607 Q53.9551,427.6855 54.9072,425.9033 Q55.8838,424.0967 57.5928,423.1445 Q59.3018,422.168 61.2305,422.168 Q62.3779,422.168 63.3789,422.4365 Q64.4043,422.6807 65.2588,423.2422 Z " fill="#000000"/><text fill="#000000" font-family="Courier" font-size="15.625" lengthAdjust="spacing" textLength="145.9045" x="82.8125" y="436.0809">ListaClienteUseCase</text><line style="stroke:#181818;stroke-width:0.7813;" x1="39.0625" x2="231.842" y1="454.6875" y2="454.6875"/><line style="stroke:#181818;stroke-width:0.7813;" x1="39.0625" x2="231.842" y1="467.1875" y2="467.1875"/><text fill="#000000" font-family="sans-serif" font-size="21.875" lengthAdjust="spacing" textLength="62.6129" x="46.875" y="496.1456">+use()</text></g><!--class RemoveClienteUseCase--><g class="entity" data-entity="RemoveClienteUseCase" data-source-line="37" data-uid="ent0009" id="entity_RemoveClienteUseCase"><rect fill="#F1F1F1" height="102.5146" rx="3.9063" ry="3.9063" style="stroke:#181818;stroke-width:0.7813;" width="221.0815" x="287.5" y="404.6875"/><ellipse cx="310.9375" cy="429.6875" fill="#ADD1B2" rx="17.1875" ry="17.1875" style="stroke:#181818;stroke-width:1.5625;"/><path d="M315.2588,423.2422 Q315.5029,422.9004 315.7959,422.7295 Q316.0889,422.5586 316.4307,422.5586 Q317.0166,422.5586 317.3828,422.9736 Q317.749,423.3643 317.749,424.3164 L317.749,426.5869 Q317.749,427.5391 317.3828,427.9541 Q317.0166,428.3691 316.4307,428.3691 Q315.8936,428.3691 315.5762,428.0518 Q315.2588,427.7588 315.0879,426.9531 Q315.0146,426.3916 314.7217,426.0986 Q314.209,425.5127 313.2568,425.1709 Q312.3047,424.8291 311.3281,424.8291 Q310.1318,424.8291 309.1309,425.3418 Q308.1543,425.8545 307.373,427.0264 Q306.6162,428.1982 306.6162,429.8096 L306.6162,431.5186 Q306.6162,433.4473 308.0078,434.7412 Q309.3994,436.0107 311.8896,436.0107 Q313.3545,436.0107 314.3799,435.6201 Q314.9902,435.376 315.6494,434.6924 Q316.0645,434.2773 316.2842,434.1553 Q316.5283,434.0332 316.8457,434.0332 Q317.3584,434.0332 317.749,434.4482 Q318.1641,434.8389 318.1641,435.376 Q318.1641,435.9131 317.627,436.5479 Q316.8457,437.4512 315.6006,437.9639 Q313.916,438.6719 311.8896,438.6719 Q309.5215,438.6719 307.6416,437.6953 Q306.1035,436.9141 305.0293,435.2539 Q303.9551,433.5693 303.9551,431.5674 L303.9551,429.7607 Q303.9551,427.6855 304.9072,425.9033 Q305.8838,424.0967 307.5928,423.1445 Q309.3018,422.168 311.2305,422.168 Q312.3779,422.168 313.3789,422.4365 Q314.4043,422.6807 315.2588,423.2422 Z " fill="#000000"/><text fill="#000000" font-family="Courier" font-size="15.625" lengthAdjust="spacing" textLength="171.0815" x="332.8125" y="436.0809">RemoveClienteUseCase</text><line style="stroke:#181818;stroke-width:0.7813;" x1="289.0625" x2="507.019" y1="454.6875" y2="454.6875"/><line style="stroke:#181818;stroke-width:0.7813;" x1="289.0625" x2="507.019" y1="467.1875" y2="467.1875"/><text fill="#000000" font-family="sans-serif" font-size="21.875" lengthAdjust="spacing" textLength="62.6129" x="296.875" y="496.1456">+use()</text></g><!--SRC=[ZT31IWD130RW-pn5ZegNzj07M1U4WeXOYkTq9zZWx6H8CXKhVVUkAvG5jUmjvFyc96Fld0igzX0BmtAr27RfT0dD6dVbNNLQTv8tV2JuHHua-vWi_uoUi2TefIgJJl8FnVBAqVV3iqLmAU02Et6NOHTMwfmbJtpYJFvP24HzBo6Cy-6HpL6Rs7CUAiKekZLgqGY-0i1TDRgv3QSBbpVE_-lq7K_z2_LoeFdp6w-O-8XjOifEr-XzjGwVHTTn1cwLKMUuyJjck9-xhi8p]--></g></svg>