<svg xmlns="http://www.w3.org/2000/svg" xmlns:xlink="http://www.w3.org/1999/xlink" contentStyleType="text/css" data-diagram-type="CLASS" height="818.75px" preserveAspectRatio="none" style="width:962px;height:818px;background:#FFFFFF;" version="1.1" viewBox="0 0 962 818" width="962.5px" zoomAndPan="magnify"><defs/><g><!--class RemoveOrdemDeServicoUseCase--><g class="entity" data-entity="RemoveOrdemDeServicoUseCase" data-source-line="9" data-uid="ent0002" id="entity_RemoveOrdemDeServicoUseCase"><rect fill="#F1F1F1" height="102.5146" rx="3.9063" ry="3.9063" style="stroke:#181818;stroke-width:0.7813;" width="292.2714" x="27.3438" y="10.9375"/><ellipse cx="50.7813" cy="35.9375" fill="#ADD1B2" rx="17.1875" ry="17.1875" style="stroke:#181818;stroke-width:1.5625;"/><path d="M55.1025,29.4922 Q55.3467,29.1504 55.6396,28.9795 Q55.9326,28.8086 56.2744,28.8086 Q56.8604,28.8086 57.2266,29.2236 Q57.5928,29.6143 57.5928,30.5664 L57.5928,32.8369 Q57.5928,33.7891 57.2266,34.2041 Q56.8604,34.6191 56.2744,34.6191 Q55.7373,34.6191 55.4199,34.3018 Q55.1025,34.0088 54.9316,33.2031 Q54.8584,32.6416 54.5654,32.3486 Q54.0527,31.7627 53.1006,31.4209 Q52.1484,31.0791 51.1719,31.0791 Q49.9756,31.0791 48.9746,31.5918 Q47.998,32.1045 47.2168,33.2764 Q46.46,34.4482 46.46,36.0596 L46.46,37.7686 Q46.46,39.6973 47.8516,40.9912 Q49.2432,42.2607 51.7334,42.2607 Q53.1982,42.2607 54.2236,41.8701 Q54.834,41.626 55.4932,40.9424 Q55.9082,40.5273 56.1279,40.4053 Q56.3721,40.2832 56.6895,40.2832 Q57.2021,40.2832 57.5928,40.6982 Q58.0078,41.0889 58.0078,41.626 Q58.0078,42.1631 57.4707,42.7979 Q56.6895,43.7012 55.4443,44.2139 Q53.7598,44.9219 51.7334,44.9219 Q49.3652,44.9219 47.4854,43.9453 Q45.9473,43.1641 44.873,41.5039 Q43.7988,39.8193 43.7988,37.8174 L43.7988,36.0107 Q43.7988,33.9355 44.751,32.1533 Q45.7275,30.3467 47.4365,29.3945 Q49.1455,28.418 51.0742,28.418 Q52.2217,28.418 53.2227,28.6865 Q54.248,28.9307 55.1025,29.4922 Z " fill="#000000"/><text fill="#000000" font-family="Courier" font-size="15.625" lengthAdjust="spacing" textLength="242.2714" x="72.6563" y="42.3309">RemoveOrdemDeServicoUseCase</text><line style="stroke:#181818;stroke-width:0.7813;" x1="28.9063" x2="318.0527" y1="60.9375" y2="60.9375"/><line style="stroke:#181818;stroke-width:0.7813;" x1="28.9063" x2="318.0527" y1="73.4375" y2="73.4375"/><text fill="#000000" font-family="sans-serif" font-size="21.875" lengthAdjust="spacing" textLength="62.6129" x="36.7188" y="102.3956">+use()</text></g><!--class RemoverPecaItemUseCase--><g class="entity" data-entity="RemoverPecaItemUseCase" data-source-line="13" data-uid="ent0003" id="entity_RemoverPecaItemUseCase"><rect fill="#F1F1F1" height="102.5146" rx="3.9063" ry="3.9063" style="stroke:#181818;stroke-width:0.7813;" width="243.6493" x="375" y="10.9375"/><ellipse cx="398.4375" cy="35.9375" fill="#ADD1B2" rx="17.1875" ry="17.1875" style="stroke:#181818;stroke-width:1.5625;"/><path d="M402.7588,29.4922 Q403.0029,29.1504 403.2959,28.9795 Q403.5889,28.8086 403.9307,28.8086 Q404.5166,28.8086 404.8828,29.2236 Q405.249,29.6143 405.249,30.5664 L405.249,32.8369 Q405.249,33.7891 404.8828,34.2041 Q404.5166,34.6191 403.9307,34.6191 Q403.3936,34.6191 403.0762,34.3018 Q402.7588,34.0088 402.5879,33.2031 Q402.5146,32.6416 402.2217,32.3486 Q401.709,31.7627 400.7568,31.4209 Q399.8047,31.0791 398.8281,31.0791 Q397.6318,31.0791 396.6309,31.5918 Q395.6543,32.1045 394.873,33.2764 Q394.1162,34.4482 394.1162,36.0596 L394.1162,37.7686 Q394.1162,39.6973 395.5078,40.9912 Q396.8994,42.2607 399.3896,42.2607 Q400.8545,42.2607 401.8799,41.8701 Q402.4902,41.626 403.1494,40.9424 Q403.5645,40.5273 403.7842,40.4053 Q404.0283,40.2832 404.3457,40.2832 Q404.8584,40.2832 405.249,40.6982 Q405.6641,41.0889 405.6641,41.626 Q405.6641,42.1631 405.127,42.7979 Q404.3457,43.7012 403.1006,44.2139 Q401.416,44.9219 399.3896,44.9219 Q397.0215,44.9219 395.1416,43.9453 Q393.6035,43.1641 392.5293,41.5039 Q391.4551,39.8193 391.4551,37.8174 L391.4551,36.0107 Q391.4551,33.9355 392.4072,32.1533 Q393.3838,30.3467 395.0928,29.3945 Q396.8018,28.418 398.7305,28.418 Q399.8779,28.418 400.8789,28.6865 Q401.9043,28.9307 402.7588,29.4922 Z " fill="#000000"/><text fill="#000000" font-family="Courier" font-size="15.625" lengthAdjust="spacing" textLength="193.6493" x="420.3125" y="42.3309">RemoverPecaItemUseCase</text><line style="stroke:#181818;stroke-width:0.7813;" x1="376.5625" x2="617.0868" y1="60.9375" y2="60.9375"/><line style="stroke:#181818;stroke-width:0.7813;" x1="376.5625" x2="617.0868" y1="73.4375" y2="73.4375"/><text fill="#000000" font-family="sans-serif" font-size="21.875" lengthAdjust="spacing" textLength="62.6129" x="384.375" y="102.3956">+use()</text></g><!--class VenderPecaUseCase--><g class="entity" data-entity="VenderPecaUseCase" data-source-line="17" data-uid="ent0004" id="entity_VenderPecaUseCase"><rect fill="#F1F1F1" height="102.5146" rx="3.9063" ry="3.9063" style="stroke:#181818;stroke-width:0.7813;" width="200.2609" x="673.4375" y="10.9375"/><ellipse cx="696.875" cy="35.9375" fill="#ADD1B2" rx="17.1875" ry="17.1875" style="stroke:#181818;stroke-width:1.5625;"/><path d="M701.1963,29.4922 Q701.4404,29.1504 701.7334,28.9795 Q702.0264,28.8086 702.3682,28.8086 Q702.9541,28.8086 703.3203,29.2236 Q703.6865,29.6143 703.6865,30.5664 L703.6865,32.8369 Q703.6865,33.7891 703.3203,34.2041 Q702.9541,34.6191 702.3682,34.6191 Q701.8311,34.6191 701.5137,34.3018 Q701.1963,34.0088 701.0254,33.2031 Q700.9521,32.6416 700.6592,32.3486 Q700.1465,31.7627 699.1943,31.4209 Q698.2422,31.0791 697.2656,31.0791 Q696.0693,31.0791 695.0684,31.5918 Q694.0918,32.1045 693.3105,33.2764 Q692.5537,34.4482 692.5537,36.0596 L692.5537,37.7686 Q692.5537,39.6973 693.9453,40.9912 Q695.3369,42.2607 697.8271,42.2607 Q699.292,42.2607 700.3174,41.8701 Q700.9277,41.626 701.5869,40.9424 Q702.002,40.5273 702.2217,40.4053 Q702.4658,40.2832 702.7832,40.2832 Q703.2959,40.2832 703.6865,40.6982 Q704.1016,41.0889 704.1016,41.626 Q704.1016,42.1631 703.5645,42.7979 Q702.7832,43.7012 701.5381,44.2139 Q699.8535,44.9219 697.8271,44.9219 Q695.459,44.9219 693.5791,43.9453 Q692.041,43.1641 690.9668,41.5039 Q689.8926,39.8193 689.8926,37.8174 L689.8926,36.0107 Q689.8926,33.9355 690.8447,32.1533 Q691.8213,30.3467 693.5303,29.3945 Q695.2393,28.418 697.168,28.418 Q698.3154,28.418 699.3164,28.6865 Q700.3418,28.9307 701.1963,29.4922 Z " fill="#000000"/><text fill="#000000" font-family="Courier" font-size="15.625" lengthAdjust="spacing" textLength="150.2609" x="718.75" y="42.3309">VenderPecaUseCase</text><line style="stroke:#181818;stroke-width:0.7813;" x1="675" x2="872.1359" y1="60.9375" y2="60.9375"/><line style="stroke:#181818;stroke-width:0.7813;" x1="675" x2="872.1359" y1="73.4375" y2="73.4375"/><text fill="#000000" font-family="sans-serif" font-size="21.875" lengthAdjust="spacing" textLength="62.6129" x="682.8125" y="102.3956">+use()</text></g><!--class GerarBalancoUseCase--><g class="entity" data-entity="GerarBalancoUseCase" data-source-line="21" data-uid="ent0005" id="entity_GerarBalancoUseCase"><rect fill="#F1F1F1" height="405.1758" rx="3.9063" ry="3.9063" style="stroke:#181818;stroke-width:0.7813;" width="325.7263" x="10.9375" y="207.8125"/><ellipse cx="86.8263" cy="232.8125" fill="#ADD1B2" rx="17.1875" ry="17.1875" style="stroke:#181818;stroke-width:1.5625;"/><path d="M91.1476,226.3672 Q91.3918,226.0254 91.6847,225.8545 Q91.9777,225.6836 92.3195,225.6836 Q92.9054,225.6836 93.2716,226.0986 Q93.6378,226.4893 93.6378,227.4414 L93.6378,229.7119 Q93.6378,230.6641 93.2716,231.0791 Q92.9054,231.4941 92.3195,231.4941 Q91.7824,231.4941 91.465,231.1768 Q91.1476,230.8838 90.9767,230.0781 Q90.9035,229.5166 90.6105,229.2236 Q90.0978,228.6377 89.1457,228.2959 Q88.1935,227.9541 87.2169,227.9541 Q86.0207,227.9541 85.0197,228.4668 Q84.0431,228.9795 83.2619,230.1514 Q82.505,231.3232 82.505,232.9346 L82.505,234.6436 Q82.505,236.5723 83.8966,237.8662 Q85.2882,239.1357 87.7785,239.1357 Q89.2433,239.1357 90.2687,238.7451 Q90.8791,238.501 91.5382,237.8174 Q91.9533,237.4023 92.173,237.2803 Q92.4171,237.1582 92.7345,237.1582 Q93.2472,237.1582 93.6378,237.5732 Q94.0529,237.9639 94.0529,238.501 Q94.0529,239.0381 93.5158,239.6729 Q92.7345,240.5762 91.4894,241.0889 Q89.8048,241.7969 87.7785,241.7969 Q85.4103,241.7969 83.5304,240.8203 Q81.9923,240.0391 80.9181,238.3789 Q79.8439,236.6943 79.8439,234.6924 L79.8439,232.8857 Q79.8439,230.8105 80.7961,229.0283 Q81.7726,227.2217 83.4816,226.2695 Q85.1906,225.293 87.1193,225.293 Q88.2668,225.293 89.2677,225.5615 Q90.2931,225.8057 91.1476,226.3672 Z " fill="#000000"/><text fill="#000000" font-family="Courier" font-size="15.625" lengthAdjust="spacing" textLength="160.6674" x="118.8576" y="239.2059">GerarBalancoUseCase</text><line style="stroke:#181818;stroke-width:0.7813;" x1="12.5" x2="335.1013" y1="257.8125" y2="257.8125"/><line style="stroke:#181818;stroke-width:0.7813;" x1="12.5" x2="335.1013" y1="270.3125" y2="270.3125"/><text fill="#000000" font-family="sans-serif" font-size="21.875" lengthAdjust="spacing" textLength="153.7979" x="20.3125" y="299.2706">+top3Servicos()</text><text fill="#000000" font-family="sans-serif" font-size="21.875" lengthAdjust="spacing" textLength="248.6252" x="20.3125" y="326.7853">+calcularTotalDespesas()</text><text fill="#000000" font-family="sans-serif" font-size="21.875" lengthAdjust="spacing" textLength="199.9832" x="20.3125" y="354.2999">+buscarOSCriadas()</text><text fill="#000000" font-family="sans-serif" font-size="21.875" lengthAdjust="spacing" textLength="235.2524" x="20.3125" y="381.8146">+buscarOSFinalizadas()</text><text fill="#000000" font-family="sans-serif" font-size="21.875" lengthAdjust="spacing" textLength="229.1748" x="20.3125" y="409.3292">+funcionarioMaisAtivo()</text><text fill="#000000" font-family="sans-serif" font-size="21.875" lengthAdjust="spacing" textLength="62.6129" x="20.3125" y="436.8439">+use()</text><text fill="#000000" font-family="sans-serif" font-size="21.875" lengthAdjust="spacing" textLength="212.149" x="20.3125" y="464.3585">+calcularTotalPecas()</text><text fill="#000000" font-family="sans-serif" font-size="21.875" lengthAdjust="spacing" textLength="130.7159" x="20.3125" y="491.8732">+top3Pecas()</text><text fill="#000000" font-family="sans-serif" font-size="21.875" lengthAdjust="spacing" textLength="293.6356" x="20.3125" y="519.3878">+buscarDespesasNoPeriodo()</text><text fill="#000000" font-family="sans-serif" font-size="21.875" lengthAdjust="spacing" textLength="184.1965" x="20.3125" y="546.9025">+contarPorStatus()</text><text fill="#000000" font-family="sans-serif" font-size="21.875" lengthAdjust="spacing" textLength="306.9763" x="20.3125" y="574.4171">+formatarGastosPorCategoria()</text><text fill="#000000" font-family="sans-serif" font-size="21.875" lengthAdjust="spacing" textLength="235.231" x="20.3125" y="601.9318">+calcularTotalServicos()</text></g><!--class GerarRelatorioUseCase--><g class="entity" data-entity="GerarRelatorioUseCase" data-source-line="36" data-uid="ent0006" id="entity_GerarRelatorioUseCase"><rect fill="#F1F1F1" height="102.5146" rx="3.9063" ry="3.9063" style="stroke:#181818;stroke-width:0.7813;" width="216.7328" x="391.4063" y="358.5938"/><ellipse cx="414.8438" cy="383.5938" fill="#ADD1B2" rx="17.1875" ry="17.1875" style="stroke:#181818;stroke-width:1.5625;"/><path d="M419.165,377.1484 Q419.4092,376.8066 419.7021,376.6357 Q419.9951,376.4648 420.3369,376.4648 Q420.9229,376.4648 421.2891,376.8799 Q421.6553,377.2705 421.6553,378.2227 L421.6553,380.4932 Q421.6553,381.4453 421.2891,381.8604 Q420.9229,382.2754 420.3369,382.2754 Q419.7998,382.2754 419.4824,381.958 Q419.165,381.665 418.9941,380.8594 Q418.9209,380.2979 418.6279,380.0049 Q418.1152,379.4189 417.1631,379.0771 Q416.2109,378.7354 415.2344,378.7354 Q414.0381,378.7354 413.0371,379.248 Q412.0605,379.7607 411.2793,380.9326 Q410.5225,382.1045 410.5225,383.7158 L410.5225,385.4248 Q410.5225,387.3535 411.9141,388.6475 Q413.3057,389.917 415.7959,389.917 Q417.2607,389.917 418.2861,389.5264 Q418.8965,389.2822 419.5557,388.5986 Q419.9707,388.1836 420.1904,388.0615 Q420.4346,387.9395 420.752,387.9395 Q421.2646,387.9395 421.6553,388.3545 Q422.0703,388.7451 422.0703,389.2822 Q422.0703,389.8193 421.5332,390.4541 Q420.752,391.3574 419.5068,391.8701 Q417.8223,392.5781 415.7959,392.5781 Q413.4277,392.5781 411.5479,391.6016 Q410.0098,390.8203 408.9355,389.1602 Q407.8613,387.4756 407.8613,385.4736 L407.8613,383.667 Q407.8613,381.5918 408.8135,379.8096 Q409.79,378.0029 411.499,377.0508 Q413.208,376.0742 415.1367,376.0742 Q416.2842,376.0742 417.2852,376.3428 Q418.3105,376.5869 419.165,377.1484 Z " fill="#000000"/><text fill="#000000" font-family="Courier" font-size="15.625" lengthAdjust="spacing" textLength="166.7328" x="436.7188" y="389.9872">GerarRelatorioUseCase</text><line style="stroke:#181818;stroke-width:0.7813;" x1="392.9688" x2="606.5765" y1="408.5938" y2="408.5938"/><line style="stroke:#181818;stroke-width:0.7813;" x1="392.9688" x2="606.5765" y1="421.0938" y2="421.0938"/><text fill="#000000" font-family="sans-serif" font-size="21.875" lengthAdjust="spacing" textLength="62.6129" x="400.7813" y="450.0519">+use()</text></g><!--class CriarManualEntradaPecaUseCase--><g class="entity" data-entity="CriarManualEntradaPecaUseCase" data-source-line="40" data-uid="ent0007" id="entity_CriarManualEntradaPecaUseCase"><rect fill="#F1F1F1" height="102.5146" rx="3.9063" ry="3.9063" style="stroke:#181818;stroke-width:0.7813;" width="289.7003" x="663.2813" y="358.5938"/><ellipse cx="686.7188" cy="383.5938" fill="#ADD1B2" rx="17.1875" ry="17.1875" style="stroke:#181818;stroke-width:1.5625;"/><path d="M691.04,377.1484 Q691.2842,376.8066 691.5771,376.6357 Q691.8701,376.4648 692.2119,376.4648 Q692.7979,376.4648 693.1641,376.8799 Q693.5303,377.2705 693.5303,378.2227 L693.5303,380.4932 Q693.5303,381.4453 693.1641,381.8604 Q692.7979,382.2754 692.2119,382.2754 Q691.6748,382.2754 691.3574,381.958 Q691.04,381.665 690.8691,380.8594 Q690.7959,380.2979 690.5029,380.0049 Q689.9902,379.4189 689.0381,379.0771 Q688.0859,378.7354 687.1094,378.7354 Q685.9131,378.7354 684.9121,379.248 Q683.9355,379.7607 683.1543,380.9326 Q682.3975,382.1045 682.3975,383.7158 L682.3975,385.4248 Q682.3975,387.3535 683.7891,388.6475 Q685.1807,389.917 687.6709,389.917 Q689.1357,389.917 690.1611,389.5264 Q690.7715,389.2822 691.4307,388.5986 Q691.8457,388.1836 692.0654,388.0615 Q692.3096,387.9395 692.627,387.9395 Q693.1396,387.9395 693.5303,388.3545 Q693.9453,388.7451 693.9453,389.2822 Q693.9453,389.8193 693.4082,390.4541 Q692.627,391.3574 691.3818,391.8701 Q689.6973,392.5781 687.6709,392.5781 Q685.3027,392.5781 683.4229,391.6016 Q681.8848,390.8203 680.8105,389.1602 Q679.7363,387.4756 679.7363,385.4736 L679.7363,383.667 Q679.7363,381.5918 680.6885,379.8096 Q681.665,378.0029 683.374,377.0508 Q685.083,376.0742 687.0117,376.0742 Q688.1592,376.0742 689.1602,376.3428 Q690.1855,376.5869 691.04,377.1484 Z " fill="#000000"/><text fill="#000000" font-family="Courier" font-size="15.625" lengthAdjust="spacing" textLength="239.7003" x="708.5938" y="389.9872">CriarManualEntradaPecaUseCase</text><line style="stroke:#181818;stroke-width:0.7813;" x1="664.8438" x2="951.4191" y1="408.5938" y2="408.5938"/><line style="stroke:#181818;stroke-width:0.7813;" x1="664.8438" x2="951.4191" y1="421.0938" y2="421.0938"/><text fill="#000000" font-family="sans-serif" font-size="21.875" lengthAdjust="spacing" textLength="62.6129" x="672.6563" y="450.0519">+use()</text></g><!--class AtualizaPecaUseCase--><g class="entity" data-entity="AtualizaPecaUseCase" data-source-line="44" data-uid="ent0008" id="entity_AtualizaPecaUseCase"><rect fill="#F1F1F1" height="102.5146" rx="3.9063" ry="3.9063" style="stroke:#181818;stroke-width:0.7813;" width="205.4642" x="71.0938" y="706.25"/><ellipse cx="94.5313" cy="731.25" fill="#ADD1B2" rx="17.1875" ry="17.1875" style="stroke:#181818;stroke-width:1.5625;"/><path d="M98.8525,724.8047 Q99.0967,724.4629 99.3896,724.292 Q99.6826,724.1211 100.0244,724.1211 Q100.6104,724.1211 100.9766,724.5361 Q101.3428,724.9268 101.3428,725.8789 L101.3428,728.1494 Q101.3428,729.1016 100.9766,729.5166 Q100.6104,729.9316 100.0244,729.9316 Q99.4873,729.9316 99.1699,729.6143 Q98.8525,729.3213 98.6816,728.5156 Q98.6084,727.9541 98.3154,727.6611 Q97.8027,727.0752 96.8506,726.7334 Q95.8984,726.3916 94.9219,726.3916 Q93.7256,726.3916 92.7246,726.9043 Q91.748,727.417 90.9668,728.5889 Q90.21,729.7607 90.21,731.3721 L90.21,733.0811 Q90.21,735.0098 91.6016,736.3037 Q92.9932,737.5732 95.4834,737.5732 Q96.9482,737.5732 97.9736,737.1826 Q98.584,736.9385 99.2432,736.2549 Q99.6582,735.8398 99.8779,735.7178 Q100.1221,735.5957 100.4395,735.5957 Q100.9521,735.5957 101.3428,736.0107 Q101.7578,736.4014 101.7578,736.9385 Q101.7578,737.4756 101.2207,738.1104 Q100.4395,739.0137 99.1943,739.5264 Q97.5098,740.2344 95.4834,740.2344 Q93.1152,740.2344 91.2354,739.2578 Q89.6973,738.4766 88.623,736.8164 Q87.5488,735.1318 87.5488,733.1299 L87.5488,731.3232 Q87.5488,729.248 88.501,727.4658 Q89.4775,725.6592 91.1865,724.707 Q92.8955,723.7305 94.8242,723.7305 Q95.9717,723.7305 96.9727,723.999 Q97.998,724.2432 98.8525,724.8047 Z " fill="#000000"/><text fill="#000000" font-family="Courier" font-size="15.625" lengthAdjust="spacing" textLength="155.4642" x="116.4063" y="737.6434">AtualizaPecaUseCase</text><line style="stroke:#181818;stroke-width:0.7813;" x1="72.6563" x2="274.9954" y1="756.25" y2="756.25"/><line style="stroke:#181818;stroke-width:0.7813;" x1="72.6563" x2="274.9954" y1="768.75" y2="768.75"/><text fill="#000000" font-family="sans-serif" font-size="21.875" lengthAdjust="spacing" textLength="62.6129" x="80.4688" y="797.7081">+use()</text></g><!--class BuscaPorIdPecaUseCase--><g class="entity" data-entity="BuscaPorIdPecaUseCase" data-source-line="48" data-uid="ent0009" id="entity_BuscaPorIdPecaUseCase"><rect fill="#F1F1F1" height="102.5146" rx="3.9063" ry="3.9063" style="stroke:#181818;stroke-width:0.7813;" width="230.6488" x="331.25" y="706.25"/><ellipse cx="354.6875" cy="731.25" fill="#ADD1B2" rx="17.1875" ry="17.1875" style="stroke:#181818;stroke-width:1.5625;"/><path d="M359.0088,724.8047 Q359.2529,724.4629 359.5459,724.292 Q359.8389,724.1211 360.1807,724.1211 Q360.7666,724.1211 361.1328,724.5361 Q361.499,724.9268 361.499,725.8789 L361.499,728.1494 Q361.499,729.1016 361.1328,729.5166 Q360.7666,729.9316 360.1807,729.9316 Q359.6436,729.9316 359.3262,729.6143 Q359.0088,729.3213 358.8379,728.5156 Q358.7646,727.9541 358.4717,727.6611 Q357.959,727.0752 357.0068,726.7334 Q356.0547,726.3916 355.0781,726.3916 Q353.8818,726.3916 352.8809,726.9043 Q351.9043,727.417 351.123,728.5889 Q350.3662,729.7607 350.3662,731.3721 L350.3662,733.0811 Q350.3662,735.0098 351.7578,736.3037 Q353.1494,737.5732 355.6396,737.5732 Q357.1045,737.5732 358.1299,737.1826 Q358.7402,736.9385 359.3994,736.2549 Q359.8145,735.8398 360.0342,735.7178 Q360.2783,735.5957 360.5957,735.5957 Q361.1084,735.5957 361.499,736.0107 Q361.9141,736.4014 361.9141,736.9385 Q361.9141,737.4756 361.377,738.1104 Q360.5957,739.0137 359.3506,739.5264 Q357.666,740.2344 355.6396,740.2344 Q353.2715,740.2344 351.3916,739.2578 Q349.8535,738.4766 348.7793,736.8164 Q347.7051,735.1318 347.7051,733.1299 L347.7051,731.3232 Q347.7051,729.248 348.6572,727.4658 Q349.6338,725.6592 351.3428,724.707 Q353.0518,723.7305 354.9805,723.7305 Q356.1279,723.7305 357.1289,723.999 Q358.1543,724.2432 359.0088,724.8047 Z " fill="#000000"/><text fill="#000000" font-family="Courier" font-size="15.625" lengthAdjust="spacing" textLength="180.6488" x="376.5625" y="737.6434">BuscaPorIdPecaUseCase</text><line style="stroke:#181818;stroke-width:0.7813;" x1="332.8125" x2="560.3363" y1="756.25" y2="756.25"/><line style="stroke:#181818;stroke-width:0.7813;" x1="332.8125" x2="560.3363" y1="768.75" y2="768.75"/><text fill="#000000" font-family="sans-serif" font-size="21.875" lengthAdjust="spacing" textLength="62.6129" x="340.625" y="797.7081">+use()</text></g><!--SRC=[XL7BKW913BplLynHomkKvGVm48e3Zs9zdCDib9IpawrC1aii_zrPM1GGuPXq9zsTX3Vo5GYKfgZ8jEzQMVZfM0SXT5I55b5nPDddj4RpXp9WhnkaVHAQG8ccnr48PGz_5wYUgT1b6cjbofLHDWjMvUI51AqI-ps-8u_wKQ5XqILdsMQ_cMF9AvnAWMKVSvGLMNuCs8E0vZCpvYO6lBhElWxvCaCB8yNo7FK9VR5bdcCDKK2wuC0V2QT4jusXa0PInuApqO4yi8BhOwWmG0CjOh0Wqxmd1CLnSq0U7Ar_WPVeRJeE2F4OABs8Lhn5jkQEjUeCpMZjQg_SIkoyJ7Y6QMVHB4iFLv0PIwwWSQVDKa9g3o4eXmJsGF6La-yJmdlv3mysHmUQXix-gZw6ZC57SFTU9UM_z8oEnisbBl6wTUpaVLJyp_m6]--></g></svg>