<svg xmlns="http://www.w3.org/2000/svg" xmlns:xlink="http://www.w3.org/1999/xlink" contentStyleType="text/css" data-diagram-type="CLASS" height="2139.0625px" preserveAspectRatio="none" style="width:826px;height:2139px;background:#FFFFFF;" version="1.1" viewBox="0 0 826 2139" width="826.5625px" zoomAndPan="magnify"><defs/><g><!--class PecaItem--><g class="entity" data-entity="PecaItem" data-source-line="9" data-uid="ent0002" id="entity_PecaItem"><rect fill="#F1F1F1" height="432.6904" rx="3.9063" ry="3.9063" style="stroke:#181818;stroke-width:0.7813;" width="244.2612" x="12.5" y="10.9375"/><ellipse cx="94.989" cy="35.9375" fill="#ADD1B2" rx="17.1875" ry="17.1875" style="stroke:#181818;stroke-width:1.5625;"/><path d="M99.3103,29.4922 Q99.5544,29.1504 99.8474,28.9795 Q100.1404,28.8086 100.4822,28.8086 Q101.0681,28.8086 101.4343,29.2236 Q101.8005,29.6143 101.8005,30.5664 L101.8005,32.8369 Q101.8005,33.7891 101.4343,34.2041 Q101.0681,34.6191 100.4822,34.6191 Q99.9451,34.6191 99.6277,34.3018 Q99.3103,34.0088 99.1394,33.2031 Q99.0662,32.6416 98.7732,32.3486 Q98.2605,31.7627 97.3083,31.4209 Q96.3562,31.0791 95.3796,31.0791 Q94.1833,31.0791 93.1824,31.5918 Q92.2058,32.1045 91.4246,33.2764 Q90.6677,34.4482 90.6677,36.0596 L90.6677,37.7686 Q90.6677,39.6973 92.0593,40.9912 Q93.4509,42.2607 95.9412,42.2607 Q97.406,42.2607 98.4314,41.8701 Q99.0417,41.626 99.7009,40.9424 Q100.116,40.5273 100.3357,40.4053 Q100.5798,40.2832 100.8972,40.2832 Q101.4099,40.2832 101.8005,40.6982 Q102.2156,41.0889 102.2156,41.626 Q102.2156,42.1631 101.6785,42.7979 Q100.8972,43.7012 99.6521,44.2139 Q97.9675,44.9219 95.9412,44.9219 Q93.573,44.9219 91.6931,43.9453 Q90.155,43.1641 89.0808,41.5039 Q88.0066,39.8193 88.0066,37.8174 L88.0066,36.0107 Q88.0066,33.9355 88.9587,32.1533 Q89.9353,30.3467 91.6443,29.3945 Q93.3533,28.418 95.282,28.418 Q96.4294,28.418 97.4304,28.6865 Q98.4558,28.9307 99.3103,29.4922 Z " fill="#000000"/><text fill="#000000" font-family="Courier" font-size="15.625" lengthAdjust="spacing" textLength="66.0019" x="127.0203" y="42.3309">PecaItem</text><line style="stroke:#181818;stroke-width:0.7813;" x1="14.0625" x2="255.1987" y1="60.9375" y2="60.9375"/><text fill="#000000" font-family="sans-serif" font-size="21.875" lengthAdjust="spacing" textLength="54.7195" x="21.875" y="89.8956">-peca</text><text fill="#000000" font-family="sans-serif" font-size="21.875" lengthAdjust="spacing" textLength="6.0776" x="76.5945" y="89.8956">&#160;</text><text fill="#000000" font-family="sans-serif" font-size="21.875" lengthAdjust="spacing" textLength="6.0776" x="82.6721" y="89.8956">:</text><text fill="#000000" font-family="sans-serif" font-size="21.875" lengthAdjust="spacing" textLength="6.0776" x="88.7497" y="89.8956">&#160;</text><text fill="#000000" font-family="sans-serif" font-size="21.875" lengthAdjust="spacing" textLength="53.4698" x="94.8273" y="89.8956">UUID</text><text fill="#000000" font-family="sans-serif" font-size="21.875" lengthAdjust="spacing" textLength="115.5487" x="21.875" y="117.4103">-quantidade</text><text fill="#000000" font-family="sans-serif" font-size="21.875" lengthAdjust="spacing" textLength="6.0776" x="137.4237" y="117.4103">&#160;</text><text fill="#000000" font-family="sans-serif" font-size="21.875" lengthAdjust="spacing" textLength="6.0776" x="143.5013" y="117.4103">:</text><text fill="#000000" font-family="sans-serif" font-size="21.875" lengthAdjust="spacing" textLength="23.1033" x="21.875" y="144.9249">int</text><text fill="#000000" font-family="sans-serif" font-size="21.875" lengthAdjust="spacing" textLength="130.0751" x="21.875" y="172.4396">-valorUnitario</text><text fill="#000000" font-family="sans-serif" font-size="21.875" lengthAdjust="spacing" textLength="6.0776" x="151.9501" y="172.4396">&#160;</text><text fill="#000000" font-family="sans-serif" font-size="21.875" lengthAdjust="spacing" textLength="6.0776" x="158.0276" y="172.4396">:</text><text fill="#000000" font-family="sans-serif" font-size="21.875" lengthAdjust="spacing" textLength="41.3467" x="21.875" y="199.9542">float</text><line style="stroke:#181818;stroke-width:0.7813;" x1="14.0625" x2="255.1987" y1="211.0107" y2="211.0107"/><text fill="#000000" font-family="sans-serif" font-size="21.875" lengthAdjust="spacing" textLength="182.9681" x="21.875" y="239.9689">+setValorUnitario()</text><text fill="#000000" font-family="sans-serif" font-size="21.875" lengthAdjust="spacing" textLength="102.7313" x="21.875" y="267.4835">+toString()</text><text fill="#000000" font-family="sans-serif" font-size="21.875" lengthAdjust="spacing" textLength="107.6126" x="21.875" y="294.9982">+getPeca()</text><text fill="#000000" font-family="sans-serif" font-size="21.875" lengthAdjust="spacing" textLength="225.5112" x="21.875" y="322.5128">+getOrdemDeServico()</text><text fill="#000000" font-family="sans-serif" font-size="21.875" lengthAdjust="spacing" textLength="169.6381" x="21.875" y="350.0275">+setQuantidade()</text><text fill="#000000" font-family="sans-serif" font-size="21.875" lengthAdjust="spacing" textLength="106.3843" x="21.875" y="377.5421">+setPeca()</text><text fill="#000000" font-family="sans-serif" font-size="21.875" lengthAdjust="spacing" textLength="184.1965" x="21.875" y="405.0568">+getValorUnitario()</text><text fill="#000000" font-family="sans-serif" font-size="21.875" lengthAdjust="spacing" textLength="170.8664" x="21.875" y="432.5714">+getQuantidade()</text></g><!--class ServicoItem--><g class="entity" data-entity="ServicoItem" data-source-line="23" data-uid="ent0003" id="entity_ServicoItem"><rect fill="#F1F1F1" height="322.6318" rx="3.9063" ry="3.9063" style="stroke:#181818;stroke-width:0.7813;" width="244.2612" x="310.9375" y="66.4063"/><ellipse cx="385.183" cy="91.4063" fill="#ADD1B2" rx="17.1875" ry="17.1875" style="stroke:#181818;stroke-width:1.5625;"/><path d="M389.5042,84.9609 Q389.7484,84.6191 390.0414,84.4482 Q390.3343,84.2773 390.6761,84.2773 Q391.2621,84.2773 391.6283,84.6924 Q391.9945,85.083 391.9945,86.0352 L391.9945,88.3057 Q391.9945,89.2578 391.6283,89.6729 Q391.2621,90.0879 390.6761,90.0879 Q390.139,90.0879 389.8216,89.7705 Q389.5042,89.4775 389.3333,88.6719 Q389.2601,88.1104 388.9671,87.8174 Q388.4544,87.2314 387.5023,86.8896 Q386.5501,86.5479 385.5736,86.5479 Q384.3773,86.5479 383.3763,87.0605 Q382.3997,87.5732 381.6185,88.7451 Q380.8617,89.917 380.8617,91.5283 L380.8617,93.2373 Q380.8617,95.166 382.2533,96.46 Q383.6449,97.7295 386.1351,97.7295 Q387.5999,97.7295 388.6253,97.3389 Q389.2357,97.0947 389.8949,96.4111 Q390.3099,95.9961 390.5296,95.874 Q390.7738,95.752 391.0912,95.752 Q391.6039,95.752 391.9945,96.167 Q392.4095,96.5576 392.4095,97.0947 Q392.4095,97.6318 391.8724,98.2666 Q391.0912,99.1699 389.846,99.6826 Q388.1615,100.3906 386.1351,100.3906 Q383.7669,100.3906 381.8871,99.4141 Q380.349,98.6328 379.2747,96.9727 Q378.2005,95.2881 378.2005,93.2861 L378.2005,91.4795 Q378.2005,89.4043 379.1527,87.6221 Q380.1292,85.8154 381.8382,84.8633 Q383.5472,83.8867 385.4759,83.8867 Q386.6234,83.8867 387.6244,84.1553 Q388.6497,84.3994 389.5042,84.9609 Z " fill="#000000"/><text fill="#000000" font-family="Courier" font-size="15.625" lengthAdjust="spacing" textLength="82.489" x="417.2142" y="97.7997">ServicoItem</text><line style="stroke:#181818;stroke-width:0.7813;" x1="312.5" x2="553.6362" y1="116.4063" y2="116.4063"/><text fill="#000000" font-family="sans-serif" font-size="21.875" lengthAdjust="spacing" textLength="76.5732" x="320.3125" y="145.3644">-servico</text><text fill="#000000" font-family="sans-serif" font-size="21.875" lengthAdjust="spacing" textLength="6.0776" x="396.8857" y="145.3644">&#160;</text><text fill="#000000" font-family="sans-serif" font-size="21.875" lengthAdjust="spacing" textLength="6.0776" x="402.9633" y="145.3644">:</text><text fill="#000000" font-family="sans-serif" font-size="21.875" lengthAdjust="spacing" textLength="6.0776" x="409.0408" y="145.3644">&#160;</text><text fill="#000000" font-family="sans-serif" font-size="21.875" lengthAdjust="spacing" textLength="53.4698" x="415.1184" y="145.3644">UUID</text><text fill="#000000" font-family="sans-serif" font-size="21.875" lengthAdjust="spacing" textLength="130.0751" x="320.3125" y="172.879">-valorUnitario</text><text fill="#000000" font-family="sans-serif" font-size="21.875" lengthAdjust="spacing" textLength="6.0776" x="450.3876" y="172.879">&#160;</text><text fill="#000000" font-family="sans-serif" font-size="21.875" lengthAdjust="spacing" textLength="6.0776" x="456.4651" y="172.879">:</text><text fill="#000000" font-family="sans-serif" font-size="21.875" lengthAdjust="spacing" textLength="41.3467" x="320.3125" y="200.3937">float</text><line style="stroke:#181818;stroke-width:0.7813;" x1="312.5" x2="553.6362" y1="211.4502" y2="211.4502"/><text fill="#000000" font-family="sans-serif" font-size="21.875" lengthAdjust="spacing" textLength="182.9681" x="320.3125" y="240.4083">+setValorUnitario()</text><text fill="#000000" font-family="sans-serif" font-size="21.875" lengthAdjust="spacing" textLength="130.6946" x="320.3125" y="267.923">+getServico()</text><text fill="#000000" font-family="sans-serif" font-size="21.875" lengthAdjust="spacing" textLength="225.5112" x="320.3125" y="295.4376">+getOrdemDeServico()</text><text fill="#000000" font-family="sans-serif" font-size="21.875" lengthAdjust="spacing" textLength="184.1965" x="320.3125" y="322.9523">+getValorUnitario()</text><text fill="#000000" font-family="sans-serif" font-size="21.875" lengthAdjust="spacing" textLength="129.4662" x="320.3125" y="350.4669">+setServico()</text><text fill="#000000" font-family="sans-serif" font-size="21.875" lengthAdjust="spacing" textLength="102.7313" x="320.3125" y="377.9816">+toString()</text></g><!--class Elevador--><g class="entity" data-entity="Elevador" data-source-line="34" data-uid="ent0004" id="entity_Elevador"><rect fill="#F1F1F1" height="212.5732" rx="3.9063" ry="3.9063" style="stroke:#181818;stroke-width:0.7813;" width="147.6395" x="609.375" y="121.0938"/><ellipse cx="648.9995" cy="146.0938" fill="#ADD1B2" rx="17.1875" ry="17.1875" style="stroke:#181818;stroke-width:1.5625;"/><path d="M653.3208,139.6484 Q653.5649,139.3066 653.8579,139.1357 Q654.1508,138.9648 654.4926,138.9648 Q655.0786,138.9648 655.4448,139.3799 Q655.811,139.7705 655.811,140.7227 L655.811,142.9932 Q655.811,143.9453 655.4448,144.3604 Q655.0786,144.7754 654.4926,144.7754 Q653.9555,144.7754 653.6382,144.458 Q653.3208,144.165 653.1499,143.3594 Q653.0766,142.7979 652.7837,142.5049 Q652.271,141.9189 651.3188,141.5771 Q650.3667,141.2354 649.3901,141.2354 Q648.1938,141.2354 647.1928,141.748 Q646.2163,142.2607 645.435,143.4326 Q644.6782,144.6045 644.6782,146.2158 L644.6782,147.9248 Q644.6782,149.8535 646.0698,151.1475 Q647.4614,152.417 649.9516,152.417 Q651.4165,152.417 652.4419,152.0264 Q653.0522,151.7822 653.7114,151.0986 Q654.1264,150.6836 654.3462,150.5615 Q654.5903,150.4395 654.9077,150.4395 Q655.4204,150.4395 655.811,150.8545 Q656.226,151.2451 656.226,151.7822 Q656.226,152.3193 655.6889,152.9541 Q654.9077,153.8574 653.6626,154.3701 Q651.978,155.0781 649.9516,155.0781 Q647.5835,155.0781 645.7036,154.1016 Q644.1655,153.3203 643.0913,151.6602 Q642.0171,149.9756 642.0171,147.9736 L642.0171,146.167 Q642.0171,144.0918 642.9692,142.3096 Q643.9458,140.5029 645.6548,139.5508 Q647.3637,138.5742 649.2924,138.5742 Q650.4399,138.5742 651.4409,138.8428 Q652.4663,139.0869 653.3208,139.6484 Z " fill="#000000"/><text fill="#000000" font-family="Courier" font-size="15.625" lengthAdjust="spacing" textLength="61.6684" x="674.4716" y="152.4872">Elevador</text><line style="stroke:#181818;stroke-width:0.7813;" x1="610.9375" x2="755.452" y1="171.0938" y2="171.0938"/><text fill="#000000" font-family="sans-serif" font-size="21.875" lengthAdjust="spacing" textLength="42.5537" x="618.75" y="200.0519">-tipo</text><text fill="#000000" font-family="sans-serif" font-size="21.875" lengthAdjust="spacing" textLength="6.0776" x="661.3037" y="200.0519">&#160;</text><text fill="#000000" font-family="sans-serif" font-size="21.875" lengthAdjust="spacing" textLength="6.0776" x="667.3813" y="200.0519">:</text><text fill="#000000" font-family="sans-serif" font-size="21.875" lengthAdjust="spacing" textLength="128.8895" x="618.75" y="227.5665">TipoElevador</text><line style="stroke:#181818;stroke-width:0.7813;" x1="610.9375" x2="755.452" y1="238.623" y2="238.623"/><text fill="#000000" font-family="sans-serif" font-size="21.875" lengthAdjust="spacing" textLength="100.3067" x="618.75" y="267.5812">+getTipo()</text><text fill="#000000" font-family="sans-serif" font-size="21.875" lengthAdjust="spacing" textLength="99.0784" x="618.75" y="295.0958">+setTipo()</text><text fill="#000000" font-family="sans-serif" font-size="21.875" lengthAdjust="spacing" textLength="102.7313" x="618.75" y="322.6105">+toString()</text></g><!--class EntradaPeca--><g class="entity" data-entity="EntradaPeca" data-source-line="41" data-uid="ent0005" id="entity_EntradaPeca"><rect fill="#F1F1F1" height="515.2344" rx="3.9063" ry="3.9063" style="stroke:#181818;stroke-width:0.7813;" width="246.7178" x="10.9375" y="688.2813"/><ellipse cx="82.486" cy="713.2813" fill="#ADD1B2" rx="17.1875" ry="17.1875" style="stroke:#181818;stroke-width:1.5625;"/><path d="M86.8073,706.8359 Q87.0514,706.4941 87.3444,706.3232 Q87.6373,706.1523 87.9791,706.1523 Q88.5651,706.1523 88.9313,706.5674 Q89.2975,706.958 89.2975,707.9102 L89.2975,710.1807 Q89.2975,711.1328 88.9313,711.5479 Q88.5651,711.9629 87.9791,711.9629 Q87.442,711.9629 87.1246,711.6455 Q86.8073,711.3525 86.6364,710.5469 Q86.5631,709.9854 86.2701,709.6924 Q85.7574,709.1064 84.8053,708.7646 Q83.8531,708.4229 82.8766,708.4229 Q81.6803,708.4229 80.6793,708.9355 Q79.7028,709.4482 78.9215,710.6201 Q78.1647,711.792 78.1647,713.4033 L78.1647,715.1123 Q78.1647,717.041 79.5563,718.335 Q80.9479,719.6045 83.4381,719.6045 Q84.903,719.6045 85.9283,719.2139 Q86.5387,718.9697 87.1979,718.2861 Q87.6129,717.8711 87.8326,717.749 Q88.0768,717.627 88.3942,717.627 Q88.9069,717.627 89.2975,718.042 Q89.7125,718.4326 89.7125,718.9697 Q89.7125,719.5068 89.1754,720.1416 Q88.3942,721.0449 87.149,721.5576 Q85.4645,722.2656 83.4381,722.2656 Q81.0699,722.2656 79.1901,721.2891 Q77.652,720.5078 76.5778,718.8477 Q75.5035,717.1631 75.5035,715.1611 L75.5035,713.3545 Q75.5035,711.2793 76.4557,709.4971 Q77.4323,707.6904 79.1412,706.7383 Q80.8502,705.7617 82.7789,705.7617 Q83.9264,705.7617 84.9274,706.0303 Q85.9528,706.2744 86.8073,706.8359 Z " fill="#000000"/><text fill="#000000" font-family="Courier" font-size="15.625" lengthAdjust="spacing" textLength="90.3397" x="114.5172" y="719.6747">EntradaPeca</text><line style="stroke:#181818;stroke-width:0.7813;" x1="12.5" x2="256.0928" y1="738.2813" y2="738.2813"/><text fill="#000000" font-family="sans-serif" font-size="21.875" lengthAdjust="spacing" textLength="115.5487" x="20.3125" y="767.2394">-quantidade</text><text fill="#000000" font-family="sans-serif" font-size="21.875" lengthAdjust="spacing" textLength="6.0776" x="135.8612" y="767.2394">&#160;</text><text fill="#000000" font-family="sans-serif" font-size="21.875" lengthAdjust="spacing" textLength="6.0776" x="141.9388" y="767.2394">:</text><text fill="#000000" font-family="sans-serif" font-size="21.875" lengthAdjust="spacing" textLength="23.1033" x="20.3125" y="794.754">int</text><text fill="#000000" font-family="sans-serif" font-size="21.875" lengthAdjust="spacing" textLength="173.8678" x="20.3125" y="822.2687">-nomeFornecedor</text><text fill="#000000" font-family="sans-serif" font-size="21.875" lengthAdjust="spacing" textLength="6.0776" x="20.3125" y="849.7833">:</text><text fill="#000000" font-family="sans-serif" font-size="21.875" lengthAdjust="spacing" textLength="6.0776" x="26.3901" y="849.7833">&#160;</text><text fill="#000000" font-family="sans-serif" font-size="21.875" lengthAdjust="spacing" textLength="57.1442" x="32.4677" y="849.7833">String</text><text fill="#000000" font-family="sans-serif" font-size="21.875" lengthAdjust="spacing" textLength="59.5688" x="20.3125" y="877.298">-custo</text><text fill="#000000" font-family="sans-serif" font-size="21.875" lengthAdjust="spacing" textLength="6.0776" x="79.8813" y="877.298">&#160;</text><text fill="#000000" font-family="sans-serif" font-size="21.875" lengthAdjust="spacing" textLength="6.0776" x="85.9589" y="877.298">:</text><text fill="#000000" font-family="sans-serif" font-size="21.875" lengthAdjust="spacing" textLength="6.0776" x="92.0364" y="877.298">&#160;</text><text fill="#000000" font-family="sans-serif" font-size="21.875" lengthAdjust="spacing" textLength="41.3467" x="98.114" y="877.298">float</text><text fill="#000000" font-family="sans-serif" font-size="21.875" lengthAdjust="spacing" textLength="54.7195" x="20.3125" y="904.8126">-peca</text><text fill="#000000" font-family="sans-serif" font-size="21.875" lengthAdjust="spacing" textLength="6.0776" x="75.032" y="904.8126">&#160;</text><text fill="#000000" font-family="sans-serif" font-size="21.875" lengthAdjust="spacing" textLength="6.0776" x="81.1096" y="904.8126">:</text><text fill="#000000" font-family="sans-serif" font-size="21.875" lengthAdjust="spacing" textLength="6.0776" x="87.1872" y="904.8126">&#160;</text><text fill="#000000" font-family="sans-serif" font-size="21.875" lengthAdjust="spacing" textLength="53.4698" x="93.2648" y="904.8126">UUID</text><line style="stroke:#181818;stroke-width:0.7813;" x1="12.5" x2="256.0928" y1="915.8691" y2="915.8691"/><text fill="#000000" font-family="sans-serif" font-size="21.875" lengthAdjust="spacing" textLength="102.7313" x="20.3125" y="944.8273">+toString()</text><text fill="#000000" font-family="sans-serif" font-size="21.875" lengthAdjust="spacing" textLength="114.8972" x="20.3125" y="972.3419">+getCusto()</text><text fill="#000000" font-family="sans-serif" font-size="21.875" lengthAdjust="spacing" textLength="107.6126" x="20.3125" y="999.8566">+getPeca()</text><text fill="#000000" font-family="sans-serif" font-size="21.875" lengthAdjust="spacing" textLength="125.856" x="20.3125" y="1027.3712">+getPecaId()</text><text fill="#000000" font-family="sans-serif" font-size="21.875" lengthAdjust="spacing" textLength="169.6381" x="20.3125" y="1054.8859">+setQuantidade()</text><text fill="#000000" font-family="sans-serif" font-size="21.875" lengthAdjust="spacing" textLength="106.3843" x="20.3125" y="1082.4005">+setPeca()</text><text fill="#000000" font-family="sans-serif" font-size="21.875" lengthAdjust="spacing" textLength="113.6688" x="20.3125" y="1109.9152">+setCusto()</text><text fill="#000000" font-family="sans-serif" font-size="21.875" lengthAdjust="spacing" textLength="226.7395" x="20.3125" y="1137.4298">+setNomeFornecedor()</text><text fill="#000000" font-family="sans-serif" font-size="21.875" lengthAdjust="spacing" textLength="227.9678" x="20.3125" y="1164.9445">+getNomeFornecedor()</text><text fill="#000000" font-family="sans-serif" font-size="21.875" lengthAdjust="spacing" textLength="170.8664" x="20.3125" y="1192.4591">+getQuantidade()</text></g><!--class Peca--><g class="entity" data-entity="Peca" data-source-line="58" data-uid="ent0006" id="entity_Peca"><rect fill="#F1F1F1" height="432.6904" rx="3.9063" ry="3.9063" style="stroke:#181818;stroke-width:0.7813;" width="215.1337" x="312.5" y="729.6875"/><ellipse cx="395.6192" cy="754.6875" fill="#ADD1B2" rx="17.1875" ry="17.1875" style="stroke:#181818;stroke-width:1.5625;"/><path d="M399.9405,748.2422 Q400.1846,747.9004 400.4776,747.7295 Q400.7706,747.5586 401.1124,747.5586 Q401.6983,747.5586 402.0645,747.9736 Q402.4307,748.3643 402.4307,749.3164 L402.4307,751.5869 Q402.4307,752.5391 402.0645,752.9541 Q401.6983,753.3691 401.1124,753.3691 Q400.5753,753.3691 400.2579,753.0518 Q399.9405,752.7588 399.7696,751.9531 Q399.6964,751.3916 399.4034,751.0986 Q398.8907,750.5127 397.9385,750.1709 Q396.9864,749.8291 396.0098,749.8291 Q394.8135,749.8291 393.8126,750.3418 Q392.836,750.8545 392.0547,752.0264 Q391.2979,753.1982 391.2979,754.8096 L391.2979,756.5186 Q391.2979,758.4473 392.6895,759.7412 Q394.0811,761.0107 396.5714,761.0107 Q398.0362,761.0107 399.0616,760.6201 Q399.6719,760.376 400.3311,759.6924 Q400.7462,759.2773 400.9659,759.1553 Q401.21,759.0332 401.5274,759.0332 Q402.0401,759.0332 402.4307,759.4482 Q402.8458,759.8389 402.8458,760.376 Q402.8458,760.9131 402.3087,761.5479 Q401.5274,762.4512 400.2823,762.9639 Q398.5977,763.6719 396.5714,763.6719 Q394.2032,763.6719 392.3233,762.6953 Q390.7852,761.9141 389.711,760.2539 Q388.6368,758.5693 388.6368,756.5674 L388.6368,754.7607 Q388.6368,752.6855 389.5889,750.9033 Q390.5655,749.0967 392.2745,748.1445 Q393.9835,747.168 395.9122,747.168 Q397.0596,747.168 398.0606,747.4365 Q399.086,747.6807 399.9405,748.2422 Z " fill="#000000"/><text fill="#000000" font-family="Courier" font-size="15.625" lengthAdjust="spacing" textLength="35.614" x="427.6505" y="761.0809">Peca</text><line style="stroke:#181818;stroke-width:0.7813;" x1="314.0625" x2="526.0712" y1="779.6875" y2="779.6875"/><text fill="#000000" font-family="sans-serif" font-size="21.875" lengthAdjust="spacing" textLength="62.0041" x="321.875" y="808.6456">-nome</text><text fill="#000000" font-family="sans-serif" font-size="21.875" lengthAdjust="spacing" textLength="6.0776" x="383.8791" y="808.6456">&#160;</text><text fill="#000000" font-family="sans-serif" font-size="21.875" lengthAdjust="spacing" textLength="6.0776" x="389.9567" y="808.6456">:</text><text fill="#000000" font-family="sans-serif" font-size="21.875" lengthAdjust="spacing" textLength="6.0776" x="396.0342" y="808.6456">&#160;</text><text fill="#000000" font-family="sans-serif" font-size="21.875" lengthAdjust="spacing" textLength="57.1442" x="402.1118" y="808.6456">String</text><text fill="#000000" font-family="sans-serif" font-size="21.875" lengthAdjust="spacing" textLength="54.6982" x="321.875" y="836.1603">-valor</text><text fill="#000000" font-family="sans-serif" font-size="21.875" lengthAdjust="spacing" textLength="6.0776" x="376.5732" y="836.1603">&#160;</text><text fill="#000000" font-family="sans-serif" font-size="21.875" lengthAdjust="spacing" textLength="6.0776" x="382.6508" y="836.1603">:</text><text fill="#000000" font-family="sans-serif" font-size="21.875" lengthAdjust="spacing" textLength="6.0776" x="388.7283" y="836.1603">&#160;</text><text fill="#000000" font-family="sans-serif" font-size="21.875" lengthAdjust="spacing" textLength="41.3467" x="394.8059" y="836.1603">float</text><text fill="#000000" font-family="sans-serif" font-size="21.875" lengthAdjust="spacing" textLength="115.5487" x="321.875" y="863.6749">-quantidade</text><text fill="#000000" font-family="sans-serif" font-size="21.875" lengthAdjust="spacing" textLength="6.0776" x="437.4237" y="863.6749">&#160;</text><text fill="#000000" font-family="sans-serif" font-size="21.875" lengthAdjust="spacing" textLength="6.0776" x="443.5013" y="863.6749">:</text><text fill="#000000" font-family="sans-serif" font-size="21.875" lengthAdjust="spacing" textLength="23.1033" x="321.875" y="891.1896">int</text><line style="stroke:#181818;stroke-width:0.7813;" x1="314.0625" x2="526.0712" y1="902.2461" y2="902.2461"/><text fill="#000000" font-family="sans-serif" font-size="21.875" lengthAdjust="spacing" textLength="102.7313" x="321.875" y="931.2042">+toString()</text><text fill="#000000" font-family="sans-serif" font-size="21.875" lengthAdjust="spacing" textLength="114.8758" x="321.875" y="958.7189">+setNome()</text><text fill="#000000" font-family="sans-serif" font-size="21.875" lengthAdjust="spacing" textLength="107.5912" x="321.875" y="986.2335">+setValor()</text><text fill="#000000" font-family="sans-serif" font-size="21.875" lengthAdjust="spacing" textLength="196.3837" x="321.875" y="1013.7482">+adicionarEstoque()</text><text fill="#000000" font-family="sans-serif" font-size="21.875" lengthAdjust="spacing" textLength="169.6381" x="321.875" y="1041.2628">+setQuantidade()</text><text fill="#000000" font-family="sans-serif" font-size="21.875" lengthAdjust="spacing" textLength="174.4766" x="321.875" y="1068.7775">+reduzirEstoque()</text><text fill="#000000" font-family="sans-serif" font-size="21.875" lengthAdjust="spacing" textLength="108.8196" x="321.875" y="1096.2921">+getValor()</text><text fill="#000000" font-family="sans-serif" font-size="21.875" lengthAdjust="spacing" textLength="116.1041" x="321.875" y="1123.8068">+getNome()</text><text fill="#000000" font-family="sans-serif" font-size="21.875" lengthAdjust="spacing" textLength="170.8664" x="321.875" y="1151.3214">+getQuantidade()</text></g><!--class Servico--><g class="entity" data-entity="Servico" data-source-line="73" data-uid="ent0007" id="entity_Servico"><rect fill="#F1F1F1" height="817.8955" rx="3.9063" ry="3.9063" style="stroke:#181818;stroke-width:0.7813;" width="233.3557" x="583.5938" y="537.5"/><ellipse cx="667.5804" cy="562.5" fill="#ADD1B2" rx="17.1875" ry="17.1875" style="stroke:#181818;stroke-width:1.5625;"/><path d="M671.9017,556.0547 Q672.1458,555.7129 672.4388,555.542 Q672.7318,555.3711 673.0736,555.3711 Q673.6595,555.3711 674.0257,555.7861 Q674.3919,556.1768 674.3919,557.1289 L674.3919,559.3994 Q674.3919,560.3516 674.0257,560.7666 Q673.6595,561.1816 673.0736,561.1816 Q672.5365,561.1816 672.2191,560.8643 Q671.9017,560.5713 671.7308,559.7656 Q671.6576,559.2041 671.3646,558.9111 Q670.8519,558.3252 669.8997,557.9834 Q668.9476,557.6416 667.971,557.6416 Q666.7747,557.6416 665.7738,558.1543 Q664.7972,558.667 664.016,559.8389 Q663.2591,561.0107 663.2591,562.6221 L663.2591,564.3311 Q663.2591,566.2598 664.6507,567.5537 Q666.0423,568.8232 668.5326,568.8232 Q669.9974,568.8232 671.0228,568.4326 Q671.6331,568.1885 672.2923,567.5049 Q672.7074,567.0898 672.9271,566.9678 Q673.1712,566.8457 673.4886,566.8457 Q674.0013,566.8457 674.3919,567.2607 Q674.807,567.6514 674.807,568.1885 Q674.807,568.7256 674.2699,569.3604 Q673.4886,570.2637 672.2435,570.7764 Q670.5589,571.4844 668.5326,571.4844 Q666.1644,571.4844 664.2845,570.5078 Q662.7464,569.7266 661.6722,568.0664 Q660.598,566.3818 660.598,564.3799 L660.598,562.5732 Q660.598,560.498 661.5501,558.7158 Q662.5267,556.9092 664.2357,555.957 Q665.9447,554.9805 667.8734,554.9805 Q669.0208,554.9805 670.0218,555.249 Q671.0472,555.4932 671.9017,556.0547 Z " fill="#000000"/><text fill="#000000" font-family="Courier" font-size="15.625" lengthAdjust="spacing" textLength="52.1011" x="699.6117" y="568.8934">Servico</text><line style="stroke:#181818;stroke-width:0.7813;" x1="585.1563" x2="815.387" y1="587.5" y2="587.5"/><text fill="#000000" font-family="sans-serif" font-size="21.875" lengthAdjust="spacing" textLength="42.5537" x="592.9688" y="616.4581">-tipo</text><text fill="#000000" font-family="sans-serif" font-size="21.875" lengthAdjust="spacing" textLength="6.0776" x="635.5225" y="616.4581">&#160;</text><text fill="#000000" font-family="sans-serif" font-size="21.875" lengthAdjust="spacing" textLength="6.0776" x="641.6" y="616.4581">:</text><text fill="#000000" font-family="sans-serif" font-size="21.875" lengthAdjust="spacing" textLength="6.0776" x="647.6776" y="616.4581">&#160;</text><text fill="#000000" font-family="sans-serif" font-size="21.875" lengthAdjust="spacing" textLength="57.1442" x="653.7552" y="616.4581">String</text><text fill="#000000" font-family="sans-serif" font-size="21.875" lengthAdjust="spacing" textLength="62.0041" x="592.9688" y="643.9728">-preco</text><text fill="#000000" font-family="sans-serif" font-size="21.875" lengthAdjust="spacing" textLength="6.0776" x="654.9728" y="643.9728">&#160;</text><text fill="#000000" font-family="sans-serif" font-size="21.875" lengthAdjust="spacing" textLength="6.0776" x="661.0504" y="643.9728">:</text><text fill="#000000" font-family="sans-serif" font-size="21.875" lengthAdjust="spacing" textLength="6.0776" x="667.128" y="643.9728">&#160;</text><text fill="#000000" font-family="sans-serif" font-size="21.875" lengthAdjust="spacing" textLength="41.3467" x="673.2056" y="643.9728">float</text><text fill="#000000" font-family="sans-serif" font-size="21.875" lengthAdjust="spacing" textLength="100.9048" x="592.9688" y="671.4874">-descricao</text><text fill="#000000" font-family="sans-serif" font-size="21.875" lengthAdjust="spacing" textLength="6.0776" x="693.8736" y="671.4874">&#160;</text><text fill="#000000" font-family="sans-serif" font-size="21.875" lengthAdjust="spacing" textLength="6.0776" x="699.9512" y="671.4874">:</text><text fill="#000000" font-family="sans-serif" font-size="21.875" lengthAdjust="spacing" textLength="57.1442" x="592.9688" y="699.0021">String</text><text fill="#000000" font-family="sans-serif" font-size="21.875" lengthAdjust="spacing" textLength="86.3358" x="592.9688" y="726.5167">-duracao</text><text fill="#000000" font-family="sans-serif" font-size="21.875" lengthAdjust="spacing" textLength="6.0776" x="679.3045" y="726.5167">&#160;</text><text fill="#000000" font-family="sans-serif" font-size="21.875" lengthAdjust="spacing" textLength="6.0776" x="685.3821" y="726.5167">:</text><text fill="#000000" font-family="sans-serif" font-size="21.875" lengthAdjust="spacing" textLength="6.0776" x="691.4597" y="726.5167">&#160;</text><text fill="#000000" font-family="sans-serif" font-size="21.875" lengthAdjust="spacing" textLength="23.1033" x="697.5372" y="726.5167">int</text><text fill="#000000" font-family="sans-serif" font-size="21.875" lengthAdjust="spacing" textLength="156.8527" x="592.9688" y="754.0314">-tipoFuncionario</text><text fill="#000000" font-family="sans-serif" font-size="21.875" lengthAdjust="spacing" textLength="6.0776" x="592.9688" y="781.546">:</text><text fill="#000000" font-family="sans-serif" font-size="21.875" lengthAdjust="spacing" textLength="156.8527" x="592.9688" y="809.0607">TipoFuncionario</text><text fill="#000000" font-family="sans-serif" font-size="21.875" lengthAdjust="spacing" textLength="128.8895" x="592.9688" y="836.5753">-tipoElevador</text><text fill="#000000" font-family="sans-serif" font-size="21.875" lengthAdjust="spacing" textLength="6.0776" x="721.8582" y="836.5753">&#160;</text><text fill="#000000" font-family="sans-serif" font-size="21.875" lengthAdjust="spacing" textLength="6.0776" x="727.9358" y="836.5753">:</text><text fill="#000000" font-family="sans-serif" font-size="21.875" lengthAdjust="spacing" textLength="128.8895" x="592.9688" y="864.09">TipoElevador</text><text fill="#000000" font-family="sans-serif" font-size="21.875" lengthAdjust="spacing" textLength="128.8895" x="592.9688" y="891.6046">-usaElevador</text><text fill="#000000" font-family="sans-serif" font-size="21.875" lengthAdjust="spacing" textLength="6.0776" x="721.8582" y="891.6046">&#160;</text><text fill="#000000" font-family="sans-serif" font-size="21.875" lengthAdjust="spacing" textLength="6.0776" x="727.9358" y="891.6046">:</text><text fill="#000000" font-family="sans-serif" font-size="21.875" lengthAdjust="spacing" textLength="77.8549" x="592.9688" y="919.1193">boolean</text><line style="stroke:#181818;stroke-width:0.7813;" x1="585.1563" x2="815.387" y1="930.1758" y2="930.1758"/><text fill="#000000" font-family="sans-serif" font-size="21.875" lengthAdjust="spacing" textLength="185.4141" x="592.9688" y="959.1339">+setTipoElevador()</text><text fill="#000000" font-family="sans-serif" font-size="21.875" lengthAdjust="spacing" textLength="102.7313" x="592.9688" y="986.6486">+toString()</text><text fill="#000000" font-family="sans-serif" font-size="21.875" lengthAdjust="spacing" textLength="186.6425" x="592.9688" y="1014.1632">+getTipoElevador()</text><text fill="#000000" font-family="sans-serif" font-size="21.875" lengthAdjust="spacing" textLength="148.9487" x="592.9688" y="1041.6779">+usaElevador()</text><text fill="#000000" font-family="sans-serif" font-size="21.875" lengthAdjust="spacing" textLength="139.2075" x="592.9688" y="1069.1925">+setDuracao()</text><text fill="#000000" font-family="sans-serif" font-size="21.875" lengthAdjust="spacing" textLength="140.4358" x="592.9688" y="1096.7072">+getDuracao()</text><text fill="#000000" font-family="sans-serif" font-size="21.875" lengthAdjust="spacing" textLength="113.6688" x="592.9688" y="1124.2218">+setPreco()</text><text fill="#000000" font-family="sans-serif" font-size="21.875" lengthAdjust="spacing" textLength="214.6057" x="592.9688" y="1151.7365">+getTipoFuncionario()</text><text fill="#000000" font-family="sans-serif" font-size="21.875" lengthAdjust="spacing" textLength="181.7612" x="592.9688" y="1179.2511">+setUsaElevador()</text><text fill="#000000" font-family="sans-serif" font-size="21.875" lengthAdjust="spacing" textLength="100.3067" x="592.9688" y="1206.7657">+getTipo()</text><text fill="#000000" font-family="sans-serif" font-size="21.875" lengthAdjust="spacing" textLength="153.7766" x="592.9688" y="1234.2804">+setDescricao()</text><text fill="#000000" font-family="sans-serif" font-size="21.875" lengthAdjust="spacing" textLength="155.0049" x="592.9688" y="1261.795">+getDescricao()</text><text fill="#000000" font-family="sans-serif" font-size="21.875" lengthAdjust="spacing" textLength="213.3774" x="592.9688" y="1289.3097">+setTipoFuncionario()</text><text fill="#000000" font-family="sans-serif" font-size="21.875" lengthAdjust="spacing" textLength="99.0784" x="592.9688" y="1316.8243">+setTipo()</text><text fill="#000000" font-family="sans-serif" font-size="21.875" lengthAdjust="spacing" textLength="114.8972" x="592.9688" y="1344.339">+getPreco()</text></g><!--class Sistema--><g class="entity" data-entity="Sistema" data-source-line="98" data-uid="ent0008" id="entity_Sistema"><rect fill="#F1F1F1" height="102.5146" rx="3.9063" ry="3.9063" style="stroke:#181818;stroke-width:0.7813;" width="121.4813" x="73.4375" y="1736.7188"/><ellipse cx="103.6426" cy="1761.7188" fill="#ADD1B2" rx="17.1875" ry="17.1875" style="stroke:#181818;stroke-width:1.5625;"/><path d="M107.9639,1755.2734 Q108.208,1754.9316 108.501,1754.7607 Q108.7939,1754.5898 109.1357,1754.5898 Q109.7217,1754.5898 110.0879,1755.0049 Q110.4541,1755.3955 110.4541,1756.3477 L110.4541,1758.6182 Q110.4541,1759.5703 110.0879,1759.9854 Q109.7217,1760.4004 109.1357,1760.4004 Q108.5986,1760.4004 108.2813,1760.083 Q107.9639,1759.79 107.793,1758.9844 Q107.7197,1758.4229 107.4268,1758.1299 Q106.9141,1757.5439 105.9619,1757.2021 Q105.0098,1756.8604 104.0332,1756.8604 Q102.8369,1756.8604 101.8359,1757.373 Q100.8594,1757.8857 100.0781,1759.0576 Q99.3213,1760.2295 99.3213,1761.8408 L99.3213,1763.5498 Q99.3213,1765.4785 100.7129,1766.7725 Q102.1045,1768.042 104.5947,1768.042 Q106.0596,1768.042 107.085,1767.6514 Q107.6953,1767.4072 108.3545,1766.7236 Q108.7695,1766.3086 108.9893,1766.1865 Q109.2334,1766.0645 109.5508,1766.0645 Q110.0635,1766.0645 110.4541,1766.4795 Q110.8691,1766.8701 110.8691,1767.4072 Q110.8691,1767.9443 110.332,1768.5791 Q109.5508,1769.4824 108.3057,1769.9951 Q106.6211,1770.7031 104.5947,1770.7031 Q102.2266,1770.7031 100.3467,1769.7266 Q98.8086,1768.9453 97.7344,1767.2852 Q96.6602,1765.6006 96.6602,1763.5986 L96.6602,1761.792 Q96.6602,1759.7168 97.6123,1757.9346 Q98.5889,1756.1279 100.2979,1755.1758 Q102.0068,1754.1992 103.9355,1754.1992 Q105.083,1754.1992 106.084,1754.4678 Q107.1094,1754.7119 107.9639,1755.2734 Z " fill="#000000"/><text fill="#000000" font-family="Courier" font-size="15.625" lengthAdjust="spacing" textLength="56.4423" x="127.0215" y="1768.1122">Sistema</text><line style="stroke:#181818;stroke-width:0.7813;" x1="75" x2="193.3563" y1="1786.7188" y2="1786.7188"/><line style="stroke:#181818;stroke-width:0.7813;" x1="75" x2="193.3563" y1="1799.2188" y2="1799.2188"/><text fill="#000000" font-family="sans-serif" font-size="21.875" lengthAdjust="spacing" textLength="102.7313" x="82.8125" y="1828.1769">+toString()</text></g><!--class Veiculo--><g class="entity" data-entity="Veiculo" data-source-line="102" data-uid="ent0009" id="entity_Veiculo"><rect fill="#F1F1F1" height="680.3223" rx="3.9063" ry="3.9063" style="stroke:#181818;stroke-width:0.7813;" width="223.6359" x="250.7813" y="1448.4375"/><ellipse cx="330.3352" cy="1473.4375" fill="#ADD1B2" rx="17.1875" ry="17.1875" style="stroke:#181818;stroke-width:1.5625;"/><path d="M334.6565,1466.9922 Q334.9007,1466.6504 335.1936,1466.4795 Q335.4866,1466.3086 335.8284,1466.3086 Q336.4143,1466.3086 336.7805,1466.7236 Q337.1468,1467.1143 337.1468,1468.0664 L337.1468,1470.3369 Q337.1468,1471.2891 336.7805,1471.7041 Q336.4143,1472.1191 335.8284,1472.1191 Q335.2913,1472.1191 334.9739,1471.8018 Q334.6565,1471.5088 334.4856,1470.7031 Q334.4124,1470.1416 334.1194,1469.8486 Q333.6067,1469.2627 332.6546,1468.9209 Q331.7024,1468.5791 330.7259,1468.5791 Q329.5296,1468.5791 328.5286,1469.0918 Q327.552,1469.6045 326.7708,1470.7764 Q326.0139,1471.9482 326.0139,1473.5596 L326.0139,1475.2686 Q326.0139,1477.1973 327.4055,1478.4912 Q328.7971,1479.7607 331.2874,1479.7607 Q332.7522,1479.7607 333.7776,1479.3701 Q334.388,1479.126 335.0471,1478.4424 Q335.4622,1478.0273 335.6819,1477.9053 Q335.9261,1477.7832 336.2434,1477.7832 Q336.7561,1477.7832 337.1468,1478.1982 Q337.5618,1478.5889 337.5618,1479.126 Q337.5618,1479.6631 337.0247,1480.2979 Q336.2434,1481.2012 334.9983,1481.7139 Q333.3138,1482.4219 331.2874,1482.4219 Q328.9192,1482.4219 327.0393,1481.4453 Q325.5013,1480.6641 324.427,1479.0039 Q323.3528,1477.3193 323.3528,1475.3174 L323.3528,1473.5107 Q323.3528,1471.4355 324.305,1469.6533 Q325.2815,1467.8467 326.9905,1466.8945 Q328.6995,1465.918 330.6282,1465.918 Q331.7757,1465.918 332.7766,1466.1865 Q333.802,1466.4307 334.6565,1466.9922 Z " fill="#000000"/><text fill="#000000" font-family="Courier" font-size="15.625" lengthAdjust="spacing" textLength="51.2466" x="362.3665" y="1479.8309">Veiculo</text><line style="stroke:#181818;stroke-width:0.7813;" x1="252.3438" x2="472.8546" y1="1498.4375" y2="1498.4375"/><text fill="#000000" font-family="sans-serif" font-size="21.875" lengthAdjust="spacing" textLength="79.0298" x="260.1563" y="1527.3956">-modelo</text><text fill="#000000" font-family="sans-serif" font-size="21.875" lengthAdjust="spacing" textLength="6.0776" x="339.1861" y="1527.3956">&#160;</text><text fill="#000000" font-family="sans-serif" font-size="21.875" lengthAdjust="spacing" textLength="6.0776" x="345.2637" y="1527.3956">:</text><text fill="#000000" font-family="sans-serif" font-size="21.875" lengthAdjust="spacing" textLength="6.0776" x="351.3412" y="1527.3956">&#160;</text><text fill="#000000" font-family="sans-serif" font-size="21.875" lengthAdjust="spacing" textLength="57.1442" x="357.4188" y="1527.3956">String</text><text fill="#000000" font-family="sans-serif" font-size="21.875" lengthAdjust="spacing" textLength="59.5795" x="260.1563" y="1554.9103">-placa</text><text fill="#000000" font-family="sans-serif" font-size="21.875" lengthAdjust="spacing" textLength="6.0776" x="319.7357" y="1554.9103">&#160;</text><text fill="#000000" font-family="sans-serif" font-size="21.875" lengthAdjust="spacing" textLength="6.0776" x="325.8133" y="1554.9103">:</text><text fill="#000000" font-family="sans-serif" font-size="21.875" lengthAdjust="spacing" textLength="6.0776" x="331.8909" y="1554.9103">&#160;</text><text fill="#000000" font-family="sans-serif" font-size="21.875" lengthAdjust="spacing" textLength="57.1442" x="337.9684" y="1554.9103">String</text><text fill="#000000" font-family="sans-serif" font-size="21.875" lengthAdjust="spacing" textLength="151.9928" x="260.1563" y="1582.4249">-anoFabricacao</text><text fill="#000000" font-family="sans-serif" font-size="21.875" lengthAdjust="spacing" textLength="6.0776" x="260.1563" y="1609.9396">:</text><text fill="#000000" font-family="sans-serif" font-size="21.875" lengthAdjust="spacing" textLength="6.0776" x="266.2338" y="1609.9396">&#160;</text><text fill="#000000" font-family="sans-serif" font-size="21.875" lengthAdjust="spacing" textLength="23.1033" x="272.3114" y="1609.9396">int</text><text fill="#000000" font-family="sans-serif" font-size="21.875" lengthAdjust="spacing" textLength="37.6724" x="260.1563" y="1637.4542">-cor</text><text fill="#000000" font-family="sans-serif" font-size="21.875" lengthAdjust="spacing" textLength="6.0776" x="297.8287" y="1637.4542">&#160;</text><text fill="#000000" font-family="sans-serif" font-size="21.875" lengthAdjust="spacing" textLength="6.0776" x="303.9063" y="1637.4542">:</text><text fill="#000000" font-family="sans-serif" font-size="21.875" lengthAdjust="spacing" textLength="6.0776" x="309.9838" y="1637.4542">&#160;</text><text fill="#000000" font-family="sans-serif" font-size="21.875" lengthAdjust="spacing" textLength="57.1442" x="316.0614" y="1637.4542">String</text><text fill="#000000" font-family="sans-serif" font-size="21.875" lengthAdjust="spacing" textLength="65.6464" x="260.1563" y="1664.9689">-status</text><text fill="#000000" font-family="sans-serif" font-size="21.875" lengthAdjust="spacing" textLength="6.0776" x="325.8026" y="1664.9689">&#160;</text><text fill="#000000" font-family="sans-serif" font-size="21.875" lengthAdjust="spacing" textLength="6.0776" x="331.8802" y="1664.9689">:</text><text fill="#000000" font-family="sans-serif" font-size="21.875" lengthAdjust="spacing" textLength="133.7601" x="260.1563" y="1692.4835">StatusVeiculo</text><text fill="#000000" font-family="sans-serif" font-size="21.875" lengthAdjust="spacing" textLength="88.7604" x="260.1563" y="1719.9982">-clienteId</text><text fill="#000000" font-family="sans-serif" font-size="21.875" lengthAdjust="spacing" textLength="6.0776" x="348.9166" y="1719.9982">&#160;</text><text fill="#000000" font-family="sans-serif" font-size="21.875" lengthAdjust="spacing" textLength="6.0776" x="354.9942" y="1719.9982">:</text><text fill="#000000" font-family="sans-serif" font-size="21.875" lengthAdjust="spacing" textLength="53.4698" x="260.1563" y="1747.5128">UUID</text><line style="stroke:#181818;stroke-width:0.7813;" x1="252.3438" x2="472.8546" y1="1758.5693" y2="1758.5693"/><text fill="#000000" font-family="sans-serif" font-size="21.875" lengthAdjust="spacing" textLength="93.0008" x="260.1563" y="1787.5275">+getCor()</text><text fill="#000000" font-family="sans-serif" font-size="21.875" lengthAdjust="spacing" textLength="118.5394" x="260.1563" y="1815.0421">+setStatus()</text><text fill="#000000" font-family="sans-serif" font-size="21.875" lengthAdjust="spacing" textLength="91.7725" x="260.1563" y="1842.5568">+setCor()</text><text fill="#000000" font-family="sans-serif" font-size="21.875" lengthAdjust="spacing" textLength="128.27" x="260.1563" y="1870.0714">+setModelo()</text><text fill="#000000" font-family="sans-serif" font-size="21.875" lengthAdjust="spacing" textLength="204.8859" x="260.1563" y="1897.5861">+getAnoFabricacao()</text><text fill="#000000" font-family="sans-serif" font-size="21.875" lengthAdjust="spacing" textLength="119.7678" x="260.1563" y="1925.1007">+getStatus()</text><text fill="#000000" font-family="sans-serif" font-size="21.875" lengthAdjust="spacing" textLength="124.617" x="260.1563" y="1952.6154">+setCliente()</text><text fill="#000000" font-family="sans-serif" font-size="21.875" lengthAdjust="spacing" textLength="111.2442" x="260.1563" y="1980.13">+setPlaca()</text><text fill="#000000" font-family="sans-serif" font-size="21.875" lengthAdjust="spacing" textLength="203.6575" x="260.1563" y="2007.6447">+setAnoFabricacao()</text><text fill="#000000" font-family="sans-serif" font-size="21.875" lengthAdjust="spacing" textLength="125.8453" x="260.1563" y="2035.1593">+getCliente()</text><text fill="#000000" font-family="sans-serif" font-size="21.875" lengthAdjust="spacing" textLength="112.4725" x="260.1563" y="2062.674">+getPlaca()</text><text fill="#000000" font-family="sans-serif" font-size="21.875" lengthAdjust="spacing" textLength="129.4983" x="260.1563" y="2090.1886">+getModelo()</text><text fill="#000000" font-family="sans-serif" font-size="21.875" lengthAdjust="spacing" textLength="102.7313" x="260.1563" y="2117.7032">+toString()</text></g><!--SRC=[bLLBRzGm4Bxlh_0HX2gr1owzLTskj0SAQDbodhM7r2AnKtkyY2B-EtuaZfrD19nsv_NDVFDmx7UfUZ3GCT5BTlF-UcEpXhTWxHsHaIT7kETQ7UGhiWkNdLOKBJUBfaVeaDrhPoIQmlx3GFzL2dhsOTSRqZqZpKwQIFjQf45EKgl2lvKAwMUFJ1jwrfjDn6UVaCEUi6E_DenTiTwBx9OTZ_jjb5ySA98217gjL1ILPsYrEIf9OAJs-c-jXc1vPv6UIjkRjq5B-k1Re9eaDKWXPnO-6e7T5Wzepf8F4HxdSqwSLLNOGfvc5lLxv3XW5pHjqfHC_vEKJrQLlC9akL8x2ouwb8j-QF4CGfkXOf9zgEgB_naj0tvGPTX9MCHKP410QEG0kpXVfJlSQQEGOoZWbYMaQEFEKjcU-SfSJli-H2pFFYwV-BUPsmh9IuzLbHbpHRsy6KKd0kcQQjo8Ykf2jsPyXxgo48UV912I-ui4y-1Pl3XSfMrGk5TPkpKLL5Dc-TlQrmjKyElz6r6FKg3bHdAOEGfd82d73GbWEwSI7pakPg79NdcDBtRtYZaBXVcaTOkWYaKUZIlFoALB0PYxkqt5vwXA3XiMkb1X5ZIort6EF3-yxTYwAL6jiUlW4r0prJEDKLh_SAKrNRpg9vJSjUESEosmdK-wXNYZXGgKti4fr5TFbiyFtXAGir4N_Wp9acyhKVaFcoZEFnnyqVqKD5rmOVeG2ysyxyg2fZTs5fyoJiCBnBAq3575D5LCKrTHD_SF]--></g></svg>