<svg xmlns="http://www.w3.org/2000/svg" xmlns:xlink="http://www.w3.org/1999/xlink" contentStyleType="text/css" data-diagram-type="CLASS" height="1310.9375px" preserveAspectRatio="none" style="width:1353px;height:1310px;background:#FFFFFF;" version="1.1" viewBox="0 0 1353 1310" width="1353.125px" zoomAndPan="magnify"><defs/><g><!--class MecanicaBase--><g class="entity" data-entity="MecanicaBase" data-source-line="9" data-uid="ent0002" id="entity_MecanicaBase"><rect fill="#F1F1F1" height="75" rx="3.9063" ry="3.9063" style="stroke:#181818;stroke-width:0.7813;" width="152.4857" x="53.125" y="93.75"/><ellipse cx="76.5625" cy="118.75" fill="#ADD1B2" rx="17.1875" ry="17.1875" style="stroke:#181818;stroke-width:1.5625;"/><path d="M80.8838,112.3047 Q81.1279,111.9629 81.4209,111.792 Q81.7139,111.6211 82.0557,111.6211 Q82.6416,111.6211 83.0078,112.0361 Q83.374,112.4268 83.374,113.3789 L83.374,115.6494 Q83.374,116.6016 83.0078,117.0166 Q82.6416,117.4316 82.0557,117.4316 Q81.5186,117.4316 81.2012,117.1143 Q80.8838,116.8213 80.7129,116.0156 Q80.6396,115.4541 80.3467,115.1611 Q79.834,114.5752 78.8818,114.2334 Q77.9297,113.8916 76.9531,113.8916 Q75.7568,113.8916 74.7559,114.4043 Q73.7793,114.917 72.998,116.0889 Q72.2412,117.2607 72.2412,118.8721 L72.2412,120.5811 Q72.2412,122.5098 73.6328,123.8037 Q75.0244,125.0732 77.5146,125.0732 Q78.9795,125.0732 80.0049,124.6826 Q80.6152,124.4385 81.2744,123.7549 Q81.6895,123.3398 81.9092,123.2178 Q82.1533,123.0957 82.4707,123.0957 Q82.9834,123.0957 83.374,123.5107 Q83.7891,123.9014 83.7891,124.4385 Q83.7891,124.9756 83.252,125.6104 Q82.4707,126.5137 81.2256,127.0264 Q79.541,127.7344 77.5146,127.7344 Q75.1465,127.7344 73.2666,126.7578 Q71.7285,125.9766 70.6543,124.3164 Q69.5801,122.6318 69.5801,120.6299 L69.5801,118.8232 Q69.5801,116.748 70.5322,114.9658 Q71.5088,113.1592 73.2178,112.207 Q74.9268,111.2305 76.8555,111.2305 Q78.0029,111.2305 79.0039,111.499 Q80.0293,111.7432 80.8838,112.3047 Z " fill="#000000"/><text fill="#000000" font-family="Courier" font-size="15.625" lengthAdjust="spacing" textLength="102.4857" x="98.4375" y="125.1434">MecanicaBase</text><line style="stroke:#181818;stroke-width:0.7813;" x1="54.6875" x2="204.0482" y1="143.75" y2="143.75"/><line style="stroke:#181818;stroke-width:0.7813;" x1="54.6875" x2="204.0482" y1="156.25" y2="156.25"/></g><!--class ClienteController--><g class="entity" data-entity="ClienteController" data-source-line="12" data-uid="ent0003" id="entity_ClienteController"><rect fill="#F1F1F1" height="212.5732" rx="3.9063" ry="3.9063" style="stroke:#181818;stroke-width:0.7813;" width="166.3712" x="260.9375" y="25"/><ellipse cx="284.375" cy="50" fill="#ADD1B2" rx="17.1875" ry="17.1875" style="stroke:#181818;stroke-width:1.5625;"/><path d="M288.6963,43.5547 Q288.9404,43.2129 289.2334,43.042 Q289.5264,42.8711 289.8682,42.8711 Q290.4541,42.8711 290.8203,43.2861 Q291.1865,43.6768 291.1865,44.6289 L291.1865,46.8994 Q291.1865,47.8516 290.8203,48.2666 Q290.4541,48.6816 289.8682,48.6816 Q289.3311,48.6816 289.0137,48.3643 Q288.6963,48.0713 288.5254,47.2656 Q288.4521,46.7041 288.1592,46.4111 Q287.6465,45.8252 286.6943,45.4834 Q285.7422,45.1416 284.7656,45.1416 Q283.5693,45.1416 282.5684,45.6543 Q281.5918,46.167 280.8105,47.3389 Q280.0537,48.5107 280.0537,50.1221 L280.0537,51.8311 Q280.0537,53.7598 281.4453,55.0537 Q282.8369,56.3232 285.3271,56.3232 Q286.792,56.3232 287.8174,55.9326 Q288.4277,55.6885 289.0869,55.0049 Q289.502,54.5898 289.7217,54.4678 Q289.9658,54.3457 290.2832,54.3457 Q290.7959,54.3457 291.1865,54.7607 Q291.6016,55.1514 291.6016,55.6885 Q291.6016,56.2256 291.0645,56.8604 Q290.2832,57.7637 289.0381,58.2764 Q287.3535,58.9844 285.3271,58.9844 Q282.959,58.9844 281.0791,58.0078 Q279.541,57.2266 278.4668,55.5664 Q277.3926,53.8818 277.3926,51.8799 L277.3926,50.0732 Q277.3926,47.998 278.3447,46.2158 Q279.3213,44.4092 281.0303,43.457 Q282.7393,42.4805 284.668,42.4805 Q285.8154,42.4805 286.8164,42.749 Q287.8418,42.9932 288.6963,43.5547 Z " fill="#000000"/><text fill="#000000" font-family="Courier" font-size="15.625" lengthAdjust="spacing" textLength="116.3712" x="306.25" y="56.3934">ClienteController</text><line style="stroke:#181818;stroke-width:0.7813;" x1="262.5" x2="425.7462" y1="75" y2="75"/><line style="stroke:#181818;stroke-width:0.7813;" x1="262.5" x2="425.7462" y1="87.5" y2="87.5"/><text fill="#000000" font-family="sans-serif" font-size="21.875" lengthAdjust="spacing" textLength="69.8761" x="270.3125" y="116.4581">+criar()</text><text fill="#000000" font-family="sans-serif" font-size="21.875" lengthAdjust="spacing" textLength="107.5699" x="270.3125" y="143.9728">+remover()</text><text fill="#000000" font-family="sans-serif" font-size="21.875" lengthAdjust="spacing" textLength="110.0266" x="270.3125" y="171.4874">+atualizar()</text><text fill="#000000" font-family="sans-serif" font-size="21.875" lengthAdjust="spacing" textLength="73.5291" x="270.3125" y="199.0021">+listar()</text><text fill="#000000" font-family="sans-serif" font-size="21.875" lengthAdjust="spacing" textLength="145.285" x="270.3125" y="226.5167">+buscarPorId()</text></g><!--class MainViewController--><g class="entity" data-entity="MainViewController" data-source-line="20" data-uid="ent0004" id="entity_MainViewController"><rect fill="#F1F1F1" height="735.3516" rx="3.9063" ry="3.9063" style="stroke:#181818;stroke-width:0.7813;" width="237.0087" x="10.9375" y="455.4688"/><ellipse cx="57.5685" cy="480.4688" fill="#ADD1B2" rx="17.1875" ry="17.1875" style="stroke:#181818;stroke-width:1.5625;"/><path d="M61.8898,474.0234 Q62.1339,473.6816 62.4269,473.5107 Q62.7199,473.3398 63.0617,473.3398 Q63.6476,473.3398 64.0138,473.7549 Q64.38,474.1455 64.38,475.0977 L64.38,477.3682 Q64.38,478.3203 64.0138,478.7354 Q63.6476,479.1504 63.0617,479.1504 Q62.5246,479.1504 62.2072,478.833 Q61.8898,478.54 61.7189,477.7344 Q61.6457,477.1729 61.3527,476.8799 Q60.84,476.2939 59.8878,475.9521 Q58.9357,475.6104 57.9591,475.6104 Q56.7628,475.6104 55.7619,476.123 Q54.7853,476.6357 54.0041,477.8076 Q53.2472,478.9795 53.2472,480.5908 L53.2472,482.2998 Q53.2472,484.2285 54.6388,485.5225 Q56.0304,486.792 58.5207,486.792 Q59.9855,486.792 61.0109,486.4014 Q61.6212,486.1572 62.2804,485.4736 Q62.6955,485.0586 62.9152,484.9365 Q63.1593,484.8145 63.4767,484.8145 Q63.9894,484.8145 64.38,485.2295 Q64.7951,485.6201 64.7951,486.1572 Q64.7951,486.6943 64.258,487.3291 Q63.4767,488.2324 62.2316,488.7451 Q60.547,489.4531 58.5207,489.4531 Q56.1525,489.4531 54.2726,488.4766 Q52.7345,487.6953 51.6603,486.0352 Q50.5861,484.3506 50.5861,482.3486 L50.5861,480.542 Q50.5861,478.4668 51.5382,476.6846 Q52.5148,474.8779 54.2238,473.9258 Q55.9328,472.9492 57.8615,472.9492 Q59.0089,472.9492 60.0099,473.2178 Q61.0353,473.4619 61.8898,474.0234 Z " fill="#000000"/><text fill="#000000" font-family="Courier" font-size="15.625" lengthAdjust="spacing" textLength="135.4675" x="84.5976" y="486.8622">MainViewController</text><line style="stroke:#181818;stroke-width:0.7813;" x1="12.5" x2="246.3837" y1="505.4688" y2="505.4688"/><text fill="#000000" font-family="sans-serif" font-size="21.875" lengthAdjust="spacing" textLength="116.7236" x="20.3125" y="534.4269">-btnClientes</text><text fill="#000000" font-family="sans-serif" font-size="21.875" lengthAdjust="spacing" textLength="6.0776" x="137.0361" y="534.4269">&#160;</text><text fill="#000000" font-family="sans-serif" font-size="21.875" lengthAdjust="spacing" textLength="6.0776" x="143.1137" y="534.4269">:</text><text fill="#000000" font-family="sans-serif" font-size="21.875" lengthAdjust="spacing" textLength="109.4177" x="20.3125" y="561.9415">MFXButton</text><text fill="#000000" font-family="sans-serif" font-size="21.875" lengthAdjust="spacing" textLength="105.7755" x="20.3125" y="589.4562">-btnOficina</text><text fill="#000000" font-family="sans-serif" font-size="21.875" lengthAdjust="spacing" textLength="6.0776" x="126.088" y="589.4562">&#160;</text><text fill="#000000" font-family="sans-serif" font-size="21.875" lengthAdjust="spacing" textLength="6.0776" x="132.1655" y="589.4562">:</text><text fill="#000000" font-family="sans-serif" font-size="21.875" lengthAdjust="spacing" textLength="109.4177" x="20.3125" y="616.9708">MFXButton</text><text fill="#000000" font-family="sans-serif" font-size="21.875" lengthAdjust="spacing" textLength="121.5729" x="20.3125" y="644.4855">-btnServicos</text><text fill="#000000" font-family="sans-serif" font-size="21.875" lengthAdjust="spacing" textLength="6.0776" x="141.8854" y="644.4855">&#160;</text><text fill="#000000" font-family="sans-serif" font-size="21.875" lengthAdjust="spacing" textLength="6.0776" x="147.963" y="644.4855">:</text><text fill="#000000" font-family="sans-serif" font-size="21.875" lengthAdjust="spacing" textLength="109.4177" x="20.3125" y="672.0001">MFXButton</text><text fill="#000000" font-family="sans-serif" font-size="21.875" lengthAdjust="spacing" textLength="184.848" x="20.3125" y="699.5148">-btnAgendamentos</text><text fill="#000000" font-family="sans-serif" font-size="21.875" lengthAdjust="spacing" textLength="6.0776" x="20.3125" y="727.0294">:</text><text fill="#000000" font-family="sans-serif" font-size="21.875" lengthAdjust="spacing" textLength="6.0776" x="26.3901" y="727.0294">&#160;</text><text fill="#000000" font-family="sans-serif" font-size="21.875" lengthAdjust="spacing" textLength="109.4177" x="32.4677" y="727.0294">MFXButton</text><text fill="#000000" font-family="sans-serif" font-size="21.875" lengthAdjust="spacing" textLength="177.4887" x="20.3125" y="754.5441">-btnOrdemServico</text><text fill="#000000" font-family="sans-serif" font-size="21.875" lengthAdjust="spacing" textLength="6.0776" x="20.3125" y="782.0587">:</text><text fill="#000000" font-family="sans-serif" font-size="21.875" lengthAdjust="spacing" textLength="6.0776" x="26.3901" y="782.0587">&#160;</text><text fill="#000000" font-family="sans-serif" font-size="21.875" lengthAdjust="spacing" textLength="109.4177" x="32.4677" y="782.0587">MFXButton</text><text fill="#000000" font-family="sans-serif" font-size="21.875" lengthAdjust="spacing" textLength="181.1844" x="20.3125" y="809.5734">-btnColaboradores</text><text fill="#000000" font-family="sans-serif" font-size="21.875" lengthAdjust="spacing" textLength="6.0776" x="20.3125" y="837.088">:</text><text fill="#000000" font-family="sans-serif" font-size="21.875" lengthAdjust="spacing" textLength="6.0776" x="26.3901" y="837.088">&#160;</text><text fill="#000000" font-family="sans-serif" font-size="21.875" lengthAdjust="spacing" textLength="109.4177" x="32.4677" y="837.088">MFXButton</text><text fill="#000000" font-family="sans-serif" font-size="21.875" lengthAdjust="spacing" textLength="139.827" x="20.3125" y="864.6027">-btnFinanceiro</text><text fill="#000000" font-family="sans-serif" font-size="21.875" lengthAdjust="spacing" textLength="6.0776" x="160.1395" y="864.6027">&#160;</text><text fill="#000000" font-family="sans-serif" font-size="21.875" lengthAdjust="spacing" textLength="6.0776" x="166.217" y="864.6027">:</text><text fill="#000000" font-family="sans-serif" font-size="21.875" lengthAdjust="spacing" textLength="109.4177" x="20.3125" y="892.1173">MFXButton</text><text fill="#000000" font-family="sans-serif" font-size="21.875" lengthAdjust="spacing" textLength="139.827" x="20.3125" y="919.632">-adminSection</text><text fill="#000000" font-family="sans-serif" font-size="21.875" lengthAdjust="spacing" textLength="6.0776" x="160.1395" y="919.632">&#160;</text><text fill="#000000" font-family="sans-serif" font-size="21.875" lengthAdjust="spacing" textLength="6.0776" x="166.217" y="919.632">:</text><text fill="#000000" font-family="sans-serif" font-size="21.875" lengthAdjust="spacing" textLength="52.2842" x="20.3125" y="947.1466">VBox</text><line style="stroke:#181818;stroke-width:0.7813;" x1="12.5" x2="246.3837" y1="958.2031" y2="958.2031"/><text fill="#000000" font-family="sans-serif" font-size="21.875" lengthAdjust="spacing" textLength="214.595" x="20.3125" y="987.1613">+abrirColaboradores()</text><text fill="#000000" font-family="sans-serif" font-size="21.875" lengthAdjust="spacing" textLength="105.1559" x="20.3125" y="1014.6759">+initialize()</text><text fill="#000000" font-family="sans-serif" font-size="21.875" lengthAdjust="spacing" textLength="173.2376" x="20.3125" y="1042.1906">+abrirFinanceiro()</text><text fill="#000000" font-family="sans-serif" font-size="21.875" lengthAdjust="spacing" textLength="218.2587" x="20.3125" y="1069.7052">+abrirAgendamentos()</text><text fill="#000000" font-family="sans-serif" font-size="21.875" lengthAdjust="spacing" textLength="142.8391" x="20.3125" y="1097.2198">+abrirOrdens()</text><text fill="#000000" font-family="sans-serif" font-size="21.875" lengthAdjust="spacing" textLength="154.9835" x="20.3125" y="1124.7345">+abrirServicos()</text><text fill="#000000" font-family="sans-serif" font-size="21.875" lengthAdjust="spacing" textLength="150.1343" x="20.3125" y="1152.2491">+abrirClientes()</text><text fill="#000000" font-family="sans-serif" font-size="21.875" lengthAdjust="spacing" textLength="139.1861" x="20.3125" y="1179.7638">+abrirOficina()</text></g><!--class Entity--><g class="entity" data-entity="Entity" data-source-line="39" data-uid="ent0005" id="entity_Entity"><rect fill="#F1F1F1" height="240.0879" rx="3.9063" ry="3.9063" style="stroke:#181818;stroke-width:0.7813;" width="211.47" x="725.7813" y="10.9375"/><ellipse cx="805.3368" cy="35.9375" fill="#ADD1B2" rx="17.1875" ry="17.1875" style="stroke:#181818;stroke-width:1.5625;"/><path d="M809.6581,29.4922 Q809.9022,29.1504 810.1952,28.9795 Q810.4881,28.8086 810.8299,28.8086 Q811.4159,28.8086 811.7821,29.2236 Q812.1483,29.6143 812.1483,30.5664 L812.1483,32.8369 Q812.1483,33.7891 811.7821,34.2041 Q811.4159,34.6191 810.8299,34.6191 Q810.2928,34.6191 809.9754,34.3018 Q809.6581,34.0088 809.4872,33.2031 Q809.4139,32.6416 809.1209,32.3486 Q808.6082,31.7627 807.6561,31.4209 Q806.7039,31.0791 805.7274,31.0791 Q804.5311,31.0791 803.5301,31.5918 Q802.5536,32.1045 801.7723,33.2764 Q801.0155,34.4482 801.0155,36.0596 L801.0155,37.7686 Q801.0155,39.6973 802.4071,40.9912 Q803.7987,42.2607 806.2889,42.2607 Q807.7538,42.2607 808.7791,41.8701 Q809.3895,41.626 810.0487,40.9424 Q810.4637,40.5273 810.6834,40.4053 Q810.9276,40.2832 811.245,40.2832 Q811.7577,40.2832 812.1483,40.6982 Q812.5633,41.0889 812.5633,41.626 Q812.5633,42.1631 812.0262,42.7979 Q811.245,43.7012 809.9998,44.2139 Q808.3153,44.9219 806.2889,44.9219 Q803.9207,44.9219 802.0409,43.9453 Q800.5028,43.1641 799.4286,41.5039 Q798.3543,39.8193 798.3543,37.8174 L798.3543,36.0107 Q798.3543,33.9355 799.3065,32.1533 Q800.2831,30.3467 801.992,29.3945 Q803.701,28.418 805.6297,28.418 Q806.7772,28.418 807.7782,28.6865 Q808.8036,28.9307 809.6581,29.4922 Z " fill="#000000"/><text fill="#000000" font-family="Courier" font-size="15.625" lengthAdjust="spacing" textLength="39.0778" x="837.368" y="42.3309">Entity</text><line style="stroke:#181818;stroke-width:0.7813;" x1="727.3438" x2="935.6888" y1="60.9375" y2="60.9375"/><text fill="#000000" font-family="sans-serif" font-size="21.875" lengthAdjust="spacing" textLength="139.827" x="735.1563" y="89.8956">-atualizadoEm</text><text fill="#000000" font-family="sans-serif" font-size="21.875" lengthAdjust="spacing" textLength="6.0776" x="874.9832" y="89.8956">&#160;</text><text fill="#000000" font-family="sans-serif" font-size="21.875" lengthAdjust="spacing" textLength="6.0776" x="881.0608" y="89.8956">:</text><text fill="#000000" font-family="sans-serif" font-size="21.875" lengthAdjust="spacing" textLength="147.1115" x="735.1563" y="117.4103">LocalDateTime</text><line style="stroke:#181818;stroke-width:0.7813;" x1="727.3438" x2="935.6888" y1="128.4668" y2="128.4668"/><text fill="#000000" font-family="sans-serif" font-size="21.875" lengthAdjust="spacing" textLength="192.72" x="735.1563" y="157.4249">+getAtualizadoEm()</text><text fill="#000000" font-family="sans-serif" font-size="21.875" lengthAdjust="spacing" textLength="75.9964" x="735.1563" y="184.9396">+getId()</text><text fill="#000000" font-family="sans-serif" font-size="21.875" lengthAdjust="spacing" textLength="80.8563" x="735.1563" y="212.4542">+touch()</text><text fill="#000000" font-family="sans-serif" font-size="21.875" lengthAdjust="spacing" textLength="155.0049" x="735.1563" y="239.9689">+getCriadoEm()</text></g><!--class Agendamento--><g class="entity" data-entity="Agendamento" data-source-line="47" data-uid="ent0006" id="entity_Agendamento"><rect fill="#F1F1F1" height="955.4688" rx="3.9063" ry="3.9063" style="stroke:#181818;stroke-width:0.7813;" width="267.3752" x="303.9063" y="345.3125"/><ellipse cx="382.3044" cy="370.3125" fill="#ADD1B2" rx="17.1875" ry="17.1875" style="stroke:#181818;stroke-width:1.5625;"/><path d="M386.6257,363.8672 Q386.8698,363.5254 387.1628,363.3545 Q387.4557,363.1836 387.7975,363.1836 Q388.3835,363.1836 388.7497,363.5986 Q389.1159,363.9893 389.1159,364.9414 L389.1159,367.2119 Q389.1159,368.1641 388.7497,368.5791 Q388.3835,368.9941 387.7975,368.9941 Q387.2604,368.9941 386.9431,368.6768 Q386.6257,368.3838 386.4548,367.5781 Q386.3815,367.0166 386.0886,366.7236 Q385.5759,366.1377 384.6237,365.7959 Q383.6716,365.4541 382.695,365.4541 Q381.4987,365.4541 380.4977,365.9668 Q379.5212,366.4795 378.7399,367.6514 Q377.9831,368.8232 377.9831,370.4346 L377.9831,372.1436 Q377.9831,374.0723 379.3747,375.3662 Q380.7663,376.6357 383.2565,376.6357 Q384.7214,376.6357 385.7468,376.2451 Q386.3571,376.001 387.0163,375.3174 Q387.4313,374.9023 387.6511,374.7803 Q387.8952,374.6582 388.2126,374.6582 Q388.7253,374.6582 389.1159,375.0732 Q389.5309,375.4639 389.5309,376.001 Q389.5309,376.5381 388.9938,377.1729 Q388.2126,378.0762 386.9675,378.5889 Q385.2829,379.2969 383.2565,379.2969 Q380.8884,379.2969 379.0085,378.3203 Q377.4704,377.5391 376.3962,375.8789 Q375.322,374.1943 375.322,372.1924 L375.322,370.3857 Q375.322,368.3105 376.2741,366.5283 Q377.2507,364.7217 378.9597,363.7695 Q380.6686,362.793 382.5974,362.793 Q383.7448,362.793 384.7458,363.0615 Q385.7712,363.3057 386.6257,363.8672 Z " fill="#000000"/><text fill="#000000" font-family="Courier" font-size="15.625" lengthAdjust="spacing" textLength="97.2977" x="414.3356" y="376.7059">Agendamento</text><line style="stroke:#181818;stroke-width:0.7813;" x1="305.4688" x2="569.7189" y1="395.3125" y2="395.3125"/><text fill="#000000" font-family="sans-serif" font-size="21.875" lengthAdjust="spacing" textLength="49.8596" x="313.2813" y="424.2706">-data</text><text fill="#000000" font-family="sans-serif" font-size="21.875" lengthAdjust="spacing" textLength="6.0776" x="363.1409" y="424.2706">&#160;</text><text fill="#000000" font-family="sans-serif" font-size="21.875" lengthAdjust="spacing" textLength="6.0776" x="369.2184" y="424.2706">:</text><text fill="#000000" font-family="sans-serif" font-size="21.875" lengthAdjust="spacing" textLength="147.1115" x="313.2813" y="451.7853">LocalDateTime</text><text fill="#000000" font-family="sans-serif" font-size="21.875" lengthAdjust="spacing" textLength="194.5251" x="313.2813" y="479.2999">-descricaoProblema</text><text fill="#000000" font-family="sans-serif" font-size="21.875" lengthAdjust="spacing" textLength="6.0776" x="313.2813" y="506.8146">:</text><text fill="#000000" font-family="sans-serif" font-size="21.875" lengthAdjust="spacing" textLength="6.0776" x="319.3588" y="506.8146">&#160;</text><text fill="#000000" font-family="sans-serif" font-size="21.875" lengthAdjust="spacing" textLength="57.1442" x="325.4364" y="506.8146">String</text><text fill="#000000" font-family="sans-serif" font-size="21.875" lengthAdjust="spacing" textLength="65.6464" x="313.2813" y="534.3292">-status</text><text fill="#000000" font-family="sans-serif" font-size="21.875" lengthAdjust="spacing" textLength="6.0776" x="378.9276" y="534.3292">&#160;</text><text fill="#000000" font-family="sans-serif" font-size="21.875" lengthAdjust="spacing" textLength="6.0776" x="385.0052" y="534.3292">:</text><text fill="#000000" font-family="sans-serif" font-size="21.875" lengthAdjust="spacing" textLength="198.2315" x="313.2813" y="561.8439">StatusAgendamento</text><text fill="#000000" font-family="sans-serif" font-size="21.875" lengthAdjust="spacing" textLength="170.1935" x="313.2813" y="589.3585">-ordemDeServico</text><text fill="#000000" font-family="sans-serif" font-size="21.875" lengthAdjust="spacing" textLength="6.0776" x="313.2813" y="616.8732">:</text><text fill="#000000" font-family="sans-serif" font-size="21.875" lengthAdjust="spacing" textLength="6.0776" x="319.3588" y="616.8732">&#160;</text><text fill="#000000" font-family="sans-serif" font-size="21.875" lengthAdjust="spacing" textLength="53.4698" x="325.4364" y="616.8732">UUID</text><text fill="#000000" font-family="sans-serif" font-size="21.875" lengthAdjust="spacing" textLength="76.5732" x="313.2813" y="644.3878">-servico</text><text fill="#000000" font-family="sans-serif" font-size="21.875" lengthAdjust="spacing" textLength="6.0776" x="389.8544" y="644.3878">&#160;</text><text fill="#000000" font-family="sans-serif" font-size="21.875" lengthAdjust="spacing" textLength="6.0776" x="395.932" y="644.3878">:</text><text fill="#000000" font-family="sans-serif" font-size="21.875" lengthAdjust="spacing" textLength="6.0776" x="402.0096" y="644.3878">&#160;</text><text fill="#000000" font-family="sans-serif" font-size="21.875" lengthAdjust="spacing" textLength="53.4698" x="408.0872" y="644.3878">UUID</text><text fill="#000000" font-family="sans-serif" font-size="21.875" lengthAdjust="spacing" textLength="91.1957" x="313.2813" y="671.9025">-elevador</text><text fill="#000000" font-family="sans-serif" font-size="21.875" lengthAdjust="spacing" textLength="6.0776" x="404.4769" y="671.9025">&#160;</text><text fill="#000000" font-family="sans-serif" font-size="21.875" lengthAdjust="spacing" textLength="6.0776" x="410.5545" y="671.9025">:</text><text fill="#000000" font-family="sans-serif" font-size="21.875" lengthAdjust="spacing" textLength="53.4698" x="313.2813" y="699.4171">UUID</text><text fill="#000000" font-family="sans-serif" font-size="21.875" lengthAdjust="spacing" textLength="114.299" x="313.2813" y="726.9318">-funcionario</text><text fill="#000000" font-family="sans-serif" font-size="21.875" lengthAdjust="spacing" textLength="6.0776" x="427.5803" y="726.9318">&#160;</text><text fill="#000000" font-family="sans-serif" font-size="21.875" lengthAdjust="spacing" textLength="6.0776" x="433.6578" y="726.9318">:</text><text fill="#000000" font-family="sans-serif" font-size="21.875" lengthAdjust="spacing" textLength="53.4698" x="313.2813" y="754.4464">UUID</text><text fill="#000000" font-family="sans-serif" font-size="21.875" lengthAdjust="spacing" textLength="75.3769" x="313.2813" y="781.9611">-veiculo</text><text fill="#000000" font-family="sans-serif" font-size="21.875" lengthAdjust="spacing" textLength="6.0776" x="388.6581" y="781.9611">&#160;</text><text fill="#000000" font-family="sans-serif" font-size="21.875" lengthAdjust="spacing" textLength="6.0776" x="394.7357" y="781.9611">:</text><text fill="#000000" font-family="sans-serif" font-size="21.875" lengthAdjust="spacing" textLength="6.0776" x="400.8133" y="781.9611">&#160;</text><text fill="#000000" font-family="sans-serif" font-size="21.875" lengthAdjust="spacing" textLength="53.4698" x="406.8909" y="781.9611">UUID</text><line style="stroke:#181818;stroke-width:0.7813;" x1="305.4688" x2="569.7189" y1="793.0176" y2="793.0176"/><text fill="#000000" font-family="sans-serif" font-size="21.875" lengthAdjust="spacing" textLength="103.9597" x="313.2813" y="821.9757">+getData()</text><text fill="#000000" font-family="sans-serif" font-size="21.875" lengthAdjust="spacing" textLength="248.6252" x="313.2813" y="849.4904">+getDescricaoProblema()</text><text fill="#000000" font-family="sans-serif" font-size="21.875" lengthAdjust="spacing" textLength="247.3969" x="313.2813" y="877.005">+setDescricaoProblema()</text><text fill="#000000" font-family="sans-serif" font-size="21.875" lengthAdjust="spacing" textLength="118.5394" x="313.2813" y="904.5197">+setStatus()</text><text fill="#000000" font-family="sans-serif" font-size="21.875" lengthAdjust="spacing" textLength="172.052" x="313.2813" y="932.0343">+getFuncionario()</text><text fill="#000000" font-family="sans-serif" font-size="21.875" lengthAdjust="spacing" textLength="130.6946" x="313.2813" y="959.549">+getServico()</text><text fill="#000000" font-family="sans-serif" font-size="21.875" lengthAdjust="spacing" textLength="224.2828" x="313.2813" y="987.0636">+setOrdemDeServico()</text><text fill="#000000" font-family="sans-serif" font-size="21.875" lengthAdjust="spacing" textLength="142.8604" x="313.2813" y="1014.5782">+setElevador()</text><text fill="#000000" font-family="sans-serif" font-size="21.875" lengthAdjust="spacing" textLength="129.4983" x="313.2813" y="1042.0929">+getVeiculo()</text><text fill="#000000" font-family="sans-serif" font-size="21.875" lengthAdjust="spacing" textLength="102.7313" x="313.2813" y="1069.6075">+setData()</text><text fill="#000000" font-family="sans-serif" font-size="21.875" lengthAdjust="spacing" textLength="128.27" x="313.2813" y="1097.1222">+setVeiculo()</text><text fill="#000000" font-family="sans-serif" font-size="21.875" lengthAdjust="spacing" textLength="119.7678" x="313.2813" y="1124.6368">+getStatus()</text><text fill="#000000" font-family="sans-serif" font-size="21.875" lengthAdjust="spacing" textLength="225.5112" x="313.2813" y="1152.1515">+getOrdemDeServico()</text><text fill="#000000" font-family="sans-serif" font-size="21.875" lengthAdjust="spacing" textLength="170.8237" x="313.2813" y="1179.6661">+setFuncionario()</text><text fill="#000000" font-family="sans-serif" font-size="21.875" lengthAdjust="spacing" textLength="144.0887" x="313.2813" y="1207.1808">+getElevador()</text><text fill="#000000" font-family="sans-serif" font-size="21.875" lengthAdjust="spacing" textLength="137.9791" x="313.2813" y="1234.6954">+compareTo()</text><text fill="#000000" font-family="sans-serif" font-size="21.875" lengthAdjust="spacing" textLength="129.4662" x="313.2813" y="1262.2101">+setServico()</text><text fill="#000000" font-family="sans-serif" font-size="21.875" lengthAdjust="spacing" textLength="102.7313" x="313.2813" y="1289.7247">+toString()</text></g><!--class CategoriaDespesa--><g class="entity" data-entity="CategoriaDespesa" data-source-line="76" data-uid="ent0007" id="entity_CategoriaDespesa"><rect fill="#F1F1F1" height="130.0293" rx="3.9063" ry="3.9063" style="stroke:#181818;stroke-width:0.7813;" width="179.4174" x="625.7813" y="758.5938"/><ellipse cx="649.2188" cy="783.5938" fill="#ADD1B2" rx="17.1875" ry="17.1875" style="stroke:#181818;stroke-width:1.5625;"/><path d="M653.54,777.1484 Q653.7842,776.8066 654.0771,776.6357 Q654.3701,776.4648 654.7119,776.4648 Q655.2979,776.4648 655.6641,776.8799 Q656.0303,777.2705 656.0303,778.2227 L656.0303,780.4932 Q656.0303,781.4453 655.6641,781.8604 Q655.2979,782.2754 654.7119,782.2754 Q654.1748,782.2754 653.8574,781.958 Q653.54,781.665 653.3691,780.8594 Q653.2959,780.2979 653.0029,780.0049 Q652.4902,779.4189 651.5381,779.0771 Q650.5859,778.7354 649.6094,778.7354 Q648.4131,778.7354 647.4121,779.248 Q646.4355,779.7607 645.6543,780.9326 Q644.8975,782.1045 644.8975,783.7158 L644.8975,785.4248 Q644.8975,787.3535 646.2891,788.6475 Q647.6807,789.917 650.1709,789.917 Q651.6357,789.917 652.6611,789.5264 Q653.2715,789.2822 653.9307,788.5986 Q654.3457,788.1836 654.5654,788.0615 Q654.8096,787.9395 655.127,787.9395 Q655.6396,787.9395 656.0303,788.3545 Q656.4453,788.7451 656.4453,789.2822 Q656.4453,789.8193 655.9082,790.4541 Q655.127,791.3574 653.8818,791.8701 Q652.1973,792.5781 650.1709,792.5781 Q647.8027,792.5781 645.9229,791.6016 Q644.3848,790.8203 643.3105,789.1602 Q642.2363,787.4756 642.2363,785.4736 L642.2363,783.667 Q642.2363,781.5918 643.1885,779.8096 Q644.165,778.0029 645.874,777.0508 Q647.583,776.0742 649.5117,776.0742 Q650.6592,776.0742 651.6602,776.3428 Q652.6855,776.5869 653.54,777.1484 Z " fill="#000000"/><text fill="#000000" font-family="Courier" font-size="15.625" lengthAdjust="spacing" textLength="129.4174" x="671.0938" y="789.9872">CategoriaDespesa</text><line style="stroke:#181818;stroke-width:0.7813;" x1="627.3438" x2="803.6362" y1="808.5938" y2="808.5938"/><line style="stroke:#181818;stroke-width:0.7813;" x1="627.3438" x2="803.6362" y1="821.0938" y2="821.0938"/><text fill="#000000" font-family="sans-serif" font-size="21.875" lengthAdjust="spacing" textLength="111.2442" x="635.1563" y="850.0519">+getTitulo()</text><text fill="#000000" font-family="sans-serif" font-size="21.875" lengthAdjust="spacing" textLength="102.7313" x="635.1563" y="877.5665">+toString()</text></g><!--class Despesa--><g class="entity" data-entity="Despesa" data-source-line="81" data-uid="ent0008" id="entity_Despesa"><rect fill="#F1F1F1" height="322.6318" rx="3.9063" ry="3.9063" style="stroke:#181818;stroke-width:0.7813;" width="173.7549" x="860.1563" y="662.5"/><ellipse cx="911.5327" cy="687.5" fill="#ADD1B2" rx="17.1875" ry="17.1875" style="stroke:#181818;stroke-width:1.5625;"/><path d="M915.854,681.0547 Q916.0981,680.7129 916.3911,680.542 Q916.684,680.3711 917.0258,680.3711 Q917.6118,680.3711 917.978,680.7861 Q918.3442,681.1768 918.3442,682.1289 L918.3442,684.3994 Q918.3442,685.3516 917.978,685.7666 Q917.6118,686.1816 917.0258,686.1816 Q916.4887,686.1816 916.1713,685.8643 Q915.854,685.5713 915.6831,684.7656 Q915.6098,684.2041 915.3168,683.9111 Q914.8042,683.3252 913.852,682.9834 Q912.8999,682.6416 911.9233,682.6416 Q910.727,682.6416 909.726,683.1543 Q908.7495,683.667 907.9682,684.8389 Q907.2114,686.0107 907.2114,687.6221 L907.2114,689.3311 Q907.2114,691.2598 908.603,692.5537 Q909.9946,693.8232 912.4848,693.8232 Q913.9497,693.8232 914.9751,693.4326 Q915.5854,693.1885 916.2446,692.5049 Q916.6596,692.0898 916.8793,691.9678 Q917.1235,691.8457 917.4409,691.8457 Q917.9536,691.8457 918.3442,692.2607 Q918.7592,692.6514 918.7592,693.1885 Q918.7592,693.7256 918.2221,694.3604 Q917.4409,695.2637 916.1958,695.7764 Q914.5112,696.4844 912.4848,696.4844 Q910.1167,696.4844 908.2368,695.5078 Q906.6987,694.7266 905.6245,693.0664 Q904.5502,691.3818 904.5502,689.3799 L904.5502,687.5732 Q904.5502,685.498 905.5024,683.7158 Q906.479,681.9092 908.1879,680.957 Q909.8969,679.9805 911.8256,679.9805 Q912.9731,679.9805 913.9741,680.249 Q914.9995,680.4932 915.854,681.0547 Z " fill="#000000"/><text fill="#000000" font-family="Courier" font-size="15.625" lengthAdjust="spacing" textLength="61.6684" x="939.6163" y="693.8934">Despesa</text><line style="stroke:#181818;stroke-width:0.7813;" x1="861.7188" x2="1032.3486" y1="712.5" y2="712.5"/><text fill="#000000" font-family="sans-serif" font-size="21.875" lengthAdjust="spacing" textLength="100.9048" x="869.5313" y="741.4581">-descricao</text><text fill="#000000" font-family="sans-serif" font-size="21.875" lengthAdjust="spacing" textLength="6.0776" x="970.4361" y="741.4581">&#160;</text><text fill="#000000" font-family="sans-serif" font-size="21.875" lengthAdjust="spacing" textLength="6.0776" x="976.5137" y="741.4581">:</text><text fill="#000000" font-family="sans-serif" font-size="21.875" lengthAdjust="spacing" textLength="57.1442" x="869.5313" y="768.9728">String</text><text fill="#000000" font-family="sans-serif" font-size="21.875" lengthAdjust="spacing" textLength="54.6982" x="869.5313" y="796.4874">-valor</text><text fill="#000000" font-family="sans-serif" font-size="21.875" lengthAdjust="spacing" textLength="6.0776" x="924.2294" y="796.4874">&#160;</text><text fill="#000000" font-family="sans-serif" font-size="21.875" lengthAdjust="spacing" textLength="6.0776" x="930.307" y="796.4874">:</text><text fill="#000000" font-family="sans-serif" font-size="21.875" lengthAdjust="spacing" textLength="6.0776" x="936.3846" y="796.4874">&#160;</text><text fill="#000000" font-family="sans-serif" font-size="21.875" lengthAdjust="spacing" textLength="41.3467" x="942.4622" y="796.4874">float</text><line style="stroke:#181818;stroke-width:0.7813;" x1="861.7188" x2="1032.3486" y1="807.5439" y2="807.5439"/><text fill="#000000" font-family="sans-serif" font-size="21.875" lengthAdjust="spacing" textLength="152.6016" x="869.5313" y="836.5021">+getCategoria()</text><text fill="#000000" font-family="sans-serif" font-size="21.875" lengthAdjust="spacing" textLength="153.7766" x="869.5313" y="864.0167">+setDescricao()</text><text fill="#000000" font-family="sans-serif" font-size="21.875" lengthAdjust="spacing" textLength="155.0049" x="869.5313" y="891.5314">+getDescricao()</text><text fill="#000000" font-family="sans-serif" font-size="21.875" lengthAdjust="spacing" textLength="108.8196" x="869.5313" y="919.046">+getValor()</text><text fill="#000000" font-family="sans-serif" font-size="21.875" lengthAdjust="spacing" textLength="107.5912" x="869.5313" y="946.5607">+setValor()</text><text fill="#000000" font-family="sans-serif" font-size="21.875" lengthAdjust="spacing" textLength="102.7313" x="869.5313" y="974.0753">+toString()</text></g><!--class OrdemDeServico--><g class="entity" data-entity="OrdemDeServico" data-source-line="92" data-uid="ent0009" id="entity_OrdemDeServico"><rect fill="#F1F1F1" height="652.8076" rx="3.9063" ry="3.9063" style="stroke:#181818;stroke-width:0.7813;" width="255.2521" x="1088.2813" y="496.875"/><ellipse cx="1150.1599" cy="521.875" fill="#ADD1B2" rx="17.1875" ry="17.1875" style="stroke:#181818;stroke-width:1.5625;"/><path d="M1154.4812,515.4297 Q1154.7253,515.0879 1155.0183,514.917 Q1155.3113,514.7461 1155.6531,514.7461 Q1156.239,514.7461 1156.6052,515.1611 Q1156.9714,515.5518 1156.9714,516.5039 L1156.9714,518.7744 Q1156.9714,519.7266 1156.6052,520.1416 Q1156.239,520.5566 1155.6531,520.5566 Q1155.116,520.5566 1154.7986,520.2393 Q1154.4812,519.9463 1154.3103,519.1406 Q1154.2371,518.5791 1153.9441,518.2861 Q1153.4314,517.7002 1152.4792,517.3584 Q1151.5271,517.0166 1150.5505,517.0166 Q1149.3542,517.0166 1148.3533,517.5293 Q1147.3767,518.042 1146.5955,519.2139 Q1145.8386,520.3857 1145.8386,521.9971 L1145.8386,523.7061 Q1145.8386,525.6348 1147.2302,526.9287 Q1148.6218,528.1982 1151.1121,528.1982 Q1152.5769,528.1982 1153.6023,527.8076 Q1154.2126,527.5635 1154.8718,526.8799 Q1155.2869,526.4648 1155.5066,526.3428 Q1155.7507,526.2207 1156.0681,526.2207 Q1156.5808,526.2207 1156.9714,526.6357 Q1157.3865,527.0264 1157.3865,527.5635 Q1157.3865,528.1006 1156.8494,528.7354 Q1156.0681,529.6387 1154.823,530.1514 Q1153.1384,530.8594 1151.1121,530.8594 Q1148.7439,530.8594 1146.864,529.8828 Q1145.3259,529.1016 1144.2517,527.4414 Q1143.1775,525.7568 1143.1775,523.7549 L1143.1775,521.9482 Q1143.1775,519.873 1144.1296,518.0908 Q1145.1062,516.2842 1146.8152,515.332 Q1148.5242,514.3555 1150.4529,514.3555 Q1151.6003,514.3555 1152.6013,514.624 Q1153.6267,514.8682 1154.4812,515.4297 Z " fill="#000000"/><text fill="#000000" font-family="Courier" font-size="15.625" lengthAdjust="spacing" textLength="119.8273" x="1180.5774" y="528.2684">OrdemDeServico</text><line style="stroke:#181818;stroke-width:0.7813;" x1="1089.8438" x2="1341.9708" y1="546.875" y2="546.875"/><text fill="#000000" font-family="sans-serif" font-size="21.875" lengthAdjust="spacing" textLength="88.7604" x="1097.6563" y="575.8331">-clienteId</text><text fill="#000000" font-family="sans-serif" font-size="21.875" lengthAdjust="spacing" textLength="6.0776" x="1186.4166" y="575.8331">&#160;</text><text fill="#000000" font-family="sans-serif" font-size="21.875" lengthAdjust="spacing" textLength="6.0776" x="1192.4942" y="575.8331">:</text><text fill="#000000" font-family="sans-serif" font-size="21.875" lengthAdjust="spacing" textLength="53.4698" x="1097.6563" y="603.3478">UUID</text><text fill="#000000" font-family="sans-serif" font-size="21.875" lengthAdjust="spacing" textLength="65.6464" x="1097.6563" y="630.8624">-status</text><text fill="#000000" font-family="sans-serif" font-size="21.875" lengthAdjust="spacing" textLength="6.0776" x="1163.3026" y="630.8624">&#160;</text><text fill="#000000" font-family="sans-serif" font-size="21.875" lengthAdjust="spacing" textLength="6.0776" x="1169.3802" y="630.8624">:</text><text fill="#000000" font-family="sans-serif" font-size="21.875" lengthAdjust="spacing" textLength="229.7729" x="1097.6563" y="658.3771">StatusOrdemDeServico</text><text fill="#000000" font-family="sans-serif" font-size="21.875" lengthAdjust="spacing" textLength="132.5211" x="1097.6563" y="685.8917">-finalizadoEm</text><text fill="#000000" font-family="sans-serif" font-size="21.875" lengthAdjust="spacing" textLength="6.0776" x="1230.1773" y="685.8917">&#160;</text><text fill="#000000" font-family="sans-serif" font-size="21.875" lengthAdjust="spacing" textLength="6.0776" x="1236.2549" y="685.8917">:</text><text fill="#000000" font-family="sans-serif" font-size="21.875" lengthAdjust="spacing" textLength="147.1115" x="1097.6563" y="713.4064">LocalDateTime</text><line style="stroke:#181818;stroke-width:0.7813;" x1="1089.8438" x2="1341.9708" y1="724.4629" y2="724.4629"/><text fill="#000000" font-family="sans-serif" font-size="21.875" lengthAdjust="spacing" textLength="102.7313" x="1097.6563" y="753.421">+toString()</text><text fill="#000000" font-family="sans-serif" font-size="21.875" lengthAdjust="spacing" textLength="190.274" x="1097.6563" y="780.9357">+getFinalizadoEm()</text><text fill="#000000" font-family="sans-serif" font-size="21.875" lengthAdjust="spacing" textLength="113.7009" x="1097.6563" y="808.4503">+addPeca()</text><text fill="#000000" font-family="sans-serif" font-size="21.875" lengthAdjust="spacing" textLength="136.7828" x="1097.6563" y="835.965">+addServico()</text><text fill="#000000" font-family="sans-serif" font-size="21.875" lengthAdjust="spacing" textLength="118.5394" x="1097.6563" y="863.4796">+setStatus()</text><text fill="#000000" font-family="sans-serif" font-size="21.875" lengthAdjust="spacing" textLength="200.058" x="1097.6563" y="890.9943">+addAgendamento()</text><text fill="#000000" font-family="sans-serif" font-size="21.875" lengthAdjust="spacing" textLength="236.5021" x="1097.6563" y="918.5089">+removeAgendamento()</text><text fill="#000000" font-family="sans-serif" font-size="21.875" lengthAdjust="spacing" textLength="207.2678" x="1097.6563" y="946.0236">+removeServicoPor()</text><text fill="#000000" font-family="sans-serif" font-size="21.875" lengthAdjust="spacing" textLength="144.0887" x="1097.6563" y="973.5382">+getClienteId()</text><text fill="#000000" font-family="sans-serif" font-size="21.875" lengthAdjust="spacing" textLength="119.7678" x="1097.6563" y="1001.0529">+getStatus()</text><text fill="#000000" font-family="sans-serif" font-size="21.875" lengthAdjust="spacing" textLength="150.145" x="1097.6563" y="1028.5675">+removePeca()</text><text fill="#000000" font-family="sans-serif" font-size="21.875" lengthAdjust="spacing" textLength="204.9072" x="1097.6563" y="1056.0822">+getAgendamentos()</text><text fill="#000000" font-family="sans-serif" font-size="21.875" lengthAdjust="spacing" textLength="142.8604" x="1097.6563" y="1083.5968">+setClienteId()</text><text fill="#000000" font-family="sans-serif" font-size="21.875" lengthAdjust="spacing" textLength="141.6321" x="1097.6563" y="1111.1115">+getServicos()</text><text fill="#000000" font-family="sans-serif" font-size="21.875" lengthAdjust="spacing" textLength="118.5501" x="1097.6563" y="1138.6261">+getPecas()</text></g><!--reverse link Entity to Agendamento--><g class="link" data-entity-1="Entity" data-entity-2="Agendamento" data-source-line="113" data-uid="lnk10" id="link_Entity_Agendamento"><path codeLine="113" d="M697.4844,245.3125 C600.1563,245.3125 498.8281,245.3125 498.8281,245.3125 C498.8281,245.3125 498.8281,285.5 498.8281,344.7031" fill="none" id="Entity-backto-Agendamento" style="stroke:#181818;stroke-width:1.5625;"/><polygon fill="none" points="725.6094,245.3125,697.4844,235.9375,697.4844,254.6875,725.6094,245.3125" style="stroke:#181818;stroke-width:1.5625;"/></g><!--reverse link Entity to CategoriaDespesa--><g class="link" data-entity-1="Entity" data-entity-2="CategoriaDespesa" data-source-line="114" data-uid="lnk11" id="link_Entity_CategoriaDespesa"><path codeLine="114" d="M765.625,279.9375 C765.625,427.125 765.625,642.5781 765.625,758.3906" fill="none" id="Entity-backto-CategoriaDespesa" style="stroke:#181818;stroke-width:1.5625;"/><polygon fill="none" points="765.625,251.8125,756.25,279.9375,775,279.9375,765.625,251.8125" style="stroke:#181818;stroke-width:1.5625;"/></g><!--reverse link Entity to Despesa--><g class="link" data-entity-1="Entity" data-entity-2="Despesa" data-source-line="115" data-uid="lnk12" id="link_Entity_Despesa"><path codeLine="115" d="M885.6719,279.9375 C885.6719,393.625 885.6719,536.6875 885.6719,662.0938" fill="none" id="Entity-backto-Despesa" style="stroke:#181818;stroke-width:1.5625;"/><polygon fill="none" points="885.6719,251.8125,876.2969,279.9375,895.0469,279.9375,885.6719,251.8125" style="stroke:#181818;stroke-width:1.5625;"/></g><!--reverse link Entity to OrdemDeServico--><g class="link" data-entity-1="Entity" data-entity-2="OrdemDeServico" data-source-line="116" data-uid="lnk13" id="link_Entity_OrdemDeServico"><path codeLine="116" d="M911.2031,280.1406 C911.2031,412.9531 911.2031,579.6875 911.2031,579.6875 C911.2031,579.6875 1004.5313,579.6875 1087.8438,579.6875" fill="none" id="Entity-backto-OrdemDeServico" style="stroke:#181818;stroke-width:1.5625;"/><polygon fill="none" points="911.2031,252.0156,901.8281,280.1406,920.5781,280.1406,911.2031,252.0156" style="stroke:#181818;stroke-width:1.5625;"/></g><!--SRC=[VLN9Rjim4BtxAuYSMXG1aaClHI-970C6ciP0blPAKHDdK8fZa2EdITj_xsYZg2MvKU_D_ePK-8NkeBqkLN50TVxvR1KYOgmEuOBPOrunR0svMtm5DJFPaEE6EL-alkiIL4QLH_09_-pruGSM_2HkPokcWs9IEJ6Jr88U32EvnDwY0tuvW2BFJxHQDV7LDHZjqEXB7K3zMVthySmYE8PCydko5hoGIdqo7hN_yB4-UYZf2Ds7vafRVEqvYu7xSru5e_sE_BOG82QurkWU49ud6KvLpgvB7jGNTRtvULb9JwxdRXxHeDDBr2tu8nfQTBlOWojaa8wN-HjVGDa5ME8piZedhmlootLjf2Xd0FtSNHSbId6D848-NDBlPcQvHp-AsmuC7JBMquHkjhNT43u1qwOIkEx5fK0_c0JgHvowjPDDHJgvSepySj99qwjSq5KfZNmZe-rQCznX2NMOFV15OjB65h1HNevCbNcAQ2Qxr9d5X4b7NSv2irx89GG4sKQZQUSfjr3MLhTorzo-eMK1kGeDLX-Im0rDjTvh61I_lz-kMySv11QEjK8fzbWv8tfgZoFJ8w2fR0BLdKhTEhQzdjRTCk4zfkqXXjWCkIFMTH9TRaODHlYgQoNwFRG53qN4MiE4tC_gU2F7KddZl8PAUPJWRl0PnM1gXKmt8nFjzoGh8rCwGD3jUoIHxv1ZYKkEgNsoDUDjEMhRoFjeINE_dtt6kK1pCOTvrf660GvVIxMD1zYLQDghkIr6MpbUvx5Zkv1oTz-xd4d-ReiIX-uPA8gT_0_YnrJOL7wXapkL_XBUWBjWksJtihxJnGLhtOQ2wjTbzk25nIYZzqw0EaXe1n-VjAz_Jq_JzsR2JFTjGY-Z4rd-0m00]--></g></svg>