<svg xmlns="http://www.w3.org/2000/svg" xmlns:xlink="http://www.w3.org/1999/xlink" contentStyleType="text/css" data-diagram-type="CLASS" height="845.3125px" preserveAspectRatio="none" style="width:879px;height:845px;background:#FFFFFF;" version="1.1" viewBox="0 0 879 845" width="879.6875px" zoomAndPan="magnify"><defs/><g><!--class Database--><g class="entity" data-entity="Database" data-source-line="9" data-uid="ent0002" id="entity_Database"><rect fill="#F1F1F1" height="75" rx="3.9063" ry="3.9063" style="stroke:#181818;stroke-width:0.7813;" width="116.8869" x="83.5938" y="79.6875"/><ellipse cx="107.0313" cy="104.6875" fill="#ADD1B2" rx="17.1875" ry="17.1875" style="stroke:#181818;stroke-width:1.5625;"/><path d="M111.3525,98.2422 Q111.5967,97.9004 111.8896,97.7295 Q112.1826,97.5586 112.5244,97.5586 Q113.1104,97.5586 113.4766,97.9736 Q113.8428,98.3643 113.8428,99.3164 L113.8428,101.5869 Q113.8428,102.5391 113.4766,102.9541 Q113.1104,103.3691 112.5244,103.3691 Q111.9873,103.3691 111.6699,103.0518 Q111.3525,102.7588 111.1816,101.9531 Q111.1084,101.3916 110.8154,101.0986 Q110.3027,100.5127 109.3506,100.1709 Q108.3984,99.8291 107.4219,99.8291 Q106.2256,99.8291 105.2246,100.3418 Q104.248,100.8545 103.4668,102.0264 Q102.71,103.1982 102.71,104.8096 L102.71,106.5186 Q102.71,108.4473 104.1016,109.7412 Q105.4932,111.0107 107.9834,111.0107 Q109.4482,111.0107 110.4736,110.6201 Q111.084,110.376 111.7432,109.6924 Q112.1582,109.2773 112.3779,109.1553 Q112.6221,109.0332 112.9395,109.0332 Q113.4521,109.0332 113.8428,109.4482 Q114.2578,109.8389 114.2578,110.376 Q114.2578,110.9131 113.7207,111.5479 Q112.9395,112.4512 111.6943,112.9639 Q110.0098,113.6719 107.9834,113.6719 Q105.6152,113.6719 103.7354,112.6953 Q102.1973,111.9141 101.123,110.2539 Q100.0488,108.5693 100.0488,106.5674 L100.0488,104.7607 Q100.0488,102.6855 101.001,100.9033 Q101.9775,99.0967 103.6865,98.1445 Q105.3955,97.168 107.3242,97.168 Q108.4717,97.168 109.4727,97.4365 Q110.498,97.6807 111.3525,98.2422 Z " fill="#000000"/><text fill="#000000" font-family="Courier" font-size="15.625" lengthAdjust="spacing" textLength="66.8869" x="128.9063" y="111.0809">Database</text><line style="stroke:#181818;stroke-width:0.7813;" x1="85.1563" x2="198.9182" y1="129.6875" y2="129.6875"/><line style="stroke:#181818;stroke-width:0.7813;" x1="85.1563" x2="198.9182" y1="142.1875" y2="142.1875"/></g><!--class AgendamentoTerminalHandler--><g class="entity" data-entity="AgendamentoTerminalHandler" data-source-line="12" data-uid="ent0003" id="entity_AgendamentoTerminalHandler"><rect fill="#F1F1F1" height="212.5732" rx="3.9063" ry="3.9063" style="stroke:#181818;stroke-width:0.7813;" width="262.7914" x="256.25" y="10.9375"/><ellipse cx="279.6875" cy="35.9375" fill="#ADD1B2" rx="17.1875" ry="17.1875" style="stroke:#181818;stroke-width:1.5625;"/><path d="M284.0088,29.4922 Q284.2529,29.1504 284.5459,28.9795 Q284.8389,28.8086 285.1807,28.8086 Q285.7666,28.8086 286.1328,29.2236 Q286.499,29.6143 286.499,30.5664 L286.499,32.8369 Q286.499,33.7891 286.1328,34.2041 Q285.7666,34.6191 285.1807,34.6191 Q284.6436,34.6191 284.3262,34.3018 Q284.0088,34.0088 283.8379,33.2031 Q283.7646,32.6416 283.4717,32.3486 Q282.959,31.7627 282.0068,31.4209 Q281.0547,31.0791 280.0781,31.0791 Q278.8818,31.0791 277.8809,31.5918 Q276.9043,32.1045 276.123,33.2764 Q275.3662,34.4482 275.3662,36.0596 L275.3662,37.7686 Q275.3662,39.6973 276.7578,40.9912 Q278.1494,42.2607 280.6396,42.2607 Q282.1045,42.2607 283.1299,41.8701 Q283.7402,41.626 284.3994,40.9424 Q284.8145,40.5273 285.0342,40.4053 Q285.2783,40.2832 285.5957,40.2832 Q286.1084,40.2832 286.499,40.6982 Q286.9141,41.0889 286.9141,41.626 Q286.9141,42.1631 286.377,42.7979 Q285.5957,43.7012 284.3506,44.2139 Q282.666,44.9219 280.6396,44.9219 Q278.2715,44.9219 276.3916,43.9453 Q274.8535,43.1641 273.7793,41.5039 Q272.7051,39.8193 272.7051,37.8174 L272.7051,36.0107 Q272.7051,33.9355 273.6572,32.1533 Q274.6338,30.3467 276.3428,29.3945 Q278.0518,28.418 279.9805,28.418 Q281.1279,28.418 282.1289,28.6865 Q283.1543,28.9307 284.0088,29.4922 Z " fill="#000000"/><text fill="#000000" font-family="Courier" font-size="15.625" lengthAdjust="spacing" textLength="212.7914" x="301.5625" y="42.3309">AgendamentoTerminalHandler</text><line style="stroke:#181818;stroke-width:0.7813;" x1="257.8125" x2="517.4789" y1="60.9375" y2="60.9375"/><line style="stroke:#181818;stroke-width:0.7813;" x1="257.8125" x2="517.4789" y1="73.4375" y2="73.4375"/><text fill="#000000" font-family="sans-serif" font-size="21.875" lengthAdjust="spacing" textLength="69.8761" x="265.625" y="102.3956">+criar()</text><text fill="#000000" font-family="sans-serif" font-size="21.875" lengthAdjust="spacing" textLength="110.0266" x="265.625" y="129.9103">+cancelar()</text><text fill="#000000" font-family="sans-serif" font-size="21.875" lengthAdjust="spacing" textLength="73.5291" x="265.625" y="157.4249">+listar()</text><text fill="#000000" font-family="sans-serif" font-size="21.875" lengthAdjust="spacing" textLength="82.0633" x="265.625" y="184.9396">+menu()</text><text fill="#000000" font-family="sans-serif" font-size="21.875" lengthAdjust="spacing" textLength="172.0413" x="265.625" y="212.4542">+atualizarStatus()</text></g><!--class CategoriaDespesaTerminalHandler--><g class="entity" data-entity="CategoriaDespesaTerminalHandler" data-source-line="20" data-uid="ent0004" id="entity_CategoriaDespesaTerminalHandler"><rect fill="#F1F1F1" height="212.5732" rx="3.9063" ry="3.9063" style="stroke:#181818;stroke-width:0.7813;" width="294.9112" x="574.2188" y="10.9375"/><ellipse cx="597.6563" cy="35.9375" fill="#ADD1B2" rx="17.1875" ry="17.1875" style="stroke:#181818;stroke-width:1.5625;"/><path d="M601.9775,29.4922 Q602.2217,29.1504 602.5146,28.9795 Q602.8076,28.8086 603.1494,28.8086 Q603.7354,28.8086 604.1016,29.2236 Q604.4678,29.6143 604.4678,30.5664 L604.4678,32.8369 Q604.4678,33.7891 604.1016,34.2041 Q603.7354,34.6191 603.1494,34.6191 Q602.6123,34.6191 602.2949,34.3018 Q601.9775,34.0088 601.8066,33.2031 Q601.7334,32.6416 601.4404,32.3486 Q600.9277,31.7627 599.9756,31.4209 Q599.0234,31.0791 598.0469,31.0791 Q596.8506,31.0791 595.8496,31.5918 Q594.873,32.1045 594.0918,33.2764 Q593.335,34.4482 593.335,36.0596 L593.335,37.7686 Q593.335,39.6973 594.7266,40.9912 Q596.1182,42.2607 598.6084,42.2607 Q600.0732,42.2607 601.0986,41.8701 Q601.709,41.626 602.3682,40.9424 Q602.7832,40.5273 603.0029,40.4053 Q603.2471,40.2832 603.5645,40.2832 Q604.0771,40.2832 604.4678,40.6982 Q604.8828,41.0889 604.8828,41.626 Q604.8828,42.1631 604.3457,42.7979 Q603.5645,43.7012 602.3193,44.2139 Q600.6348,44.9219 598.6084,44.9219 Q596.2402,44.9219 594.3604,43.9453 Q592.8223,43.1641 591.748,41.5039 Q590.6738,39.8193 590.6738,37.8174 L590.6738,36.0107 Q590.6738,33.9355 591.626,32.1533 Q592.6025,30.3467 594.3115,29.3945 Q596.0205,28.418 597.9492,28.418 Q599.0967,28.418 600.0977,28.6865 Q601.123,28.9307 601.9775,29.4922 Z " fill="#000000"/><text fill="#000000" font-family="Courier" font-size="15.625" lengthAdjust="spacing" textLength="244.9112" x="619.5313" y="42.3309">CategoriaDespesaTerminalHandler</text><line style="stroke:#181818;stroke-width:0.7813;" x1="575.7813" x2="867.5674" y1="60.9375" y2="60.9375"/><line style="stroke:#181818;stroke-width:0.7813;" x1="575.7813" x2="867.5674" y1="73.4375" y2="73.4375"/><text fill="#000000" font-family="sans-serif" font-size="21.875" lengthAdjust="spacing" textLength="69.8761" x="583.5938" y="102.3956">+criar()</text><text fill="#000000" font-family="sans-serif" font-size="21.875" lengthAdjust="spacing" textLength="107.5699" x="583.5938" y="129.9103">+remover()</text><text fill="#000000" font-family="sans-serif" font-size="21.875" lengthAdjust="spacing" textLength="110.0266" x="583.5938" y="157.4249">+atualizar()</text><text fill="#000000" font-family="sans-serif" font-size="21.875" lengthAdjust="spacing" textLength="73.5291" x="583.5938" y="184.9396">+listar()</text><text fill="#000000" font-family="sans-serif" font-size="21.875" lengthAdjust="spacing" textLength="82.0633" x="583.5938" y="212.4542">+menu()</text></g><!--class ClienteTerminalHandler--><g class="entity" data-entity="ClienteTerminalHandler" data-source-line="28" data-uid="ent0005" id="entity_ClienteTerminalHandler"><rect fill="#F1F1F1" height="240.0879" rx="3.9063" ry="3.9063" style="stroke:#181818;stroke-width:0.7813;" width="214.1312" x="35.1563" y="357.8125"/><ellipse cx="58.5938" cy="382.8125" fill="#ADD1B2" rx="17.1875" ry="17.1875" style="stroke:#181818;stroke-width:1.5625;"/><path d="M62.915,376.3672 Q63.1592,376.0254 63.4521,375.8545 Q63.7451,375.6836 64.0869,375.6836 Q64.6729,375.6836 65.0391,376.0986 Q65.4053,376.4893 65.4053,377.4414 L65.4053,379.7119 Q65.4053,380.6641 65.0391,381.0791 Q64.6729,381.4941 64.0869,381.4941 Q63.5498,381.4941 63.2324,381.1768 Q62.915,380.8838 62.7441,380.0781 Q62.6709,379.5166 62.3779,379.2236 Q61.8652,378.6377 60.9131,378.2959 Q59.9609,377.9541 58.9844,377.9541 Q57.7881,377.9541 56.7871,378.4668 Q55.8105,378.9795 55.0293,380.1514 Q54.2725,381.3232 54.2725,382.9346 L54.2725,384.6436 Q54.2725,386.5723 55.6641,387.8662 Q57.0557,389.1357 59.5459,389.1357 Q61.0107,389.1357 62.0361,388.7451 Q62.6465,388.501 63.3057,387.8174 Q63.7207,387.4023 63.9404,387.2803 Q64.1846,387.1582 64.502,387.1582 Q65.0146,387.1582 65.4053,387.5732 Q65.8203,387.9639 65.8203,388.501 Q65.8203,389.0381 65.2832,389.6729 Q64.502,390.5762 63.2568,391.0889 Q61.5723,391.7969 59.5459,391.7969 Q57.1777,391.7969 55.2979,390.8203 Q53.7598,390.0391 52.6855,388.3789 Q51.6113,386.6943 51.6113,384.6924 L51.6113,382.8857 Q51.6113,380.8105 52.5635,379.0283 Q53.54,377.2217 55.249,376.2695 Q56.958,375.293 58.8867,375.293 Q60.0342,375.293 61.0352,375.5615 Q62.0605,375.8057 62.915,376.3672 Z " fill="#000000"/><text fill="#000000" font-family="Courier" font-size="15.625" lengthAdjust="spacing" textLength="164.1312" x="80.4688" y="389.2059">ClienteTerminalHandler</text><line style="stroke:#181818;stroke-width:0.7813;" x1="36.7188" x2="247.7249" y1="407.8125" y2="407.8125"/><line style="stroke:#181818;stroke-width:0.7813;" x1="36.7188" x2="247.7249" y1="420.3125" y2="420.3125"/><text fill="#000000" font-family="sans-serif" font-size="21.875" lengthAdjust="spacing" textLength="69.8761" x="44.5313" y="449.2706">+criar()</text><text fill="#000000" font-family="sans-serif" font-size="21.875" lengthAdjust="spacing" textLength="107.5699" x="44.5313" y="476.7853">+remover()</text><text fill="#000000" font-family="sans-serif" font-size="21.875" lengthAdjust="spacing" textLength="110.0266" x="44.5313" y="504.2999">+atualizar()</text><text fill="#000000" font-family="sans-serif" font-size="21.875" lengthAdjust="spacing" textLength="73.5291" x="44.5313" y="531.8146">+listar()</text><text fill="#000000" font-family="sans-serif" font-size="21.875" lengthAdjust="spacing" textLength="93.0008" x="44.5313" y="559.3292">+buscar()</text><text fill="#000000" font-family="sans-serif" font-size="21.875" lengthAdjust="spacing" textLength="82.0633" x="44.5313" y="586.8439">+menu()</text></g><!--class ColaboradorTerminalHandler--><g class="entity" data-entity="ColaboradorTerminalHandler" data-source-line="37" data-uid="ent0006" id="entity_ColaboradorTerminalHandler"><rect fill="#F1F1F1" height="322.6318" rx="3.9063" ry="3.9063" style="stroke:#181818;stroke-width:0.7813;" width="263.7222" x="303.9063" y="317.1875"/><ellipse cx="332.8506" cy="342.1875" fill="#ADD1B2" rx="17.1875" ry="17.1875" style="stroke:#181818;stroke-width:1.5625;"/><path d="M337.1719,335.7422 Q337.4161,335.4004 337.709,335.2295 Q338.002,335.0586 338.3438,335.0586 Q338.9297,335.0586 339.296,335.4736 Q339.6622,335.8643 339.6622,336.8164 L339.6622,339.0869 Q339.6622,340.0391 339.296,340.4541 Q338.9297,340.8691 338.3438,340.8691 Q337.8067,340.8691 337.4893,340.5518 Q337.1719,340.2588 337.001,339.4531 Q336.9278,338.8916 336.6348,338.5986 Q336.1221,338.0127 335.17,337.6709 Q334.2178,337.3291 333.2413,337.3291 Q332.045,337.3291 331.044,337.8418 Q330.0674,338.3545 329.2862,339.5264 Q328.5294,340.6982 328.5294,342.3096 L328.5294,344.0186 Q328.5294,345.9473 329.921,347.2412 Q331.3126,348.5107 333.8028,348.5107 Q335.2676,348.5107 336.293,348.1201 Q336.9034,347.876 337.5626,347.1924 Q337.9776,346.7773 338.1973,346.6553 Q338.4415,346.5332 338.7589,346.5332 Q339.2715,346.5332 339.6622,346.9482 Q340.0772,347.3389 340.0772,347.876 Q340.0772,348.4131 339.5401,349.0479 Q338.7589,349.9512 337.5137,350.4639 Q335.8292,351.1719 333.8028,351.1719 Q331.4346,351.1719 329.5547,350.1953 Q328.0167,349.4141 326.9424,347.7539 Q325.8682,346.0693 325.8682,344.0674 L325.8682,342.2607 Q325.8682,340.1855 326.8204,338.4033 Q327.7969,336.5967 329.5059,335.6445 Q331.2149,334.668 333.1436,334.668 Q334.2911,334.668 335.2921,334.9365 Q336.3174,335.1807 337.1719,335.7422 Z " fill="#000000"/><text fill="#000000" font-family="Courier" font-size="15.625" lengthAdjust="spacing" textLength="201.4847" x="355.9494" y="348.5809">ColaboradorTerminalHandler</text><line style="stroke:#181818;stroke-width:0.7813;" x1="305.4688" x2="566.066" y1="367.1875" y2="367.1875"/><line style="stroke:#181818;stroke-width:0.7813;" x1="305.4688" x2="566.066" y1="379.6875" y2="379.6875"/><text fill="#000000" font-family="sans-serif" font-size="21.875" lengthAdjust="spacing" textLength="231.5781" x="313.2813" y="408.6456">+listarAdministradores()</text><text fill="#000000" font-family="sans-serif" font-size="21.875" lengthAdjust="spacing" textLength="198.7656" x="313.2813" y="436.1603">+listarFuncionarios()</text><text fill="#000000" font-family="sans-serif" font-size="21.875" lengthAdjust="spacing" textLength="184.1751" x="313.2813" y="463.6749">+criarFuncionario()</text><text fill="#000000" font-family="sans-serif" font-size="21.875" lengthAdjust="spacing" textLength="204.8218" x="313.2813" y="491.1896">+criarAdministrador()</text><text fill="#000000" font-family="sans-serif" font-size="21.875" lengthAdjust="spacing" textLength="82.0633" x="313.2813" y="518.7042">+menu()</text><text fill="#000000" font-family="sans-serif" font-size="21.875" lengthAdjust="spacing" textLength="244.9722" x="313.2813" y="546.2189">+atualizarAdministrador()</text><text fill="#000000" font-family="sans-serif" font-size="21.875" lengthAdjust="spacing" textLength="242.5156" x="313.2813" y="573.7335">+removerAdministrador()</text><text fill="#000000" font-family="sans-serif" font-size="21.875" lengthAdjust="spacing" textLength="224.3256" x="313.2813" y="601.2482">+atualizarFuncionario()</text><text fill="#000000" font-family="sans-serif" font-size="21.875" lengthAdjust="spacing" textLength="221.8689" x="313.2813" y="628.7628">+removerFuncionario()</text></g><!--class DespesaTerminalHandler--><g class="entity" data-entity="DespesaTerminalHandler" data-source-line="49" data-uid="ent0007" id="entity_DespesaTerminalHandler"><rect fill="#F1F1F1" height="212.5732" rx="3.9063" ry="3.9063" style="stroke:#181818;stroke-width:0.7813;" width="227.1622" x="622.6563" y="371.875"/><ellipse cx="646.0938" cy="396.875" fill="#ADD1B2" rx="17.1875" ry="17.1875" style="stroke:#181818;stroke-width:1.5625;"/><path d="M650.415,390.4297 Q650.6592,390.0879 650.9521,389.917 Q651.2451,389.7461 651.5869,389.7461 Q652.1729,389.7461 652.5391,390.1611 Q652.9053,390.5518 652.9053,391.5039 L652.9053,393.7744 Q652.9053,394.7266 652.5391,395.1416 Q652.1729,395.5566 651.5869,395.5566 Q651.0498,395.5566 650.7324,395.2393 Q650.415,394.9463 650.2441,394.1406 Q650.1709,393.5791 649.8779,393.2861 Q649.3652,392.7002 648.4131,392.3584 Q647.4609,392.0166 646.4844,392.0166 Q645.2881,392.0166 644.2871,392.5293 Q643.3105,393.042 642.5293,394.2139 Q641.7725,395.3857 641.7725,396.9971 L641.7725,398.7061 Q641.7725,400.6348 643.1641,401.9287 Q644.5557,403.1982 647.0459,403.1982 Q648.5107,403.1982 649.5361,402.8076 Q650.1465,402.5635 650.8057,401.8799 Q651.2207,401.4648 651.4404,401.3428 Q651.6846,401.2207 652.002,401.2207 Q652.5146,401.2207 652.9053,401.6357 Q653.3203,402.0264 653.3203,402.5635 Q653.3203,403.1006 652.7832,403.7354 Q652.002,404.6387 650.7568,405.1514 Q649.0723,405.8594 647.0459,405.8594 Q644.6777,405.8594 642.7979,404.8828 Q641.2598,404.1016 640.1855,402.4414 Q639.1113,400.7568 639.1113,398.7549 L639.1113,396.9482 Q639.1113,394.873 640.0635,393.0908 Q641.04,391.2842 642.749,390.332 Q644.458,389.3555 646.3867,389.3555 Q647.5342,389.3555 648.5352,389.624 Q649.5605,389.8682 650.415,390.4297 Z " fill="#000000"/><text fill="#000000" font-family="Courier" font-size="15.625" lengthAdjust="spacing" textLength="177.1622" x="667.9688" y="403.2684">DespesaTerminalHandler</text><line style="stroke:#181818;stroke-width:0.7813;" x1="624.2188" x2="848.2559" y1="421.875" y2="421.875"/><line style="stroke:#181818;stroke-width:0.7813;" x1="624.2188" x2="848.2559" y1="434.375" y2="434.375"/><text fill="#000000" font-family="sans-serif" font-size="21.875" lengthAdjust="spacing" textLength="69.8761" x="632.0313" y="463.3331">+criar()</text><text fill="#000000" font-family="sans-serif" font-size="21.875" lengthAdjust="spacing" textLength="107.5699" x="632.0313" y="490.8478">+remover()</text><text fill="#000000" font-family="sans-serif" font-size="21.875" lengthAdjust="spacing" textLength="110.0266" x="632.0313" y="518.3624">+atualizar()</text><text fill="#000000" font-family="sans-serif" font-size="21.875" lengthAdjust="spacing" textLength="73.5291" x="632.0313" y="545.8771">+listar()</text><text fill="#000000" font-family="sans-serif" font-size="21.875" lengthAdjust="spacing" textLength="82.0633" x="632.0313" y="573.3917">+menu()</text></g><!--class GerarBalancoTerminalHandler--><g class="entity" data-entity="GerarBalancoTerminalHandler" data-source-line="57" data-uid="ent0008" id="entity_GerarBalancoTerminalHandler"><rect fill="#F1F1F1" height="102.5146" rx="3.9063" ry="3.9063" style="stroke:#181818;stroke-width:0.7813;" width="261.8988" x="10.9375" y="732.8125"/><ellipse cx="34.375" cy="757.8125" fill="#ADD1B2" rx="17.1875" ry="17.1875" style="stroke:#181818;stroke-width:1.5625;"/><path d="M38.6963,751.3672 Q38.9404,751.0254 39.2334,750.8545 Q39.5264,750.6836 39.8682,750.6836 Q40.4541,750.6836 40.8203,751.0986 Q41.1865,751.4893 41.1865,752.4414 L41.1865,754.7119 Q41.1865,755.6641 40.8203,756.0791 Q40.4541,756.4941 39.8682,756.4941 Q39.3311,756.4941 39.0137,756.1768 Q38.6963,755.8838 38.5254,755.0781 Q38.4521,754.5166 38.1592,754.2236 Q37.6465,753.6377 36.6943,753.2959 Q35.7422,752.9541 34.7656,752.9541 Q33.5693,752.9541 32.5684,753.4668 Q31.5918,753.9795 30.8105,755.1514 Q30.0537,756.3232 30.0537,757.9346 L30.0537,759.6436 Q30.0537,761.5723 31.4453,762.8662 Q32.8369,764.1357 35.3271,764.1357 Q36.792,764.1357 37.8174,763.7451 Q38.4277,763.501 39.0869,762.8174 Q39.502,762.4023 39.7217,762.2803 Q39.9658,762.1582 40.2832,762.1582 Q40.7959,762.1582 41.1865,762.5732 Q41.6016,762.9639 41.6016,763.501 Q41.6016,764.0381 41.0645,764.6729 Q40.2832,765.5762 39.0381,766.0889 Q37.3535,766.7969 35.3271,766.7969 Q32.959,766.7969 31.0791,765.8203 Q29.541,765.0391 28.4668,763.3789 Q27.3926,761.6943 27.3926,759.6924 L27.3926,757.8857 Q27.3926,755.8105 28.3447,754.0283 Q29.3213,752.2217 31.0303,751.2695 Q32.7393,750.293 34.668,750.293 Q35.8154,750.293 36.8164,750.5615 Q37.8418,750.8057 38.6963,751.3672 Z " fill="#000000"/><text fill="#000000" font-family="Courier" font-size="15.625" lengthAdjust="spacing" textLength="211.8988" x="56.25" y="764.2059">GerarBalancoTerminalHandler</text><line style="stroke:#181818;stroke-width:0.7813;" x1="12.5" x2="271.2738" y1="782.8125" y2="782.8125"/><line style="stroke:#181818;stroke-width:0.7813;" x1="12.5" x2="271.2738" y1="795.3125" y2="795.3125"/><text fill="#000000" font-family="sans-serif" font-size="21.875" lengthAdjust="spacing" textLength="82.0633" x="20.3125" y="824.2706">+menu()</text></g><!--class GerarRelatorioTerminalHandler--><g class="entity" data-entity="GerarRelatorioTerminalHandler" data-source-line="61" data-uid="ent0009" id="entity_GerarRelatorioTerminalHandler"><rect fill="#F1F1F1" height="102.5146" rx="3.9063" ry="3.9063" style="stroke:#181818;stroke-width:0.7813;" width="267.9642" x="328.9063" y="732.8125"/><ellipse cx="352.3438" cy="757.8125" fill="#ADD1B2" rx="17.1875" ry="17.1875" style="stroke:#181818;stroke-width:1.5625;"/><path d="M356.665,751.3672 Q356.9092,751.0254 357.2021,750.8545 Q357.4951,750.6836 357.8369,750.6836 Q358.4229,750.6836 358.7891,751.0986 Q359.1553,751.4893 359.1553,752.4414 L359.1553,754.7119 Q359.1553,755.6641 358.7891,756.0791 Q358.4229,756.4941 357.8369,756.4941 Q357.2998,756.4941 356.9824,756.1768 Q356.665,755.8838 356.4941,755.0781 Q356.4209,754.5166 356.1279,754.2236 Q355.6152,753.6377 354.6631,753.2959 Q353.7109,752.9541 352.7344,752.9541 Q351.5381,752.9541 350.5371,753.4668 Q349.5605,753.9795 348.7793,755.1514 Q348.0225,756.3232 348.0225,757.9346 L348.0225,759.6436 Q348.0225,761.5723 349.4141,762.8662 Q350.8057,764.1357 353.2959,764.1357 Q354.7607,764.1357 355.7861,763.7451 Q356.3965,763.501 357.0557,762.8174 Q357.4707,762.4023 357.6904,762.2803 Q357.9346,762.1582 358.252,762.1582 Q358.7646,762.1582 359.1553,762.5732 Q359.5703,762.9639 359.5703,763.501 Q359.5703,764.0381 359.0332,764.6729 Q358.252,765.5762 357.0068,766.0889 Q355.3223,766.7969 353.2959,766.7969 Q350.9277,766.7969 349.0479,765.8203 Q347.5098,765.0391 346.4355,763.3789 Q345.3613,761.6943 345.3613,759.6924 L345.3613,757.8857 Q345.3613,755.8105 346.3135,754.0283 Q347.29,752.2217 348.999,751.2695 Q350.708,750.293 352.6367,750.293 Q353.7842,750.293 354.7852,750.5615 Q355.8105,750.8057 356.665,751.3672 Z " fill="#000000"/><text fill="#000000" font-family="Courier" font-size="15.625" lengthAdjust="spacing" textLength="217.9642" x="374.2188" y="764.2059">GerarRelatorioTerminalHandler</text><line style="stroke:#181818;stroke-width:0.7813;" x1="330.4688" x2="595.3079" y1="782.8125" y2="782.8125"/><line style="stroke:#181818;stroke-width:0.7813;" x1="330.4688" x2="595.3079" y1="795.3125" y2="795.3125"/><text fill="#000000" font-family="sans-serif" font-size="21.875" lengthAdjust="spacing" textLength="82.0633" x="338.2813" y="824.2706">+menu()</text></g><!--SRC=[jLAnJiD03Dtp5JU2MDg13mYj2bqOA1ApSx5QYyivyZaWYlXthBG9AKtK1JRVUtxldU-SNYdM852viYOtlvrbgKTyW9HoLQ6YKLnxZXlQepjhMN7KbfcFKezGeLjm8uGouDy5wXSgTMUoMQPSEsLNi2hRNKZGAt4Sz0UAg1yrEXRTSPQr_cu92WKaT9_PLuVbMuobXKRbPvIA8eG7Y6L0iIxdRhmGoDLrMqBq6BfJeAHTRVBcK84s46WFib4hau5zqW8KjsnsIqmr9hWK9rZn6yeltydmdvn0DWt-bNtH93yPnG4A5YXPHkCEFdbfZ5Lj7wPXnAg9tduEXFY8jpSSm0Fqn6VouKUwZgEECBtgBF6eESNxmV_v2-zHGEuWsCADR-MeuCcMKst1Bac-0G00]--></g></svg>