<svg xmlns="http://www.w3.org/2000/svg" xmlns:xlink="http://www.w3.org/1999/xlink" contentStyleType="text/css" data-diagram-type="CLASS" height="1257.8125px" preserveAspectRatio="none" style="width:1101px;height:1257px;background:#FFFFFF;" version="1.1" viewBox="0 0 1101 1257" width="1101.5625px" zoomAndPan="magnify"><defs/><g><!--class Administrador--><g class="entity" data-entity="Administrador" data-source-line="9" data-uid="ent0002" id="entity_Administrador"><rect fill="#F1F1F1" height="102.5146" rx="3.9063" ry="3.9063" style="stroke:#181818;stroke-width:0.7813;" width="146.3898" x="714.8438" y="1049.2188"/><ellipse cx="738.2813" cy="1074.2188" fill="#ADD1B2" rx="17.1875" ry="17.1875" style="stroke:#181818;stroke-width:1.5625;"/><path d="M742.6025,1067.7734 Q742.8467,1067.4316 743.1396,1067.2607 Q743.4326,1067.0898 743.7744,1067.0898 Q744.3604,1067.0898 744.7266,1067.5049 Q745.0928,1067.8955 745.0928,1068.8477 L745.0928,1071.1182 Q745.0928,1072.0703 744.7266,1072.4854 Q744.3604,1072.9004 743.7744,1072.9004 Q743.2373,1072.9004 742.9199,1072.583 Q742.6025,1072.29 742.4316,1071.4844 Q742.3584,1070.9229 742.0654,1070.6299 Q741.5527,1070.0439 740.6006,1069.7021 Q739.6484,1069.3604 738.6719,1069.3604 Q737.4756,1069.3604 736.4746,1069.873 Q735.498,1070.3857 734.7168,1071.5576 Q733.96,1072.7295 733.96,1074.3408 L733.96,1076.0498 Q733.96,1077.9785 735.3516,1079.2725 Q736.7432,1080.542 739.2334,1080.542 Q740.6982,1080.542 741.7236,1080.1514 Q742.334,1079.9072 742.9932,1079.2236 Q743.4082,1078.8086 743.6279,1078.6865 Q743.8721,1078.5645 744.1895,1078.5645 Q744.7021,1078.5645 745.0928,1078.9795 Q745.5078,1079.3701 745.5078,1079.9072 Q745.5078,1080.4443 744.9707,1081.0791 Q744.1895,1081.9824 742.9443,1082.4951 Q741.2598,1083.2031 739.2334,1083.2031 Q736.8652,1083.2031 734.9854,1082.2266 Q733.4473,1081.4453 732.373,1079.7852 Q731.2988,1078.1006 731.2988,1076.0986 L731.2988,1074.292 Q731.2988,1072.2168 732.251,1070.4346 Q733.2275,1068.6279 734.9365,1067.6758 Q736.6455,1066.6992 738.5742,1066.6992 Q739.7217,1066.6992 740.7227,1066.9678 Q741.748,1067.2119 742.6025,1067.7734 Z " fill="#000000"/><text fill="#000000" font-family="Courier" font-size="15.625" lengthAdjust="spacing" textLength="96.3898" x="760.1563" y="1080.6122">Administrador</text><line style="stroke:#181818;stroke-width:0.7813;" x1="716.4063" x2="859.671" y1="1099.2188" y2="1099.2188"/><line style="stroke:#181818;stroke-width:0.7813;" x1="716.4063" x2="859.671" y1="1111.7188" y2="1111.7188"/><text fill="#000000" font-family="sans-serif" font-size="21.875" lengthAdjust="spacing" textLength="102.7313" x="724.2188" y="1140.6769">+toString()</text></g><!--class Cliente--><g class="entity" data-entity="Cliente" data-source-line="13" data-uid="ent0003" id="entity_Cliente"><rect fill="#F1F1F1" height="212.5732" rx="3.9063" ry="3.9063" style="stroke:#181818;stroke-width:0.7813;" width="190.7806" x="549.2188" y="646.875"/><ellipse cx="614.1207" cy="671.875" fill="#ADD1B2" rx="17.1875" ry="17.1875" style="stroke:#181818;stroke-width:1.5625;"/><path d="M618.442,665.4297 Q618.6861,665.0879 618.9791,664.917 Q619.2721,664.7461 619.6139,664.7461 Q620.1998,664.7461 620.566,665.1611 Q620.9322,665.5518 620.9322,666.5039 L620.9322,668.7744 Q620.9322,669.7266 620.566,670.1416 Q620.1998,670.5566 619.6139,670.5566 Q619.0768,670.5566 618.7594,670.2393 Q618.442,669.9463 618.2711,669.1406 Q618.1979,668.5791 617.9049,668.2861 Q617.3922,667.7002 616.44,667.3584 Q615.4879,667.0166 614.5113,667.0166 Q613.315,667.0166 612.3141,667.5293 Q611.3375,668.042 610.5563,669.2139 Q609.7994,670.3857 609.7994,671.9971 L609.7994,673.7061 Q609.7994,675.6348 611.191,676.9287 Q612.5826,678.1982 615.0729,678.1982 Q616.5377,678.1982 617.5631,677.8076 Q618.1734,677.5635 618.8326,676.8799 Q619.2477,676.4648 619.4674,676.3428 Q619.7115,676.2207 620.0289,676.2207 Q620.5416,676.2207 620.9322,676.6357 Q621.3473,677.0264 621.3473,677.5635 Q621.3473,678.1006 620.8102,678.7354 Q620.0289,679.6387 618.7838,680.1514 Q617.0992,680.8594 615.0729,680.8594 Q612.7047,680.8594 610.8248,679.8828 Q609.2867,679.1016 608.2125,677.4414 Q607.1383,675.7568 607.1383,673.7549 L607.1383,671.9482 Q607.1383,669.873 608.0904,668.0908 Q609.067,666.2842 610.776,665.332 Q612.485,664.3555 614.4137,664.3555 Q615.5611,664.3555 616.5621,664.624 Q617.5875,664.8682 618.442,665.4297 Z " fill="#000000"/><text fill="#000000" font-family="Courier" font-size="15.625" lengthAdjust="spacing" textLength="48.6374" x="645.21" y="678.2684">Cliente</text><line style="stroke:#181818;stroke-width:0.7813;" x1="550.7813" x2="738.4369" y1="696.875" y2="696.875"/><line style="stroke:#181818;stroke-width:0.7813;" x1="550.7813" x2="738.4369" y1="709.375" y2="709.375"/><text fill="#000000" font-family="sans-serif" font-size="21.875" lengthAdjust="spacing" textLength="140.4358" x="558.5938" y="738.3331">+getVeiculos()</text><text fill="#000000" font-family="sans-serif" font-size="21.875" lengthAdjust="spacing" textLength="172.0306" x="558.5938" y="765.8478">+removeVeiculo()</text><text fill="#000000" font-family="sans-serif" font-size="21.875" lengthAdjust="spacing" textLength="135.5865" x="558.5938" y="793.3624">+addVeiculo()</text><text fill="#000000" font-family="sans-serif" font-size="21.875" lengthAdjust="spacing" textLength="137.9791" x="558.5938" y="820.8771">+compareTo()</text><text fill="#000000" font-family="sans-serif" font-size="21.875" lengthAdjust="spacing" textLength="102.7313" x="558.5938" y="848.3917">+toString()</text></g><!--class Colaborador--><g class="entity" data-entity="Colaborador" data-source-line="21" data-uid="ent0004" id="entity_Colaborador"><rect fill="#F1F1F1" height="157.5439" rx="3.9063" ry="3.9063" style="stroke:#181818;stroke-width:0.7813;" width="201.7395" x="795.3125" y="674.2188"/><ellipse cx="848.3369" cy="699.2188" fill="#ADD1B2" rx="17.1875" ry="17.1875" style="stroke:#181818;stroke-width:1.5625;"/><path d="M852.6582,692.7734 Q852.9023,692.4316 853.1953,692.2607 Q853.4882,692.0898 853.83,692.0898 Q854.416,692.0898 854.7822,692.5049 Q855.1484,692.8955 855.1484,693.8477 L855.1484,696.1182 Q855.1484,697.0703 854.7822,697.4854 Q854.416,697.9004 853.83,697.9004 Q853.2929,697.9004 852.9755,697.583 Q852.6582,697.29 852.4873,696.4844 Q852.414,695.9229 852.121,695.6299 Q851.6084,695.0439 850.6562,694.7021 Q849.7041,694.3604 848.7275,694.3604 Q847.5312,694.3604 846.5302,694.873 Q845.5537,695.3857 844.7724,696.5576 Q844.0156,697.7295 844.0156,699.3408 L844.0156,701.0498 Q844.0156,702.9785 845.4072,704.2725 Q846.7988,705.542 849.289,705.542 Q850.7539,705.542 851.7793,705.1514 Q852.3896,704.9072 853.0488,704.2236 Q853.4638,703.8086 853.6835,703.6865 Q853.9277,703.5645 854.2451,703.5645 Q854.7578,703.5645 855.1484,703.9795 Q855.5634,704.3701 855.5634,704.9072 Q855.5634,705.4443 855.0263,706.0791 Q854.2451,706.9824 853,707.4951 Q851.3154,708.2031 849.289,708.2031 Q846.9209,708.2031 845.041,707.2266 Q843.5029,706.4453 842.4287,704.7852 Q841.3544,703.1006 841.3544,701.0986 L841.3544,699.292 Q841.3544,697.2168 842.3066,695.4346 Q843.2832,693.6279 844.9921,692.6758 Q846.7011,691.6992 848.6298,691.6992 Q849.7773,691.6992 850.7783,691.9678 Q851.8037,692.2119 852.6582,692.7734 Z " fill="#000000"/><text fill="#000000" font-family="Courier" font-size="15.625" lengthAdjust="spacing" textLength="85.9909" x="876.7867" y="705.6122">Colaborador</text><line style="stroke:#181818;stroke-width:0.7813;" x1="796.875" x2="995.4895" y1="724.2188" y2="724.2188"/><text fill="#000000" font-family="sans-serif" font-size="21.875" lengthAdjust="spacing" textLength="66.8854" x="804.6875" y="753.1769">-senha</text><text fill="#000000" font-family="sans-serif" font-size="21.875" lengthAdjust="spacing" textLength="6.0776" x="871.5729" y="753.1769">&#160;</text><text fill="#000000" font-family="sans-serif" font-size="21.875" lengthAdjust="spacing" textLength="6.0776" x="877.6505" y="753.1769">:</text><text fill="#000000" font-family="sans-serif" font-size="21.875" lengthAdjust="spacing" textLength="6.0776" x="883.728" y="753.1769">&#160;</text><text fill="#000000" font-family="sans-serif" font-size="21.875" lengthAdjust="spacing" textLength="57.1442" x="889.8056" y="753.1769">String</text><line style="stroke:#181818;stroke-width:0.7813;" x1="796.875" x2="995.4895" y1="764.2334" y2="764.2334"/><text fill="#000000" font-family="sans-serif" font-size="21.875" lengthAdjust="spacing" textLength="119.7784" x="804.6875" y="793.1915">+setSenha()</text><text fill="#000000" font-family="sans-serif" font-size="21.875" lengthAdjust="spacing" textLength="182.9895" x="804.6875" y="820.7062">+compararSenha()</text></g><!--class Funcionario--><g class="entity" data-entity="Funcionario" data-source-line="27" data-uid="ent0005" id="entity_Funcionario"><rect fill="#F1F1F1" height="295.1172" rx="3.9063" ry="3.9063" style="stroke:#181818;stroke-width:0.7813;" width="175.6027" x="916.4063" y="953.125"/><ellipse cx="959.626" cy="978.125" fill="#ADD1B2" rx="17.1875" ry="17.1875" style="stroke:#181818;stroke-width:1.5625;"/><path d="M963.9473,971.6797 Q964.1914,971.3379 964.4844,971.167 Q964.7774,970.9961 965.1192,970.9961 Q965.7051,970.9961 966.0713,971.4111 Q966.4375,971.8018 966.4375,972.7539 L966.4375,975.0244 Q966.4375,975.9766 966.0713,976.3916 Q965.7051,976.8066 965.1192,976.8066 Q964.5821,976.8066 964.2647,976.4893 Q963.9473,976.1963 963.7764,975.3906 Q963.7032,974.8291 963.4102,974.5361 Q962.8975,973.9502 961.9453,973.6084 Q960.9932,973.2666 960.0166,973.2666 Q958.8203,973.2666 957.8194,973.7793 Q956.8428,974.292 956.0616,975.4639 Q955.3047,976.6357 955.3047,978.2471 L955.3047,979.9561 Q955.3047,981.8848 956.6963,983.1787 Q958.0879,984.4482 960.5782,984.4482 Q962.043,984.4482 963.0684,984.0576 Q963.6787,983.8135 964.3379,983.1299 Q964.753,982.7148 964.9727,982.5928 Q965.2168,982.4707 965.5342,982.4707 Q966.0469,982.4707 966.4375,982.8857 Q966.8526,983.2764 966.8526,983.8135 Q966.8526,984.3506 966.3155,984.9854 Q965.5342,985.8887 964.2891,986.4014 Q962.6045,987.1094 960.5782,987.1094 Q958.21,987.1094 956.3301,986.1328 Q954.792,985.3516 953.7178,983.6914 Q952.6436,982.0068 952.6436,980.0049 L952.6436,978.1982 Q952.6436,976.123 953.5957,974.3408 Q954.5723,972.5342 956.2813,971.582 Q957.9903,970.6055 959.919,970.6055 Q961.0664,970.6055 962.0674,970.874 Q963.0928,971.1182 963.9473,971.6797 Z " fill="#000000"/><text fill="#000000" font-family="Courier" font-size="15.625" lengthAdjust="spacing" textLength="81.6422" x="985.8971" y="984.5184">Funcionario</text><line style="stroke:#181818;stroke-width:0.7813;" x1="917.9688" x2="1090.4465" y1="1003.125" y2="1003.125"/><text fill="#000000" font-family="sans-serif" font-size="21.875" lengthAdjust="spacing" textLength="72.963" x="925.7813" y="1032.0831">-funcao</text><text fill="#000000" font-family="sans-serif" font-size="21.875" lengthAdjust="spacing" textLength="6.0776" x="998.7442" y="1032.0831">&#160;</text><text fill="#000000" font-family="sans-serif" font-size="21.875" lengthAdjust="spacing" textLength="6.0776" x="1004.8218" y="1032.0831">:</text><text fill="#000000" font-family="sans-serif" font-size="21.875" lengthAdjust="spacing" textLength="156.8527" x="925.7813" y="1059.5978">TipoFuncionario</text><text fill="#000000" font-family="sans-serif" font-size="21.875" lengthAdjust="spacing" textLength="71.7239" x="925.7813" y="1087.1124">-salario</text><text fill="#000000" font-family="sans-serif" font-size="21.875" lengthAdjust="spacing" textLength="6.0776" x="997.5052" y="1087.1124">&#160;</text><text fill="#000000" font-family="sans-serif" font-size="21.875" lengthAdjust="spacing" textLength="6.0776" x="1003.5828" y="1087.1124">:</text><text fill="#000000" font-family="sans-serif" font-size="21.875" lengthAdjust="spacing" textLength="6.0776" x="1009.6603" y="1087.1124">&#160;</text><text fill="#000000" font-family="sans-serif" font-size="21.875" lengthAdjust="spacing" textLength="41.3467" x="1015.7379" y="1087.1124">float</text><line style="stroke:#181818;stroke-width:0.7813;" x1="917.9688" x2="1090.4465" y1="1098.1689" y2="1098.1689"/><text fill="#000000" font-family="sans-serif" font-size="21.875" lengthAdjust="spacing" textLength="124.617" x="925.7813" y="1127.1271">+setSalario()</text><text fill="#000000" font-family="sans-serif" font-size="21.875" lengthAdjust="spacing" textLength="130.7159" x="925.7813" y="1154.6417">+getFuncao()</text><text fill="#000000" font-family="sans-serif" font-size="21.875" lengthAdjust="spacing" textLength="125.8453" x="925.7813" y="1182.1564">+getSalario()</text><text fill="#000000" font-family="sans-serif" font-size="21.875" lengthAdjust="spacing" textLength="129.4876" x="925.7813" y="1209.671">+setFuncao()</text><text fill="#000000" font-family="sans-serif" font-size="21.875" lengthAdjust="spacing" textLength="102.7313" x="925.7813" y="1237.1857">+toString()</text></g><!--class Pessoa--><g class="entity" data-entity="Pessoa" data-source-line="37" data-uid="ent0006" id="entity_Pessoa"><rect fill="#F1F1F1" height="542.749" rx="3.9063" ry="3.9063" style="stroke:#181818;stroke-width:0.7813;" width="170.1447" x="685.9375" y="10.9375"/><ellipse cx="739.9877" cy="35.9375" fill="#ADD1B2" rx="17.1875" ry="17.1875" style="stroke:#181818;stroke-width:1.5625;"/><path d="M744.309,29.4922 Q744.5531,29.1504 744.8461,28.9795 Q745.1391,28.8086 745.4809,28.8086 Q746.0668,28.8086 746.433,29.2236 Q746.7992,29.6143 746.7992,30.5664 L746.7992,32.8369 Q746.7992,33.7891 746.433,34.2041 Q746.0668,34.6191 745.4809,34.6191 Q744.9438,34.6191 744.6264,34.3018 Q744.309,34.0088 744.1381,33.2031 Q744.0649,32.6416 743.7719,32.3486 Q743.2592,31.7627 742.3071,31.4209 Q741.3549,31.0791 740.3783,31.0791 Q739.1821,31.0791 738.1811,31.5918 Q737.2045,32.1045 736.4233,33.2764 Q735.6664,34.4482 735.6664,36.0596 L735.6664,37.7686 Q735.6664,39.6973 737.058,40.9912 Q738.4496,42.2607 740.9399,42.2607 Q742.4047,42.2607 743.4301,41.8701 Q744.0405,41.626 744.6996,40.9424 Q745.1147,40.5273 745.3344,40.4053 Q745.5785,40.2832 745.8959,40.2832 Q746.4086,40.2832 746.7992,40.6982 Q747.2143,41.0889 747.2143,41.626 Q747.2143,42.1631 746.6772,42.7979 Q745.8959,43.7012 744.6508,44.2139 Q742.9662,44.9219 740.9399,44.9219 Q738.5717,44.9219 736.6918,43.9453 Q735.1537,43.1641 734.0795,41.5039 Q733.0053,39.8193 733.0053,37.8174 L733.0053,36.0107 Q733.0053,33.9355 733.9574,32.1533 Q734.934,30.3467 736.643,29.3945 Q738.352,28.418 740.2807,28.418 Q741.4281,28.418 742.4291,28.6865 Q743.4545,28.9307 744.309,29.4922 Z " fill="#000000"/><text fill="#000000" font-family="Courier" font-size="15.625" lengthAdjust="spacing" textLength="52.1164" x="768.6655" y="42.3309">Pessoa</text><line style="stroke:#181818;stroke-width:0.7813;" x1="687.5" x2="854.5197" y1="60.9375" y2="60.9375"/><text fill="#000000" font-family="sans-serif" font-size="21.875" lengthAdjust="spacing" textLength="62.0041" x="695.3125" y="89.8956">-nome</text><text fill="#000000" font-family="sans-serif" font-size="21.875" lengthAdjust="spacing" textLength="6.0776" x="757.3166" y="89.8956">&#160;</text><text fill="#000000" font-family="sans-serif" font-size="21.875" lengthAdjust="spacing" textLength="6.0776" x="763.3942" y="89.8956">:</text><text fill="#000000" font-family="sans-serif" font-size="21.875" lengthAdjust="spacing" textLength="6.0776" x="769.4717" y="89.8956">&#160;</text><text fill="#000000" font-family="sans-serif" font-size="21.875" lengthAdjust="spacing" textLength="57.1442" x="775.5493" y="89.8956">String</text><text fill="#000000" font-family="sans-serif" font-size="21.875" lengthAdjust="spacing" textLength="59.5581" x="695.3125" y="117.4103">-email</text><text fill="#000000" font-family="sans-serif" font-size="21.875" lengthAdjust="spacing" textLength="6.0776" x="754.8706" y="117.4103">&#160;</text><text fill="#000000" font-family="sans-serif" font-size="21.875" lengthAdjust="spacing" textLength="6.0776" x="760.9482" y="117.4103">:</text><text fill="#000000" font-family="sans-serif" font-size="21.875" lengthAdjust="spacing" textLength="6.0776" x="767.0258" y="117.4103">&#160;</text><text fill="#000000" font-family="sans-serif" font-size="21.875" lengthAdjust="spacing" textLength="57.1442" x="773.1033" y="117.4103">String</text><text fill="#000000" font-family="sans-serif" font-size="21.875" lengthAdjust="spacing" textLength="36.4655" x="695.3125" y="144.9249">-cpf</text><text fill="#000000" font-family="sans-serif" font-size="21.875" lengthAdjust="spacing" textLength="6.0776" x="731.778" y="144.9249">&#160;</text><text fill="#000000" font-family="sans-serif" font-size="21.875" lengthAdjust="spacing" textLength="6.0776" x="737.8555" y="144.9249">:</text><text fill="#000000" font-family="sans-serif" font-size="21.875" lengthAdjust="spacing" textLength="6.0776" x="743.9331" y="144.9249">&#160;</text><text fill="#000000" font-family="sans-serif" font-size="21.875" lengthAdjust="spacing" textLength="57.1442" x="750.0107" y="144.9249">String</text><text fill="#000000" font-family="sans-serif" font-size="21.875" lengthAdjust="spacing" textLength="85.1288" x="695.3125" y="172.4396">-telefone</text><text fill="#000000" font-family="sans-serif" font-size="21.875" lengthAdjust="spacing" textLength="6.0776" x="780.4413" y="172.4396">&#160;</text><text fill="#000000" font-family="sans-serif" font-size="21.875" lengthAdjust="spacing" textLength="6.0776" x="786.5189" y="172.4396">:</text><text fill="#000000" font-family="sans-serif" font-size="21.875" lengthAdjust="spacing" textLength="57.1442" x="695.3125" y="199.9542">String</text><text fill="#000000" font-family="sans-serif" font-size="21.875" lengthAdjust="spacing" textLength="98.5016" x="695.3125" y="227.4689">-endereco</text><text fill="#000000" font-family="sans-serif" font-size="21.875" lengthAdjust="spacing" textLength="6.0776" x="793.8141" y="227.4689">&#160;</text><text fill="#000000" font-family="sans-serif" font-size="21.875" lengthAdjust="spacing" textLength="6.0776" x="799.8917" y="227.4689">:</text><text fill="#000000" font-family="sans-serif" font-size="21.875" lengthAdjust="spacing" textLength="57.1442" x="695.3125" y="254.9835">String</text><line style="stroke:#181818;stroke-width:0.7813;" x1="687.5" x2="854.5197" y1="266.04" y2="266.04"/><text fill="#000000" font-family="sans-serif" font-size="21.875" lengthAdjust="spacing" textLength="151.3947" x="695.3125" y="294.9982">+getEndereco()</text><text fill="#000000" font-family="sans-serif" font-size="21.875" lengthAdjust="spacing" textLength="90.5655" x="695.3125" y="322.5128">+setCpf()</text><text fill="#000000" font-family="sans-serif" font-size="21.875" lengthAdjust="spacing" textLength="111.2228" x="695.3125" y="350.0275">+setEmail()</text><text fill="#000000" font-family="sans-serif" font-size="21.875" lengthAdjust="spacing" textLength="114.8758" x="695.3125" y="377.5421">+setNome()</text><text fill="#000000" font-family="sans-serif" font-size="21.875" lengthAdjust="spacing" textLength="141.6534" x="695.3125" y="405.0568">+setTelefone()</text><text fill="#000000" font-family="sans-serif" font-size="21.875" lengthAdjust="spacing" textLength="142.8818" x="695.3125" y="432.5714">+getTelefone()</text><text fill="#000000" font-family="sans-serif" font-size="21.875" lengthAdjust="spacing" textLength="112.4512" x="695.3125" y="460.0861">+getEmail()</text><text fill="#000000" font-family="sans-serif" font-size="21.875" lengthAdjust="spacing" textLength="91.7938" x="695.3125" y="487.6007">+getCpf()</text><text fill="#000000" font-family="sans-serif" font-size="21.875" lengthAdjust="spacing" textLength="150.1663" x="695.3125" y="515.1154">+setEndereco()</text><text fill="#000000" font-family="sans-serif" font-size="21.875" lengthAdjust="spacing" textLength="116.1041" x="695.3125" y="542.63">+getNome()</text></g><!--class AtualizaAgendamentoUseCase--><g class="entity" data-entity="AtualizaAgendamentoUseCase" data-source-line="55" data-uid="ent0007" id="entity_AtualizaAgendamentoUseCase"><rect fill="#F1F1F1" height="102.5146" rx="3.9063" ry="3.9063" style="stroke:#181818;stroke-width:0.7813;" width="267.1478" x="10.9375" y="230.4688"/><ellipse cx="34.375" cy="255.4688" fill="#ADD1B2" rx="17.1875" ry="17.1875" style="stroke:#181818;stroke-width:1.5625;"/><path d="M38.6963,249.0234 Q38.9404,248.6816 39.2334,248.5107 Q39.5264,248.3398 39.8682,248.3398 Q40.4541,248.3398 40.8203,248.7549 Q41.1865,249.1455 41.1865,250.0977 L41.1865,252.3682 Q41.1865,253.3203 40.8203,253.7354 Q40.4541,254.1504 39.8682,254.1504 Q39.3311,254.1504 39.0137,253.833 Q38.6963,253.54 38.5254,252.7344 Q38.4521,252.1729 38.1592,251.8799 Q37.6465,251.2939 36.6943,250.9521 Q35.7422,250.6104 34.7656,250.6104 Q33.5693,250.6104 32.5684,251.123 Q31.5918,251.6357 30.8105,252.8076 Q30.0537,253.9795 30.0537,255.5908 L30.0537,257.2998 Q30.0537,259.2285 31.4453,260.5225 Q32.8369,261.792 35.3271,261.792 Q36.792,261.792 37.8174,261.4014 Q38.4277,261.1572 39.0869,260.4736 Q39.502,260.0586 39.7217,259.9365 Q39.9658,259.8145 40.2832,259.8145 Q40.7959,259.8145 41.1865,260.2295 Q41.6016,260.6201 41.6016,261.1572 Q41.6016,261.6943 41.0645,262.3291 Q40.2832,263.2324 39.0381,263.7451 Q37.3535,264.4531 35.3271,264.4531 Q32.959,264.4531 31.0791,263.4766 Q29.541,262.6953 28.4668,261.0352 Q27.3926,259.3506 27.3926,257.3486 L27.3926,255.542 Q27.3926,253.4668 28.3447,251.6846 Q29.3213,249.8779 31.0303,248.9258 Q32.7393,247.9492 34.668,247.9492 Q35.8154,247.9492 36.8164,248.2178 Q37.8418,248.4619 38.6963,249.0234 Z " fill="#000000"/><text fill="#000000" font-family="Courier" font-size="15.625" lengthAdjust="spacing" textLength="217.1478" x="56.25" y="261.8622">AtualizaAgendamentoUseCase</text><line style="stroke:#181818;stroke-width:0.7813;" x1="12.5" x2="276.5228" y1="280.4688" y2="280.4688"/><line style="stroke:#181818;stroke-width:0.7813;" x1="12.5" x2="276.5228" y1="292.9688" y2="292.9688"/><text fill="#000000" font-family="sans-serif" font-size="21.875" lengthAdjust="spacing" textLength="62.6129" x="20.3125" y="321.9269">+use()</text></g><!--class BuscarPorIdAgendamentoUseCase--><g class="entity" data-entity="BuscarPorIdAgendamentoUseCase" data-source-line="59" data-uid="ent0008" id="entity_BuscarPorIdAgendamentoUseCase"><rect fill="#F1F1F1" height="102.5146" rx="3.9063" ry="3.9063" style="stroke:#181818;stroke-width:0.7813;" width="297.5357" x="333.5938" y="230.4688"/><ellipse cx="357.0313" cy="255.4688" fill="#ADD1B2" rx="17.1875" ry="17.1875" style="stroke:#181818;stroke-width:1.5625;"/><path d="M361.3525,249.0234 Q361.5967,248.6816 361.8896,248.5107 Q362.1826,248.3398 362.5244,248.3398 Q363.1104,248.3398 363.4766,248.7549 Q363.8428,249.1455 363.8428,250.0977 L363.8428,252.3682 Q363.8428,253.3203 363.4766,253.7354 Q363.1104,254.1504 362.5244,254.1504 Q361.9873,254.1504 361.6699,253.833 Q361.3525,253.54 361.1816,252.7344 Q361.1084,252.1729 360.8154,251.8799 Q360.3027,251.2939 359.3506,250.9521 Q358.3984,250.6104 357.4219,250.6104 Q356.2256,250.6104 355.2246,251.123 Q354.248,251.6357 353.4668,252.8076 Q352.71,253.9795 352.71,255.5908 L352.71,257.2998 Q352.71,259.2285 354.1016,260.5225 Q355.4932,261.792 357.9834,261.792 Q359.4482,261.792 360.4736,261.4014 Q361.084,261.1572 361.7432,260.4736 Q362.1582,260.0586 362.3779,259.9365 Q362.6221,259.8145 362.9395,259.8145 Q363.4521,259.8145 363.8428,260.2295 Q364.2578,260.6201 364.2578,261.1572 Q364.2578,261.6943 363.7207,262.3291 Q362.9395,263.2324 361.6943,263.7451 Q360.0098,264.4531 357.9834,264.4531 Q355.6152,264.4531 353.7354,263.4766 Q352.1973,262.6953 351.123,261.0352 Q350.0488,259.3506 350.0488,257.3486 L350.0488,255.542 Q350.0488,253.4668 351.001,251.6846 Q351.9775,249.8779 353.6865,248.9258 Q355.3955,247.9492 357.3242,247.9492 Q358.4717,247.9492 359.4727,248.2178 Q360.498,248.4619 361.3525,249.0234 Z " fill="#000000"/><text fill="#000000" font-family="Courier" font-size="15.625" lengthAdjust="spacing" textLength="247.5357" x="378.9063" y="261.8622">BuscarPorIdAgendamentoUseCase</text><line style="stroke:#181818;stroke-width:0.7813;" x1="335.1563" x2="629.567" y1="280.4688" y2="280.4688"/><line style="stroke:#181818;stroke-width:0.7813;" x1="335.1563" x2="629.567" y1="292.9688" y2="292.9688"/><text fill="#000000" font-family="sans-serif" font-size="21.875" lengthAdjust="spacing" textLength="62.6129" x="342.9688" y="321.9269">+use()</text></g><!--class CriarAgendamentoUseCase--><g class="entity" data-entity="CriarAgendamentoUseCase" data-source-line="63" data-uid="ent0009" id="entity_CriarAgendamentoUseCase"><rect fill="#F1F1F1" height="102.5146" rx="3.9063" ry="3.9063" style="stroke:#181818;stroke-width:0.7813;" width="245.4117" x="21.875" y="701.5625"/><ellipse cx="45.3125" cy="726.5625" fill="#ADD1B2" rx="17.1875" ry="17.1875" style="stroke:#181818;stroke-width:1.5625;"/><path d="M49.6338,720.1172 Q49.8779,719.7754 50.1709,719.6045 Q50.4639,719.4336 50.8057,719.4336 Q51.3916,719.4336 51.7578,719.8486 Q52.124,720.2393 52.124,721.1914 L52.124,723.4619 Q52.124,724.4141 51.7578,724.8291 Q51.3916,725.2441 50.8057,725.2441 Q50.2686,725.2441 49.9512,724.9268 Q49.6338,724.6338 49.4629,723.8281 Q49.3896,723.2666 49.0967,722.9736 Q48.584,722.3877 47.6318,722.0459 Q46.6797,721.7041 45.7031,721.7041 Q44.5068,721.7041 43.5059,722.2168 Q42.5293,722.7295 41.748,723.9014 Q40.9912,725.0732 40.9912,726.6846 L40.9912,728.3936 Q40.9912,730.3223 42.3828,731.6162 Q43.7744,732.8857 46.2646,732.8857 Q47.7295,732.8857 48.7549,732.4951 Q49.3652,732.251 50.0244,731.5674 Q50.4395,731.1523 50.6592,731.0303 Q50.9033,730.9082 51.2207,730.9082 Q51.7334,730.9082 52.124,731.3232 Q52.5391,731.7139 52.5391,732.251 Q52.5391,732.7881 52.002,733.4229 Q51.2207,734.3262 49.9756,734.8389 Q48.291,735.5469 46.2646,735.5469 Q43.8965,735.5469 42.0166,734.5703 Q40.4785,733.7891 39.4043,732.1289 Q38.3301,730.4443 38.3301,728.4424 L38.3301,726.6357 Q38.3301,724.5605 39.2822,722.7783 Q40.2588,720.9717 41.9678,720.0195 Q43.6768,719.043 45.6055,719.043 Q46.7529,719.043 47.7539,719.3115 Q48.7793,719.5557 49.6338,720.1172 Z " fill="#000000"/><text fill="#000000" font-family="Courier" font-size="15.625" lengthAdjust="spacing" textLength="195.4117" x="67.1875" y="732.9559">CriarAgendamentoUseCase</text><line style="stroke:#181818;stroke-width:0.7813;" x1="23.4375" x2="265.7242" y1="751.5625" y2="751.5625"/><line style="stroke:#181818;stroke-width:0.7813;" x1="23.4375" x2="265.7242" y1="764.0625" y2="764.0625"/><text fill="#000000" font-family="sans-serif" font-size="21.875" lengthAdjust="spacing" textLength="62.6129" x="31.25" y="793.0206">+use()</text></g><!--reverse link Colaborador to Administrador--><g class="link" data-entity-1="Colaborador" data-entity-2="Administrador" data-source-line="67" data-uid="lnk10" id="link_Colaborador_Administrador"><path codeLine="67" d="M828.5156,860.5781 C828.5156,926.9063 828.5156,991.5 828.5156,1048.7656" fill="none" id="Colaborador-backto-Administrador" style="stroke:#181818;stroke-width:1.5625;"/><polygon fill="none" points="828.5156,832.4531,819.1406,860.5781,837.8906,860.5781,828.5156,832.4531" style="stroke:#181818;stroke-width:1.5625;"/></g><!--reverse link Pessoa to Cliente--><g class="link" data-entity-1="Pessoa" data-entity-2="Cliente" data-source-line="68" data-uid="lnk11" id="link_Pessoa_Cliente"><path codeLine="68" d="M712.8906,581.4688 C712.8906,614.3906 712.8906,618.25 712.8906,646.6094" fill="none" id="Pessoa-backto-Cliente" style="stroke:#181818;stroke-width:1.5625;"/><polygon fill="none" points="712.8906,553.3438,703.5156,581.4688,722.2656,581.4688,712.8906,553.3438" style="stroke:#181818;stroke-width:1.5625;"/></g><!--reverse link Pessoa to Colaborador--><g class="link" data-entity-1="Pessoa" data-entity-2="Colaborador" data-source-line="69" data-uid="lnk12" id="link_Pessoa_Colaborador"><path codeLine="69" d="M825.7813,581.4688 C825.7813,625.4375 825.7813,639.5781 825.7813,673.8281" fill="none" id="Pessoa-backto-Colaborador" style="stroke:#181818;stroke-width:1.5625;"/><polygon fill="none" points="825.7813,553.3438,816.4063,581.4688,835.1563,581.4688,825.7813,553.3438" style="stroke:#181818;stroke-width:1.5625;"/></g><!--reverse link Colaborador to Funcionario--><g class="link" data-entity-1="Colaborador" data-entity-2="Funcionario" data-source-line="70" data-uid="lnk13" id="link_Colaborador_Funcionario"><path codeLine="70" d="M956.6406,860.5781 C956.6406,896.25 956.6406,911.4219 956.6406,952.7344" fill="none" id="Colaborador-backto-Funcionario" style="stroke:#181818;stroke-width:1.5625;"/><polygon fill="none" points="956.6406,832.4531,947.2656,860.5781,966.0156,860.5781,956.6406,832.4531" style="stroke:#181818;stroke-width:1.5625;"/></g><!--SRC=[ZLDDJyCm3BttL-G8GfFOWGlYCgfDscL2se2prxgTHHfNYGlYwx-JjLbejabmgv-VdvzZrxsGQS52eygMrFJcEdCHAJGuDnEnjEq4bmMRDNsWEg4is4YVcPvDhQ11bNDd2Uqe_sQXVQPIThxiEXDkbR3QiWXxBsIn468pucioAEyjAhQouophzTMiRCYG4mibM_MPANKblFQMJNrncNqVQBacD883eKPvGYewpSvpF62nuLSCs011MIPnmOstWPiGdkt16hRyQsIY79eTg5irSFTr3cMz1yUYO0zGb5fqfl3JWoKEKfL7WBtMXbeUfOS-e7lghQeqWnmQ3UZGoi-yw2LYcAHTcZuttWCwnn3i6FOx7GqsKTW0wHGgsYe513LMR8uhJOb-tPmyb3Su3tXqcBTL_9xlsyLevUt4O1Ewn4bFW55nVIIRzAoZSdo5cNIWwGDcjRVj3zi8FphCmONRwbn2l-zS0VQ1xRByPqLk2UoVtF6jtNrD9kb_a8LTzPbm-YdsMtugDRwk7m00]--></g></svg>