<svg xmlns="http://www.w3.org/2000/svg" xmlns:xlink="http://www.w3.org/1999/xlink" contentStyleType="text/css" data-diagram-type="CLASS" height="517.1875px" preserveAspectRatio="none" style="width:800px;height:517px;background:#FFFFFF;" version="1.1" viewBox="0 0 800 517" width="800px" zoomAndPan="magnify"><defs/><g><!--class CriarPecaUseCase--><g class="entity" data-entity="CriarPecaUseCase" data-source-line="9" data-uid="ent0002" id="entity_CriarPecaUseCase"><rect fill="#F1F1F1" height="102.5146" rx="3.9063" ry="3.9063" style="stroke:#181818;stroke-width:0.7813;" width="183.728" x="29.6875" y="10.9375"/><ellipse cx="53.125" cy="35.9375" fill="#ADD1B2" rx="17.1875" ry="17.1875" style="stroke:#181818;stroke-width:1.5625;"/><path d="M57.4463,29.4922 Q57.6904,29.1504 57.9834,28.9795 Q58.2764,28.8086 58.6182,28.8086 Q59.2041,28.8086 59.5703,29.2236 Q59.9365,29.6143 59.9365,30.5664 L59.9365,32.8369 Q59.9365,33.7891 59.5703,34.2041 Q59.2041,34.6191 58.6182,34.6191 Q58.0811,34.6191 57.7637,34.3018 Q57.4463,34.0088 57.2754,33.2031 Q57.2021,32.6416 56.9092,32.3486 Q56.3965,31.7627 55.4443,31.4209 Q54.4922,31.0791 53.5156,31.0791 Q52.3193,31.0791 51.3184,31.5918 Q50.3418,32.1045 49.5605,33.2764 Q48.8037,34.4482 48.8037,36.0596 L48.8037,37.7686 Q48.8037,39.6973 50.1953,40.9912 Q51.5869,42.2607 54.0771,42.2607 Q55.542,42.2607 56.5674,41.8701 Q57.1777,41.626 57.8369,40.9424 Q58.252,40.5273 58.4717,40.4053 Q58.7158,40.2832 59.0332,40.2832 Q59.5459,40.2832 59.9365,40.6982 Q60.3516,41.0889 60.3516,41.626 Q60.3516,42.1631 59.8145,42.7979 Q59.0332,43.7012 57.7881,44.2139 Q56.1035,44.9219 54.0771,44.9219 Q51.709,44.9219 49.8291,43.9453 Q48.291,43.1641 47.2168,41.5039 Q46.1426,39.8193 46.1426,37.8174 L46.1426,36.0107 Q46.1426,33.9355 47.0947,32.1533 Q48.0713,30.3467 49.7803,29.3945 Q51.4893,28.418 53.418,28.418 Q54.5654,28.418 55.5664,28.6865 Q56.5918,28.9307 57.4463,29.4922 Z " fill="#000000"/><text fill="#000000" font-family="Courier" font-size="15.625" lengthAdjust="spacing" textLength="133.728" x="75" y="42.3309">CriarPecaUseCase</text><line style="stroke:#181818;stroke-width:0.7813;" x1="31.25" x2="211.853" y1="60.9375" y2="60.9375"/><line style="stroke:#181818;stroke-width:0.7813;" x1="31.25" x2="211.853" y1="73.4375" y2="73.4375"/><text fill="#000000" font-family="sans-serif" font-size="21.875" lengthAdjust="spacing" textLength="62.6129" x="39.0625" y="102.3956">+use()</text></g><!--class ListaPecaUseCase--><g class="entity" data-entity="ListaPecaUseCase" data-source-line="13" data-uid="ent0003" id="entity_ListaPecaUseCase"><rect fill="#F1F1F1" height="102.5146" rx="3.9063" ry="3.9063" style="stroke:#181818;stroke-width:0.7813;" width="182.8812" x="269.5313" y="10.9375"/><ellipse cx="292.9688" cy="35.9375" fill="#ADD1B2" rx="17.1875" ry="17.1875" style="stroke:#181818;stroke-width:1.5625;"/><path d="M297.29,29.4922 Q297.5342,29.1504 297.8271,28.9795 Q298.1201,28.8086 298.4619,28.8086 Q299.0479,28.8086 299.4141,29.2236 Q299.7803,29.6143 299.7803,30.5664 L299.7803,32.8369 Q299.7803,33.7891 299.4141,34.2041 Q299.0479,34.6191 298.4619,34.6191 Q297.9248,34.6191 297.6074,34.3018 Q297.29,34.0088 297.1191,33.2031 Q297.0459,32.6416 296.7529,32.3486 Q296.2402,31.7627 295.2881,31.4209 Q294.3359,31.0791 293.3594,31.0791 Q292.1631,31.0791 291.1621,31.5918 Q290.1855,32.1045 289.4043,33.2764 Q288.6475,34.4482 288.6475,36.0596 L288.6475,37.7686 Q288.6475,39.6973 290.0391,40.9912 Q291.4307,42.2607 293.9209,42.2607 Q295.3857,42.2607 296.4111,41.8701 Q297.0215,41.626 297.6807,40.9424 Q298.0957,40.5273 298.3154,40.4053 Q298.5596,40.2832 298.877,40.2832 Q299.3896,40.2832 299.7803,40.6982 Q300.1953,41.0889 300.1953,41.626 Q300.1953,42.1631 299.6582,42.7979 Q298.877,43.7012 297.6318,44.2139 Q295.9473,44.9219 293.9209,44.9219 Q291.5527,44.9219 289.6729,43.9453 Q288.1348,43.1641 287.0605,41.5039 Q285.9863,39.8193 285.9863,37.8174 L285.9863,36.0107 Q285.9863,33.9355 286.9385,32.1533 Q287.915,30.3467 289.624,29.3945 Q291.333,28.418 293.2617,28.418 Q294.4092,28.418 295.4102,28.6865 Q296.4355,28.9307 297.29,29.4922 Z " fill="#000000"/><text fill="#000000" font-family="Courier" font-size="15.625" lengthAdjust="spacing" textLength="132.8812" x="314.8438" y="42.3309">ListaPecaUseCase</text><line style="stroke:#181818;stroke-width:0.7813;" x1="271.0938" x2="450.8499" y1="60.9375" y2="60.9375"/><line style="stroke:#181818;stroke-width:0.7813;" x1="271.0938" x2="450.8499" y1="73.4375" y2="73.4375"/><text fill="#000000" font-family="sans-serif" font-size="21.875" lengthAdjust="spacing" textLength="62.6129" x="278.9063" y="102.3956">+use()</text></g><!--class RemovePecaUseCase--><g class="entity" data-entity="RemovePecaUseCase" data-source-line="17" data-uid="ent0004" id="entity_RemovePecaUseCase"><rect fill="#F1F1F1" height="102.5146" rx="3.9063" ry="3.9063" style="stroke:#181818;stroke-width:0.7813;" width="208.0582" x="507.0313" y="10.9375"/><ellipse cx="530.4688" cy="35.9375" fill="#ADD1B2" rx="17.1875" ry="17.1875" style="stroke:#181818;stroke-width:1.5625;"/><path d="M534.79,29.4922 Q535.0342,29.1504 535.3271,28.9795 Q535.6201,28.8086 535.9619,28.8086 Q536.5479,28.8086 536.9141,29.2236 Q537.2803,29.6143 537.2803,30.5664 L537.2803,32.8369 Q537.2803,33.7891 536.9141,34.2041 Q536.5479,34.6191 535.9619,34.6191 Q535.4248,34.6191 535.1074,34.3018 Q534.79,34.0088 534.6191,33.2031 Q534.5459,32.6416 534.2529,32.3486 Q533.7402,31.7627 532.7881,31.4209 Q531.8359,31.0791 530.8594,31.0791 Q529.6631,31.0791 528.6621,31.5918 Q527.6855,32.1045 526.9043,33.2764 Q526.1475,34.4482 526.1475,36.0596 L526.1475,37.7686 Q526.1475,39.6973 527.5391,40.9912 Q528.9307,42.2607 531.4209,42.2607 Q532.8857,42.2607 533.9111,41.8701 Q534.5215,41.626 535.1807,40.9424 Q535.5957,40.5273 535.8154,40.4053 Q536.0596,40.2832 536.377,40.2832 Q536.8896,40.2832 537.2803,40.6982 Q537.6953,41.0889 537.6953,41.626 Q537.6953,42.1631 537.1582,42.7979 Q536.377,43.7012 535.1318,44.2139 Q533.4473,44.9219 531.4209,44.9219 Q529.0527,44.9219 527.1729,43.9453 Q525.6348,43.1641 524.5605,41.5039 Q523.4863,39.8193 523.4863,37.8174 L523.4863,36.0107 Q523.4863,33.9355 524.4385,32.1533 Q525.415,30.3467 527.124,29.3945 Q528.833,28.418 530.7617,28.418 Q531.9092,28.418 532.9102,28.6865 Q533.9355,28.9307 534.79,29.4922 Z " fill="#000000"/><text fill="#000000" font-family="Courier" font-size="15.625" lengthAdjust="spacing" textLength="158.0582" x="552.3438" y="42.3309">RemovePecaUseCase</text><line style="stroke:#181818;stroke-width:0.7813;" x1="508.5938" x2="713.5269" y1="60.9375" y2="60.9375"/><line style="stroke:#181818;stroke-width:0.7813;" x1="508.5938" x2="713.5269" y1="73.4375" y2="73.4375"/><text fill="#000000" font-family="sans-serif" font-size="21.875" lengthAdjust="spacing" textLength="62.6129" x="516.4063" y="102.3956">+use()</text></g><!--class AtualizaServicoUseCase--><g class="entity" data-entity="AtualizaServicoUseCase" data-source-line="21" data-uid="ent0005" id="entity_AtualizaServicoUseCase"><rect fill="#F1F1F1" height="102.5146" rx="3.9063" ry="3.9063" style="stroke:#181818;stroke-width:0.7813;" width="221.9513" x="10.9375" y="207.8125"/><ellipse cx="34.375" cy="232.8125" fill="#ADD1B2" rx="17.1875" ry="17.1875" style="stroke:#181818;stroke-width:1.5625;"/><path d="M38.6963,226.3672 Q38.9404,226.0254 39.2334,225.8545 Q39.5264,225.6836 39.8682,225.6836 Q40.4541,225.6836 40.8203,226.0986 Q41.1865,226.4893 41.1865,227.4414 L41.1865,229.7119 Q41.1865,230.6641 40.8203,231.0791 Q40.4541,231.4941 39.8682,231.4941 Q39.3311,231.4941 39.0137,231.1768 Q38.6963,230.8838 38.5254,230.0781 Q38.4521,229.5166 38.1592,229.2236 Q37.6465,228.6377 36.6943,228.2959 Q35.7422,227.9541 34.7656,227.9541 Q33.5693,227.9541 32.5684,228.4668 Q31.5918,228.9795 30.8105,230.1514 Q30.0537,231.3232 30.0537,232.9346 L30.0537,234.6436 Q30.0537,236.5723 31.4453,237.8662 Q32.8369,239.1357 35.3271,239.1357 Q36.792,239.1357 37.8174,238.7451 Q38.4277,238.501 39.0869,237.8174 Q39.502,237.4023 39.7217,237.2803 Q39.9658,237.1582 40.2832,237.1582 Q40.7959,237.1582 41.1865,237.5732 Q41.6016,237.9639 41.6016,238.501 Q41.6016,239.0381 41.0645,239.6729 Q40.2832,240.5762 39.0381,241.0889 Q37.3535,241.7969 35.3271,241.7969 Q32.959,241.7969 31.0791,240.8203 Q29.541,240.0391 28.4668,238.3789 Q27.3926,236.6943 27.3926,234.6924 L27.3926,232.8857 Q27.3926,230.8105 28.3447,229.0283 Q29.3213,227.2217 31.0303,226.2695 Q32.7393,225.293 34.668,225.293 Q35.8154,225.293 36.8164,225.5615 Q37.8418,225.8057 38.6963,226.3672 Z " fill="#000000"/><text fill="#000000" font-family="Courier" font-size="15.625" lengthAdjust="spacing" textLength="171.9513" x="56.25" y="239.2059">AtualizaServicoUseCase</text><line style="stroke:#181818;stroke-width:0.7813;" x1="12.5" x2="231.3263" y1="257.8125" y2="257.8125"/><line style="stroke:#181818;stroke-width:0.7813;" x1="12.5" x2="231.3263" y1="270.3125" y2="270.3125"/><text fill="#000000" font-family="sans-serif" font-size="21.875" lengthAdjust="spacing" textLength="62.6129" x="20.3125" y="299.2706">+use()</text></g><!--class BuscaPorIdServicoUseCase--><g class="entity" data-entity="BuscaPorIdServicoUseCase" data-source-line="25" data-uid="ent0006" id="entity_BuscaPorIdServicoUseCase"><rect fill="#F1F1F1" height="102.5146" rx="3.9063" ry="3.9063" style="stroke:#181818;stroke-width:0.7813;" width="247.1359" x="287.5" y="207.8125"/><ellipse cx="310.9375" cy="232.8125" fill="#ADD1B2" rx="17.1875" ry="17.1875" style="stroke:#181818;stroke-width:1.5625;"/><path d="M315.2588,226.3672 Q315.5029,226.0254 315.7959,225.8545 Q316.0889,225.6836 316.4307,225.6836 Q317.0166,225.6836 317.3828,226.0986 Q317.749,226.4893 317.749,227.4414 L317.749,229.7119 Q317.749,230.6641 317.3828,231.0791 Q317.0166,231.4941 316.4307,231.4941 Q315.8936,231.4941 315.5762,231.1768 Q315.2588,230.8838 315.0879,230.0781 Q315.0146,229.5166 314.7217,229.2236 Q314.209,228.6377 313.2568,228.2959 Q312.3047,227.9541 311.3281,227.9541 Q310.1318,227.9541 309.1309,228.4668 Q308.1543,228.9795 307.373,230.1514 Q306.6162,231.3232 306.6162,232.9346 L306.6162,234.6436 Q306.6162,236.5723 308.0078,237.8662 Q309.3994,239.1357 311.8896,239.1357 Q313.3545,239.1357 314.3799,238.7451 Q314.9902,238.501 315.6494,237.8174 Q316.0645,237.4023 316.2842,237.2803 Q316.5283,237.1582 316.8457,237.1582 Q317.3584,237.1582 317.749,237.5732 Q318.1641,237.9639 318.1641,238.501 Q318.1641,239.0381 317.627,239.6729 Q316.8457,240.5762 315.6006,241.0889 Q313.916,241.7969 311.8896,241.7969 Q309.5215,241.7969 307.6416,240.8203 Q306.1035,240.0391 305.0293,238.3789 Q303.9551,236.6943 303.9551,234.6924 L303.9551,232.8857 Q303.9551,230.8105 304.9072,229.0283 Q305.8838,227.2217 307.5928,226.2695 Q309.3018,225.293 311.2305,225.293 Q312.3779,225.293 313.3789,225.5615 Q314.4043,225.8057 315.2588,226.3672 Z " fill="#000000"/><text fill="#000000" font-family="Courier" font-size="15.625" lengthAdjust="spacing" textLength="197.1359" x="332.8125" y="239.2059">BuscaPorIdServicoUseCase</text><line style="stroke:#181818;stroke-width:0.7813;" x1="289.0625" x2="533.0734" y1="257.8125" y2="257.8125"/><line style="stroke:#181818;stroke-width:0.7813;" x1="289.0625" x2="533.0734" y1="270.3125" y2="270.3125"/><text fill="#000000" font-family="sans-serif" font-size="21.875" lengthAdjust="spacing" textLength="62.6129" x="296.875" y="299.2706">+use()</text></g><!--class CriarServicoUseCase--><g class="entity" data-entity="CriarServicoUseCase" data-source-line="29" data-uid="ent0007" id="entity_CriarServicoUseCase"><rect fill="#F1F1F1" height="102.5146" rx="3.9063" ry="3.9063" style="stroke:#181818;stroke-width:0.7813;" width="200.2151" x="589.0625" y="207.8125"/><ellipse cx="612.5" cy="232.8125" fill="#ADD1B2" rx="17.1875" ry="17.1875" style="stroke:#181818;stroke-width:1.5625;"/><path d="M616.8213,226.3672 Q617.0654,226.0254 617.3584,225.8545 Q617.6514,225.6836 617.9932,225.6836 Q618.5791,225.6836 618.9453,226.0986 Q619.3115,226.4893 619.3115,227.4414 L619.3115,229.7119 Q619.3115,230.6641 618.9453,231.0791 Q618.5791,231.4941 617.9932,231.4941 Q617.4561,231.4941 617.1387,231.1768 Q616.8213,230.8838 616.6504,230.0781 Q616.5771,229.5166 616.2842,229.2236 Q615.7715,228.6377 614.8193,228.2959 Q613.8672,227.9541 612.8906,227.9541 Q611.6943,227.9541 610.6934,228.4668 Q609.7168,228.9795 608.9355,230.1514 Q608.1787,231.3232 608.1787,232.9346 L608.1787,234.6436 Q608.1787,236.5723 609.5703,237.8662 Q610.9619,239.1357 613.4521,239.1357 Q614.917,239.1357 615.9424,238.7451 Q616.5527,238.501 617.2119,237.8174 Q617.627,237.4023 617.8467,237.2803 Q618.0908,237.1582 618.4082,237.1582 Q618.9209,237.1582 619.3115,237.5732 Q619.7266,237.9639 619.7266,238.501 Q619.7266,239.0381 619.1895,239.6729 Q618.4082,240.5762 617.1631,241.0889 Q615.4785,241.7969 613.4521,241.7969 Q611.084,241.7969 609.2041,240.8203 Q607.666,240.0391 606.5918,238.3789 Q605.5176,236.6943 605.5176,234.6924 L605.5176,232.8857 Q605.5176,230.8105 606.4697,229.0283 Q607.4463,227.2217 609.1553,226.2695 Q610.8643,225.293 612.793,225.293 Q613.9404,225.293 614.9414,225.5615 Q615.9668,225.8057 616.8213,226.3672 Z " fill="#000000"/><text fill="#000000" font-family="Courier" font-size="15.625" lengthAdjust="spacing" textLength="150.2151" x="634.375" y="239.2059">CriarServicoUseCase</text><line style="stroke:#181818;stroke-width:0.7813;" x1="590.625" x2="787.7151" y1="257.8125" y2="257.8125"/><line style="stroke:#181818;stroke-width:0.7813;" x1="590.625" x2="787.7151" y1="270.3125" y2="270.3125"/><text fill="#000000" font-family="sans-serif" font-size="21.875" lengthAdjust="spacing" textLength="62.6129" x="598.4375" y="299.2706">+use()</text></g><!--class ListaServicoUseCase--><g class="entity" data-entity="ListaServicoUseCase" data-source-line="33" data-uid="ent0008" id="entity_ListaServicoUseCase"><rect fill="#F1F1F1" height="102.5146" rx="3.9063" ry="3.9063" style="stroke:#181818;stroke-width:0.7813;" width="199.3683" x="21.875" y="404.6875"/><ellipse cx="45.3125" cy="429.6875" fill="#ADD1B2" rx="17.1875" ry="17.1875" style="stroke:#181818;stroke-width:1.5625;"/><path d="M49.6338,423.2422 Q49.8779,422.9004 50.1709,422.7295 Q50.4639,422.5586 50.8057,422.5586 Q51.3916,422.5586 51.7578,422.9736 Q52.124,423.3643 52.124,424.3164 L52.124,426.5869 Q52.124,427.5391 51.7578,427.9541 Q51.3916,428.3691 50.8057,428.3691 Q50.2686,428.3691 49.9512,428.0518 Q49.6338,427.7588 49.4629,426.9531 Q49.3896,426.3916 49.0967,426.0986 Q48.584,425.5127 47.6318,425.1709 Q46.6797,424.8291 45.7031,424.8291 Q44.5068,424.8291 43.5059,425.3418 Q42.5293,425.8545 41.748,427.0264 Q40.9912,428.1982 40.9912,429.8096 L40.9912,431.5186 Q40.9912,433.4473 42.3828,434.7412 Q43.7744,436.0107 46.2646,436.0107 Q47.7295,436.0107 48.7549,435.6201 Q49.3652,435.376 50.0244,434.6924 Q50.4395,434.2773 50.6592,434.1553 Q50.9033,434.0332 51.2207,434.0332 Q51.7334,434.0332 52.124,434.4482 Q52.5391,434.8389 52.5391,435.376 Q52.5391,435.9131 52.002,436.5479 Q51.2207,437.4512 49.9756,437.9639 Q48.291,438.6719 46.2646,438.6719 Q43.8965,438.6719 42.0166,437.6953 Q40.4785,436.9141 39.4043,435.2539 Q38.3301,433.5693 38.3301,431.5674 L38.3301,429.7607 Q38.3301,427.6855 39.2822,425.9033 Q40.2588,424.0967 41.9678,423.1445 Q43.6768,422.168 45.6055,422.168 Q46.7529,422.168 47.7539,422.4365 Q48.7793,422.6807 49.6338,423.2422 Z " fill="#000000"/><text fill="#000000" font-family="Courier" font-size="15.625" lengthAdjust="spacing" textLength="149.3683" x="67.1875" y="436.0809">ListaServicoUseCase</text><line style="stroke:#181818;stroke-width:0.7813;" x1="23.4375" x2="219.6808" y1="454.6875" y2="454.6875"/><line style="stroke:#181818;stroke-width:0.7813;" x1="23.4375" x2="219.6808" y1="467.1875" y2="467.1875"/><text fill="#000000" font-family="sans-serif" font-size="21.875" lengthAdjust="spacing" textLength="62.6129" x="31.25" y="496.1456">+use()</text></g><!--class RemoveServicoUseCase--><g class="entity" data-entity="RemoveServicoUseCase" data-source-line="37" data-uid="ent0009" id="entity_RemoveServicoUseCase"><rect fill="#F1F1F1" height="102.5146" rx="3.9063" ry="3.9063" style="stroke:#181818;stroke-width:0.7813;" width="224.5453" x="276.5625" y="404.6875"/><ellipse cx="300" cy="429.6875" fill="#ADD1B2" rx="17.1875" ry="17.1875" style="stroke:#181818;stroke-width:1.5625;"/><path d="M304.3213,423.2422 Q304.5654,422.9004 304.8584,422.7295 Q305.1514,422.5586 305.4932,422.5586 Q306.0791,422.5586 306.4453,422.9736 Q306.8115,423.3643 306.8115,424.3164 L306.8115,426.5869 Q306.8115,427.5391 306.4453,427.9541 Q306.0791,428.3691 305.4932,428.3691 Q304.9561,428.3691 304.6387,428.0518 Q304.3213,427.7588 304.1504,426.9531 Q304.0771,426.3916 303.7842,426.0986 Q303.2715,425.5127 302.3193,425.1709 Q301.3672,424.8291 300.3906,424.8291 Q299.1943,424.8291 298.1934,425.3418 Q297.2168,425.8545 296.4355,427.0264 Q295.6787,428.1982 295.6787,429.8096 L295.6787,431.5186 Q295.6787,433.4473 297.0703,434.7412 Q298.4619,436.0107 300.9521,436.0107 Q302.417,436.0107 303.4424,435.6201 Q304.0527,435.376 304.7119,434.6924 Q305.127,434.2773 305.3467,434.1553 Q305.5908,434.0332 305.9082,434.0332 Q306.4209,434.0332 306.8115,434.4482 Q307.2266,434.8389 307.2266,435.376 Q307.2266,435.9131 306.6895,436.5479 Q305.9082,437.4512 304.6631,437.9639 Q302.9785,438.6719 300.9521,438.6719 Q298.584,438.6719 296.7041,437.6953 Q295.166,436.9141 294.0918,435.2539 Q293.0176,433.5693 293.0176,431.5674 L293.0176,429.7607 Q293.0176,427.6855 293.9697,425.9033 Q294.9463,424.0967 296.6553,423.1445 Q298.3643,422.168 300.293,422.168 Q301.4404,422.168 302.4414,422.4365 Q303.4668,422.6807 304.3213,423.2422 Z " fill="#000000"/><text fill="#000000" font-family="Courier" font-size="15.625" lengthAdjust="spacing" textLength="174.5453" x="321.875" y="436.0809">RemoveServicoUseCase</text><line style="stroke:#181818;stroke-width:0.7813;" x1="278.125" x2="499.5453" y1="454.6875" y2="454.6875"/><line style="stroke:#181818;stroke-width:0.7813;" x1="278.125" x2="499.5453" y1="467.1875" y2="467.1875"/><text fill="#000000" font-family="sans-serif" font-size="21.875" lengthAdjust="spacing" textLength="62.6129" x="285.9375" y="496.1456">+use()</text></g><!--SRC=[ZS_1QW9130RW-pn5ZaelUkW3w491A28LyHnd0uRkJeOaewZuxifAHR3eNlD_2VdjbrD6nHRgp33-70MxJsA3PXDtvKrncaL9IpuIF94lITubut-ZERO4bHHbqeTyhvZNNFlskZOABXbSO2FkSls5bQApf0VVS28_P09Htqe8tNseb54N575bLA4Hd0B0Hp4Q3CFv3tspERv3FzJAZjwfYHTi-8XBqXr7UKMdnI8kH6Tr3zprwE6wAZtShSrBU040]--></g></svg>